<svg width="64" height="64" viewBox="0 0 64 64" fill="none" xmlns="http://www.w3.org/2000/svg">
<circle cx="32" cy="32" r="32" fill="#ECFFFF"/>
<g clip-path="url(#clip0_0_1)">
<path d="M52.3642 49.0402H10.4872L9 42.0784L53.9991 42.0022L52.3642 49.0402Z" fill="#9FD5B5"/>
<path d="M53.9991 42.0022L52.9333 46.5917L52.3642 49.0402H10.4872L9.96417 46.5917L9 42.0784L53.9991 42.0022Z" fill="#9FD5B5"/>
<path opacity="0.4" d="M53.9991 42.0022L52.9333 46.5917H9.96417L9 42.0784L53.9991 42.0022Z" fill="white"/>
<path d="M49.5865 32.2259C49.5865 34.0912 48.0692 35.6094 46.2039 35.6094C45.2058 35.6094 44.2633 35.1701 43.6189 34.4045L43.3631 34.1025C43.2916 34.0178 43.1684 34 43.0762 34.0621L42.747 34.2831C42.2832 34.5945 41.7433 34.7892 41.1873 34.8447L40.8299 34.8814C40.7283 34.8917 40.6474 34.9726 40.6361 35.0742L40.5985 35.4316C40.4217 37.0806 39.0361 38.3251 37.3739 38.3251C36.9102 38.3251 36.4577 38.2263 36.0316 38.0316L35.8482 37.9479C35.7908 37.9216 35.724 37.9216 35.6666 37.9479L35.4832 38.0326C34.3808 38.5377 33.0554 38.359 32.1345 37.6036L31.8918 37.4042C31.8203 37.3449 31.7187 37.3384 31.6406 37.3873L31.3726 37.5509C30.8364 37.8802 30.2231 38.0542 29.5975 38.0542C27.9326 38.0542 26.5207 36.8633 26.2403 35.2228L26.1519 34.7045C26.1284 34.5709 25.9911 34.491 25.8641 34.5361L25.3693 34.7139C24.6083 34.9839 23.7805 34.8729 23.1334 34.4411L22.6969 34.1505C22.584 34.0762 22.4316 34.1204 22.3771 34.2436L22.1654 34.7233C21.7167 35.743 20.7083 36.4005 19.5984 36.4005C18.3774 36.4005 17.3051 35.6198 16.9288 34.4581L16.7915 34.0329C16.7538 33.9172 16.6297 33.8551 16.5149 33.8937L16.0916 34.0367C15.8075 34.1326 15.5178 34.1815 15.2271 34.1815C13.739 34.1815 12.5275 32.97 12.5275 31.4818C12.5275 29.9928 13.7381 28.7822 15.2224 28.7822L15.8254 28.7953C15.9618 28.7981 16.0681 28.6759 16.0446 28.5413L15.9543 28.0155C15.9082 27.7512 15.8856 27.5113 15.8856 27.2809C15.8856 25.7222 16.735 24.2839 18.1008 23.5248L18.3793 23.3706C18.4611 23.3254 18.5053 23.2323 18.4875 23.1401L18.4282 22.8269C18.3586 22.4581 18.3228 22.0932 18.3228 21.7423C18.3228 18.5525 20.9181 15.9582 24.1069 15.9582C24.5848 15.9582 25.0589 16.0175 25.5198 16.1341C25.9976 16.2545 26.4605 16.4361 26.8941 16.675L27.6447 17.0889C27.7999 17.1745 27.9862 17.0494 27.9655 16.8735L27.8658 16.0212C27.8507 15.8924 27.8404 15.7635 27.8404 15.6309C27.8404 13.8032 29.3266 12.3179 31.1534 12.3179C32.9801 12.3179 34.4664 13.8032 34.4645 15.6525L34.4466 16.2987C34.4428 16.4398 34.5727 16.548 34.7109 16.517L35.2612 16.3956C37.3278 15.9375 39.354 17.0061 40.2062 18.8423L40.3925 19.243C40.4433 19.3521 40.5722 19.3991 40.6813 19.3483L41.082 19.1611C41.383 19.02 41.7019 18.9485 42.0274 18.9485C43.2615 18.9485 44.2652 19.9522 44.2652 21.1873C44.2652 21.3933 44.2351 21.6021 44.1758 21.8081L44.0563 22.2267C44.0234 22.3406 44.0883 22.46 44.2021 22.4939L44.6179 22.6199C46.7711 23.2727 48.2169 25.2227 48.2169 27.4728C48.2169 27.9252 48.152 28.3861 48.024 28.8433L47.9431 29.1302C47.9187 29.2158 47.9497 29.308 48.0203 29.3616L48.2573 29.5431C48.8302 29.9815 49.2365 30.5722 49.4397 31.2373C49.5357 31.5524 49.5865 31.8854 49.5865 32.2259Z" fill="#008285"/>
<path d="M49.4397 31.2373C49.0578 31.4207 48.6298 31.5242 48.1773 31.5242C47.3176 31.5242 46.5048 31.1451 45.9489 30.4857L45.7288 30.2251C45.6667 30.1518 45.5614 30.1367 45.4814 30.1903L45.1973 30.3813C44.7975 30.6494 44.3329 30.8168 43.8531 30.8648L43.5455 30.8967C43.4571 30.9052 43.3875 30.9748 43.3781 31.0632L43.3452 31.3708C43.1928 32.7922 41.9991 33.8655 40.5655 33.8655C40.1658 33.8655 39.7763 33.7799 39.4085 33.6124L39.2505 33.54C39.2016 33.5174 39.1433 33.5174 39.0944 33.54L38.9363 33.6134C37.9853 34.0489 36.8434 33.8946 36.0495 33.2437L35.8406 33.0715C35.7785 33.0198 35.6911 33.0142 35.6233 33.0565L35.3929 33.1976C34.9301 33.4817 34.4014 33.6312 33.8624 33.6312C32.427 33.6312 31.2098 32.605 30.968 31.1912L30.8918 30.7444C30.8721 30.6287 30.7536 30.56 30.6445 30.5986L30.2174 30.7519C29.5618 30.9852 28.8478 30.8892 28.29 30.5167L27.9137 30.2665C27.8168 30.2025 27.6852 30.2402 27.6381 30.3465L27.4556 30.7604C27.069 31.6389 26.1999 32.2061 25.2432 32.2061C24.1906 32.2061 23.266 31.5336 22.9414 30.5318L22.8229 30.1649C22.7909 30.0652 22.6837 30.0116 22.5849 30.0455L22.2199 30.1687C21.9754 30.2515 21.7252 30.2928 21.4749 30.2928C20.1919 30.2928 19.1478 29.2487 19.1478 27.9657C19.1478 26.6826 20.191 25.6385 21.4712 25.6385L21.9904 25.6498C22.108 25.6526 22.1993 25.5472 22.1795 25.4315L22.1014 24.9781C22.0619 24.7505 22.0422 24.5436 22.0422 24.3451C22.0422 23.0009 22.7749 21.7611 23.9517 21.1074L24.1916 20.9738C24.2621 20.9352 24.3007 20.8543 24.2856 20.7753L24.2339 20.5053C24.1746 20.1874 24.1436 19.8732 24.1436 19.5703C24.1436 18.2393 24.6675 17.0296 25.5198 16.1341C25.9976 16.2545 26.4604 16.4361 26.8941 16.675L27.6447 17.0889C27.7999 17.1745 27.9862 17.0494 27.9655 16.8735L27.8658 16.0212C27.8507 15.8924 27.8404 15.7635 27.8404 15.6309C27.8404 13.8032 29.3266 12.3179 31.1533 12.3179C32.9801 12.3179 34.4663 13.8032 34.4645 15.6525L34.4466 16.2987C34.4428 16.4398 34.5726 16.548 34.7109 16.517L35.2612 16.3956C37.3278 15.9375 39.354 17.0061 40.2062 18.8423L40.3925 19.243C40.4433 19.3521 40.5721 19.3991 40.6812 19.3483L41.082 19.1611C41.383 19.02 41.7018 18.9485 42.0273 18.9485C43.2615 18.9485 44.2651 19.9522 44.2651 21.1873C44.2651 21.3933 44.235 21.6021 44.1758 21.8081L44.0563 22.2267C44.0234 22.3406 44.0883 22.46 44.2021 22.4939L44.6179 22.6199C46.771 23.2727 48.2168 25.2227 48.2168 27.4728C48.2168 27.9252 48.1519 28.3861 48.024 28.8433L47.9431 29.1302C47.9186 29.2158 47.9497 29.308 48.0202 29.3616L48.2573 29.5431C48.8301 29.9815 49.2365 30.5722 49.4397 31.2373Z" fill="#49D3CC"/>
<path d="M24.9337 19.4179C25.2856 19.1122 25.3175 18.814 24.9761 18.5233C24.8039 18.3766 24.5782 18.3023 24.3524 18.3164C21.9688 18.4631 20.0508 20.3633 19.8758 22.7394C19.8561 23.0131 19.9483 23.2887 20.1533 23.4702C20.3866 23.6772 20.6415 23.6791 20.9247 23.4053C21.0846 23.2511 21.173 23.0385 21.1909 22.8174C21.3263 21.1158 22.695 19.7547 24.4004 19.6333C24.597 19.6183 24.7851 19.5468 24.9337 19.4179Z" fill="#3F4254"/>
<path d="M45.8821 28.642C46.1446 28.9147 46.4023 28.9627 46.6544 28.7595C46.8783 28.5789 46.9836 28.2892 46.962 28.0023C46.7889 25.6751 44.9274 23.8108 42.6021 23.6311C42.3161 23.6095 42.0273 23.7082 41.8411 23.9265C41.6322 24.1691 41.6482 24.4241 41.922 24.6921C42.0781 24.8445 42.2879 24.9283 42.5052 24.9452C44.1786 25.0769 45.5171 26.4154 45.6479 28.0889C45.6639 28.2939 45.7391 28.4933 45.8821 28.642Z" fill="#3F4254"/>
<path d="M29.2316 29.1828C29.1169 29.1828 29.0021 29.1659 28.8911 29.132C28.75 29.0897 28.6164 29.0163 28.5026 28.9204C28.2007 28.6655 28.0549 28.2996 28.1028 27.9158C28.2778 26.5114 28.7999 25.1597 29.6182 23.9867C28.9852 23.7854 28.3342 23.6838 27.6777 23.6838C27.3766 23.6838 27.0719 23.7054 26.7718 23.7477C26.7201 23.7553 26.6674 23.759 26.6147 23.759C26.1133 23.759 25.6712 23.4213 25.5414 22.9378C25.4577 22.6284 25.5 22.3001 25.6562 22.0376C25.833 21.7413 26.1275 21.5447 26.4661 21.4967C26.8696 21.4403 27.276 21.4121 27.6767 21.4121C28.9184 21.4121 30.1234 21.6698 31.2578 22.1787C31.2663 22.1825 31.2757 22.1862 31.286 22.191C31.2945 22.1844 31.302 22.1778 31.3105 22.1712C32.5888 21.1402 34.1174 20.4893 35.7315 20.288C35.7842 20.2805 35.8369 20.2795 35.8717 20.2795C36.4935 20.2795 36.9995 20.7894 36.9995 21.4168C36.9995 21.9868 36.5697 22.4722 35.9996 22.5446C35.0656 22.6641 34.1578 22.9914 33.3564 23.4956C34.4353 24.4053 35.2838 25.5688 35.8162 26.8782C35.9394 27.1783 35.9272 27.5066 35.7814 27.8001C35.6375 28.0926 35.3732 28.3099 35.0562 28.3955C34.9593 28.4209 34.8605 28.4341 34.7598 28.4341C34.297 28.4341 33.886 28.1585 33.711 27.7324C33.2802 26.6788 32.57 25.7542 31.65 25.0496C30.9474 25.9658 30.5024 27.0485 30.3585 28.1933C30.287 28.7577 29.8026 29.1828 29.2316 29.1828Z" fill="#FFDF00"/>
<path d="M35.8707 20.75C36.2329 20.75 36.5283 21.0491 36.5283 21.4169C36.5283 21.7546 36.2743 22.0349 35.9385 22.0782C34.7918 22.224 33.726 22.651 32.8155 23.2897C32.7732 23.3198 32.7308 23.35 32.6885 23.381C32.6471 23.4111 32.6057 23.4431 32.5643 23.4741C32.6067 23.5042 32.6481 23.5353 32.6894 23.5654C32.7299 23.5964 32.7703 23.6274 32.8108 23.6594C33.9509 24.5493 34.8332 25.7129 35.3797 27.0552C35.4512 27.2302 35.4437 27.4202 35.359 27.5914C35.2744 27.7635 35.1182 27.8914 34.9329 27.9413C34.8765 27.9563 34.8172 27.9639 34.7589 27.9639C34.488 27.9639 34.2472 27.803 34.1456 27.5547C33.6536 26.3516 32.8315 25.331 31.8109 24.5831C31.7714 24.553 31.7309 24.5239 31.6895 24.4966C31.6491 24.4674 31.6077 24.4392 31.5663 24.411C31.5334 24.4477 31.5014 24.4863 31.4694 24.5239C31.4393 24.5596 31.4092 24.5954 31.3801 24.6321C30.5899 25.6113 30.0575 26.8116 29.891 28.1351C29.8496 28.4643 29.5665 28.7126 29.2316 28.7126C29.1648 28.7126 29.0961 28.7032 29.0275 28.6816C28.9466 28.6571 28.8704 28.6148 28.8064 28.5602C28.6277 28.4088 28.5421 28.1953 28.5703 27.9733C28.749 26.536 29.3144 25.1598 30.1882 24.0018C30.2165 23.9623 30.2475 23.9228 30.2776 23.8842C30.3096 23.8438 30.3416 23.8033 30.3736 23.7638C30.3237 23.7431 30.2729 23.7225 30.2221 23.7018C30.177 23.6839 30.1309 23.666 30.0848 23.6491C29.3238 23.3659 28.5101 23.2126 27.6786 23.2126C27.354 23.2126 27.0295 23.2352 26.7069 23.2813C26.6768 23.286 26.6457 23.2879 26.6156 23.2879C26.3297 23.2879 26.0729 23.0979 25.9957 22.8138C25.9468 22.6332 25.9647 22.4375 26.0606 22.2767C26.1651 22.1008 26.3334 21.9888 26.5319 21.9606C26.9101 21.9079 27.2948 21.8806 27.6767 21.8806C28.8506 21.8806 30.0011 22.129 31.0649 22.6059C31.111 22.6256 31.1562 22.6473 31.2023 22.6689C31.254 22.6924 31.3057 22.7178 31.3565 22.7432C31.397 22.7075 31.4384 22.6727 31.4798 22.6379C31.5212 22.604 31.5616 22.5701 31.6039 22.5363C32.8042 21.5684 34.2622 20.9428 35.7889 20.7528C35.8162 20.7509 35.8435 20.75 35.8707 20.75ZM35.8707 19.8093C35.7974 19.8093 35.7325 19.8131 35.6676 19.8216C34.0525 20.0238 32.5192 20.6531 31.2145 21.6474C30.0885 21.1789 28.8995 20.9409 27.6767 20.9409C27.2543 20.9409 26.8263 20.971 26.4021 21.0303C25.9205 21.098 25.5019 21.3774 25.2526 21.796C25.0316 22.1675 24.9714 22.6275 25.088 23.0593C25.2733 23.7478 25.9017 24.2285 26.6156 24.2285C26.6899 24.2285 26.7643 24.2229 26.8386 24.2125C27.117 24.173 27.3992 24.1533 27.6786 24.1533C28.0793 24.1533 28.4791 24.1947 28.8723 24.2756C28.2166 25.3733 27.7943 26.5952 27.6372 27.8576C27.5704 28.3919 27.7802 28.9243 28.1997 29.2789C28.3615 29.4162 28.5543 29.5206 28.7556 29.5818C28.9118 29.6288 29.0717 29.6533 29.2325 29.6533C30.0406 29.6533 30.7244 29.0513 30.8251 28.2526C30.9379 27.3524 31.2521 26.4936 31.7413 25.7373C32.4129 26.3422 32.9378 27.0844 33.2755 27.9112C33.5229 28.5151 34.1051 28.9055 34.7598 28.9055C34.9009 28.9055 35.0411 28.8876 35.1765 28.8509C35.6262 28.7305 35.9996 28.4229 36.2037 28.0071C36.406 27.5989 36.4229 27.122 36.2508 26.6996C35.7739 25.5285 35.058 24.4674 34.155 23.587C34.7532 23.2916 35.3985 23.096 36.0579 23.0123C36.8622 22.9097 37.4689 22.224 37.4689 21.4178C37.4689 20.5299 36.7521 19.8093 35.8707 19.8093Z" fill="#3F4254"/>
<path d="M32.4195 44.5522V51.1321C32.4195 51.1839 32.4383 51.2337 32.4712 51.2713C32.4919 51.2977 32.5202 51.3184 32.5531 51.3325L33.5257 51.7379C33.7449 51.8301 33.68 52.1565 33.442 52.1565H28.6823C28.449 52.1565 28.3803 51.8376 28.5929 51.7407L29.226 51.4529C29.3031 51.4171 29.353 51.34 29.353 51.2544V44.6444C29.353 44.6218 29.3492 44.5983 29.3417 44.5767L27.6062 39.3203C27.5488 39.1472 27.7172 38.9836 27.8874 39.0485C27.9956 39.0898 28.1057 39.1265 28.2167 39.1604C28.2637 39.1745 28.306 39.2046 28.3333 39.246L30.8608 42.9653C30.9446 43.0886 31.1261 43.0923 31.2145 42.9719L31.5494 42.5204L33.6386 39.7041C33.6837 39.6439 33.7552 39.6129 33.8305 39.6176C33.9697 39.6279 34.1089 39.6307 34.2481 39.6279C34.409 39.6241 34.5209 39.7859 34.4551 39.9336L32.4383 44.4638C32.4261 44.492 32.4195 44.5221 32.4195 44.5522Z" fill="#FEB404"/>
<path d="M53.8514 41.6813C53.699 41.5111 53.4732 41.4236 53.2447 41.4236H35.5688C35.4108 41.4236 35.3054 41.2618 35.3694 41.1179L36.0325 39.6288C36.0758 39.5329 36.1802 39.4802 36.2818 39.5056C36.6374 39.595 37.0024 39.6401 37.373 39.6401C38.4519 39.6401 39.449 39.2667 40.2335 38.6355C40.9879 38.0288 41.5457 37.1841 41.7931 36.2049C41.8129 36.1258 41.874 36.0647 41.953 36.0459C42.2672 35.9697 42.5729 35.8615 42.8645 35.7232C42.9454 35.6856 43.0385 35.6988 43.1053 35.758C43.9576 36.5059 45.0534 36.9245 46.202 36.9245C48.7935 36.9245 50.9015 34.8164 50.9015 32.224C50.9015 30.9419 50.3898 29.7435 49.4802 28.8621C49.4265 28.8094 49.4021 28.7351 49.4162 28.6617C49.4933 28.2638 49.5319 27.8659 49.5319 27.4709C49.5319 24.8907 48.0231 22.6246 45.7062 21.6181C45.6225 21.5814 45.568 21.4977 45.5736 21.4065C45.5783 21.3331 45.5811 21.2597 45.5811 21.1864C45.5811 19.226 43.9858 17.6307 42.0255 17.6307C41.7677 17.6307 41.5128 17.6589 41.2635 17.7144C41.1742 17.7341 41.0829 17.6975 41.034 17.6203C39.9428 15.9112 38.0051 14.8699 35.931 14.978C35.8228 14.9837 35.7278 14.9075 35.708 14.8021C35.3167 12.6424 33.4222 11 31.1524 11C28.8751 11 26.9759 12.6537 26.5931 14.8238C26.5696 14.9536 26.4388 15.0335 26.3137 14.9931C25.6035 14.7607 24.8566 14.6403 24.106 14.6403C20.191 14.6403 17.005 17.8254 17.005 21.7413C17.005 21.9859 17.0191 22.2352 17.0464 22.4873C17.0548 22.5672 17.02 22.6444 16.9542 22.6905C15.4689 23.7355 14.5687 25.4438 14.5687 27.2799V27.3354C14.5687 27.4389 14.4972 27.5301 14.3965 27.5508C12.5792 27.9356 11.2105 29.5516 11.2105 31.4809C11.2105 33.6952 13.0119 35.4975 15.2271 35.4975C15.404 35.4975 15.5808 35.4852 15.7558 35.4617C15.8489 35.4495 15.9373 35.4947 15.9825 35.5765C16.6955 36.8821 18.067 37.7174 19.5984 37.7174C20.935 37.7174 22.1701 37.0684 22.9358 36.012C22.9922 35.9339 23.0938 35.9029 23.1832 35.9368C23.7419 36.1456 24.3515 36.2227 24.9516 36.1531C25.0476 36.1418 25.136 36.202 25.1699 36.2923C25.2282 36.4475 25.294 36.599 25.3674 36.7457C25.3712 36.7533 25.3749 36.7627 25.3777 36.7711L25.9939 38.6355L26.8198 41.1376C26.8659 41.2778 26.7614 41.4227 26.6138 41.4227L9.65564 41.4236C9.29348 41.4236 9 41.7171 9 42.0783C9 42.2617 9.07431 42.4273 9.19377 42.5467C9.31418 42.6662 9.47973 42.7405 9.66222 42.7405H27.1904C27.2845 42.7405 27.3672 42.8007 27.3973 42.8891L28.0238 44.7883C28.0313 44.81 28.0351 44.8335 28.0351 44.8561V45.8155C28.0351 45.935 27.9382 46.0328 27.8178 46.0328H23.4983C23.1155 46.0328 22.806 46.3423 22.806 46.7242C22.806 46.8973 22.8756 47.0534 22.9885 47.1663C23.1023 47.2792 23.2585 47.3497 23.4306 47.3497H27.8178C27.9382 47.3497 28.0351 47.4466 28.0351 47.567V48.2509C28.0351 48.3713 27.9382 48.4682 27.8178 48.4682H11.1513C10.7872 48.4682 10.4919 48.7635 10.4919 49.1276C10.4919 49.3091 10.5653 49.4737 10.6847 49.5923C10.8032 49.7117 10.9679 49.7851 11.1494 49.7851H27.8169C27.9373 49.7851 28.0342 49.8829 28.0342 50.0033V50.4078C28.0342 50.4925 27.9843 50.5696 27.9072 50.6053L24.6854 52.0737C23.9696 52.4011 24.2019 53.4734 24.9893 53.4734H37.531C38.3127 53.4734 38.5281 52.3973 37.8057 52.0963L33.869 50.4567C33.7881 50.4229 33.7355 50.3438 33.7355 50.2554V50.0033C33.7355 49.8829 33.8324 49.786 33.9528 49.786H51.7368C52.0171 49.786 52.2805 49.6139 52.3642 49.3458C52.4216 49.1624 52.3877 48.9789 52.2871 48.7965C52.1732 48.5895 51.9484 48.4691 51.7123 48.4691H33.9528C33.8324 48.4691 33.7355 48.3713 33.7355 48.2518V47.567C33.7355 47.4466 33.8324 47.3497 33.9528 47.3497H38.3447C38.7087 47.3497 39.0031 47.0544 39.0031 46.6913C39.0031 46.5097 38.9298 46.3442 38.8103 46.2257C38.6908 46.1062 38.5272 46.0328 38.3447 46.0328H33.9528C33.8324 46.0328 33.7355 45.935 33.7355 45.8155V44.8335C33.7355 44.8024 33.7421 44.7723 33.7543 44.7451L34.5905 42.8694C34.6253 42.7904 34.7034 42.7405 34.789 42.7405H53.1797C53.4262 42.7405 53.6642 42.6371 53.8203 42.447C54.0404 42.1771 54.0668 41.9203 53.8514 41.6813ZM34.4551 39.9336L32.4383 44.4638C32.4261 44.492 32.4195 44.5221 32.4195 44.5522V51.1321C32.4195 51.2196 32.4722 51.2986 32.5531 51.3325L33.5257 51.7379C33.7449 51.8301 33.68 52.1565 33.442 52.1565H28.6823C28.449 52.1565 28.3803 51.8376 28.5929 51.7407L29.226 51.4529C29.3031 51.4171 29.353 51.34 29.353 51.2544V44.6444C29.353 44.6218 29.3492 44.5983 29.3417 44.5767L27.6062 39.3203C27.5488 39.1472 27.7172 38.9835 27.8874 39.0485C27.9956 39.0898 28.1056 39.1265 28.2166 39.1604C28.2637 39.1745 28.306 39.2046 28.3333 39.246L30.8608 42.9653C30.9445 43.0886 31.1261 43.0923 31.2145 42.9719L33.6386 39.7041C33.6837 39.6439 33.7552 39.6128 33.8305 39.6175C33.9697 39.6279 34.1089 39.6307 34.2481 39.6279C34.409 39.6241 34.5209 39.7859 34.4551 39.9336ZM30.3406 39.3043C30.7611 39.2385 31.1722 39.1171 31.5607 38.9393C31.6265 38.9092 31.7008 38.9139 31.7629 38.9516C31.9473 39.0654 32.1411 39.1604 32.3395 39.2469L31.2625 40.6993C31.1741 40.8197 30.9925 40.8159 30.9088 40.6918L30.1967 39.6439C30.1074 39.5122 30.1826 39.3288 30.3406 39.3043ZM32.1345 37.6036L31.8918 37.4042C31.8203 37.3449 31.7187 37.3383 31.6406 37.3873L31.3725 37.5509C30.8364 37.8802 30.2231 38.0542 29.5975 38.0542C27.9326 38.0542 26.5206 36.8633 26.2403 35.2228L26.1519 34.7045C26.1284 34.5709 25.9911 34.491 25.8641 34.5361L25.3693 34.7139C24.6083 34.9839 23.7805 34.8729 23.1333 34.4411L22.6969 34.1505C22.584 34.0761 22.4316 34.1204 22.3771 34.2436L22.1654 34.7233C21.7167 35.743 20.7083 36.4005 19.5984 36.4005C18.3774 36.4005 17.305 35.6198 16.9288 34.4581L16.7914 34.0329C16.7538 33.9172 16.6297 33.8551 16.5149 33.8937L16.0916 34.0366C15.8075 34.1326 15.5178 34.1815 15.2271 34.1815C13.739 34.1815 12.5275 32.9699 12.5275 31.4818C12.5275 29.9928 13.7381 28.7821 15.2224 28.7821L15.8254 28.7953C15.9618 28.7981 16.0681 28.6758 16.0446 28.5413L15.9543 28.0155C15.9082 27.7512 15.8856 27.5113 15.8856 27.2809C15.8856 25.7222 16.735 24.2839 18.1008 23.5248L18.3793 23.3706C18.4611 23.3254 18.5053 23.2323 18.4874 23.1401L18.4282 22.8269C18.3586 22.4581 18.3228 22.0931 18.3228 21.7423C18.3228 18.5525 20.9181 15.9582 24.1069 15.9582C25.0805 15.9582 26.0437 16.2056 26.8941 16.675L27.6447 17.0889C27.7999 17.1745 27.9862 17.0494 27.9655 16.8734L27.8658 16.0212C27.8507 15.8923 27.8404 15.7635 27.8404 15.6308C27.8404 13.8032 29.3266 12.3179 31.1534 12.3179C32.9801 12.3179 34.4664 13.8032 34.4645 15.6525L34.4466 16.2987C34.4428 16.4398 34.5726 16.548 34.7109 16.5169L35.2612 16.3956C37.3278 15.9375 39.354 17.0061 40.2062 18.8422L40.3925 19.243C40.4433 19.3521 40.5721 19.3991 40.6813 19.3483L41.082 19.1611C41.383 19.02 41.7019 18.9485 42.0273 18.9485C43.2615 18.9485 44.2652 19.9522 44.2652 21.1873C44.2652 21.3933 44.2351 21.6021 44.1758 21.8081L44.0563 22.2267C44.0234 22.3405 44.0883 22.46 44.2021 22.4939L44.6179 22.6199C46.7711 23.2727 48.2169 25.2227 48.2169 27.4727C48.2169 27.9252 48.1519 28.3861 48.024 28.8433L47.9431 29.1302C47.9187 29.2158 47.9497 29.308 48.0203 29.3616L48.2573 29.5431C49.102 30.1903 49.5864 31.1686 49.5864 32.2259C49.5864 34.0912 48.0692 35.6094 46.2038 35.6094C45.2058 35.6094 44.2633 35.1701 43.6189 34.4044L43.3631 34.1025C43.2916 34.0178 43.1684 34 43.0762 34.062L42.7469 34.2831C42.2832 34.5944 41.7433 34.7892 41.1873 34.8447L40.8299 34.8813C40.7283 34.8917 40.6474 34.9726 40.6361 35.0742L40.5985 35.4316C40.4216 37.0806 39.0361 38.3251 37.3739 38.3251C36.9102 38.3251 36.4577 38.2263 36.0316 38.0316L35.8482 37.9479C35.7908 37.9215 35.724 37.9215 35.6666 37.9479L35.4832 38.0325C34.3808 38.5377 33.0554 38.359 32.1345 37.6036Z" fill="#3F4254"/>
<path opacity="0.4" d="M32.4195 44.5521V51.132C32.4195 51.1837 32.4383 51.2336 32.4712 51.2712L30.7442 50.5083V44.2963C30.1318 44.0827 27.8874 39.0483 27.8874 39.0483C27.9956 39.0897 28.1056 39.1264 28.2166 39.1603C28.2637 39.1744 28.306 39.2045 28.3333 39.2459L30.8608 42.9652C30.9445 43.0885 31.1261 43.0922 31.2145 42.9718L31.5494 42.5203L33.6386 39.704C33.6837 39.6438 33.7552 39.6127 33.8304 39.6174C33.9697 39.6278 34.1089 39.6306 34.2481 39.6278C34.409 39.624 34.5209 39.7858 34.455 39.9335L32.4383 44.4637C32.4261 44.4919 32.4195 44.522 32.4195 44.5521Z" fill="white"/>
</g>
<defs>
<clipPath id="clip0_0_1">
<rect width="45" height="42.4734" fill="white" transform="translate(9 11)"/>
</clipPath>
</defs>
</svg>
