<svg width="64" height="64" viewBox="0 0 64 64" fill="none" xmlns="http://www.w3.org/2000/svg">
<circle cx="32" cy="32" r="32" fill="#ECFFFF"/>
<g clip-path="url(#clip0_0_1)">
<path d="M43.0079 14.1317C43.0079 14.1317 35.5188 11.6351 36.666 20.2714C36.666 20.2714 43.9529 22.093 43.0079 14.1317ZM41.5472 18.7828C40.5393 19.7915 38.5101 19.7628 37.373 19.6111C37.2221 18.4763 37.1925 16.4464 38.2013 15.4368C39.2093 14.428 41.2408 14.4576 42.3763 14.61C42.5303 15.7417 42.5615 17.7693 41.5472 18.7828Z" fill="#008285"/>
<path d="M35.6315 23.8592H35.6307L30.1887 18.8542H27.0854L29.225 23.783L29.3114 23.9821H35.7645L35.6315 23.8592ZM28.0374 19.3606H29.8706L33.8076 23.2976H29.6124L28.0374 19.3606Z" fill="#008285"/>
<path d="M17.6106 24.1812H17.6013C15.597 24.1897 13.9738 27.0713 13.9738 30.625C13.9738 34.0518 15.4834 36.8533 17.3889 37.0556C17.462 37.0641 17.5359 37.068 17.6106 37.068C19.6188 37.068 21.2474 34.1833 21.2474 30.625C21.2474 27.0659 19.6188 24.1812 17.6106 24.1812ZM17.6106 36.4209C17.5398 36.4209 17.4698 36.4162 17.3998 36.4061C15.8342 36.1938 14.5485 33.6334 14.5485 30.625C14.5485 27.4952 15.9392 24.8508 17.5904 24.8298C17.5974 24.829 17.6036 24.829 17.6106 24.829C19.2704 24.829 20.6727 27.4828 20.6727 30.625C20.6727 33.7672 19.2696 36.4209 17.6106 36.4209Z" fill="#008285"/>
<path d="M17.6106 37.3052C17.5344 37.3052 17.4589 37.3091 17.3843 37.3176C15.4811 37.5245 13.9738 40.3245 13.9738 43.7482C13.9738 47.0444 15.3706 49.7619 17.1727 50.1446C17.3166 50.1757 17.4628 50.1912 17.6106 50.1912C19.6188 50.1912 21.2474 47.3065 21.2474 43.7482C21.2474 40.1899 19.6188 37.3052 17.6106 37.3052ZM17.6106 49.5441C17.4659 49.5441 17.3236 49.5239 17.1836 49.485C15.7167 49.0783 14.5485 46.6166 14.5485 43.7482C14.5485 40.7561 15.8202 38.2074 17.3742 37.9702C17.4527 37.9585 17.5313 37.9523 17.6106 37.9523C19.2704 37.9523 20.6727 40.606 20.6727 43.7482C20.6727 46.8904 19.2696 49.5441 17.6106 49.5441Z" fill="#008285"/>
<path d="M51.1791 30.1218C51.3067 23.5776 45.909 23.9821 45.909 23.9821L35.6315 23.8592H35.6308L29.225 23.783L17.6106 23.6445L17.6013 24.1812L17.5904 24.8299C17.5974 24.8291 17.6036 24.8291 17.6106 24.8291C19.2704 24.8291 20.6727 27.4828 20.6727 30.625C20.6727 33.7672 19.2696 36.4209 17.6106 36.4209C17.5398 36.4209 17.4698 36.4163 17.3999 36.4062L17.389 37.0556L17.3843 37.3177L17.3742 37.9703C17.4527 37.9586 17.5313 37.9524 17.6106 37.9524C19.2704 37.9524 20.6727 40.6061 20.6727 43.7483C20.6727 46.8905 19.2696 49.5442 17.6106 49.5442C17.466 49.5442 17.3236 49.524 17.1836 49.4851L17.1727 50.1447L17.1673 50.4978H47.6636C47.6636 50.4978 50.9691 48.6039 51.1714 43.7483C51.3744 38.8927 47.4606 37.3053 47.4606 37.3053C47.4606 37.3053 51.0516 36.6667 51.1791 30.1218ZM49.755 40.7951H44.4048C43.9832 40.7967 43.6426 41.1389 43.6426 41.5612C43.6426 41.9828 43.9832 42.325 44.4048 42.3265H49.8733C49.9487 42.3226 50.0234 42.3079 50.0941 42.2822C50.2373 43.2544 50.2373 44.2422 50.0941 45.2144C50.0234 45.188 49.9487 45.1732 49.8733 45.1693H38.937C38.7333 45.1693 38.5381 45.2494 38.3942 45.3933C38.2495 45.5364 38.1686 45.7316 38.1686 45.9354C38.1686 46.1392 38.2495 46.3344 38.3942 46.4783C38.5381 46.6214 38.7333 46.7023 38.937 46.7015H49.755C49.2129 48.3877 48.2329 49.545 47.1394 49.545V49.5442C47.0453 49.5458 46.9527 49.5645 46.8664 49.5995C46.7793 49.5645 46.6867 49.5458 46.5926 49.5442H20.4464C21.0981 48.7019 21.5679 47.7344 21.8269 46.7015H31.2815C31.703 46.6999 32.0445 46.3569 32.0445 45.9354C32.0445 45.5138 31.703 45.1716 31.2815 45.1701H22.1194C22.1754 44.698 22.2041 44.2235 22.2041 43.7483C22.2041 43.2731 22.1754 42.7986 22.1194 42.3265H26.9073C27.3288 42.325 27.6695 41.9828 27.6695 41.5612C27.6695 41.1389 27.3288 40.7967 26.9073 40.7951H21.8269C21.5671 39.7622 21.0974 38.7947 20.4464 37.9516H46.5926C46.686 37.9508 46.7785 37.9321 46.8656 37.8971C46.9527 37.9321 47.0453 37.9508 47.1394 37.9516C48.2329 37.9516 49.2129 39.1089 49.755 40.7951ZM47.1394 36.4209C47.0453 36.4217 46.9527 36.4404 46.8656 36.4762C46.7793 36.4404 46.686 36.4217 46.5926 36.4209H20.4464C21.0974 35.5786 21.5679 34.6103 21.8269 33.5774H31.2815C31.703 33.5759 32.0445 33.2336 32.0445 32.8121C32.0445 32.3905 31.703 32.0475 31.2815 32.046H22.1194C22.1754 31.5739 22.2041 31.0994 22.2041 30.6242C22.2041 30.149 22.1754 29.6746 22.1194 29.2032H26.9065C27.3281 29.2017 27.6695 28.8587 27.6695 28.4371C27.6695 28.0156 27.3281 27.6734 26.9065 27.671H21.8261C21.5671 26.6389 21.0974 25.6706 20.4456 24.8283H46.5919C46.686 24.8267 46.7785 24.8081 46.8656 24.7731C46.9527 24.8081 47.0453 24.8267 47.1386 24.8283C48.2329 24.8283 49.2122 25.9848 49.755 27.671V27.6718H44.4055V27.671C43.9832 27.6734 43.6426 28.0156 43.6426 28.4371C43.6426 28.8587 43.9832 29.2017 44.4055 29.2032H49.874C49.9495 29.1994 50.0234 29.1846 50.0941 29.1589C50.2373 30.1303 50.2373 31.1181 50.0941 32.0903C50.0234 32.0647 49.9487 32.0499 49.8733 32.046H38.937C38.7333 32.0452 38.5381 32.1253 38.3942 32.2692C38.2495 32.4131 38.1686 32.6083 38.1686 32.8121C38.1686 33.0151 38.2495 33.2111 38.3942 33.3542C38.5381 33.4981 38.7333 33.5782 38.937 33.5774H49.755C49.2129 35.2636 48.2337 36.4209 47.1394 36.4209Z" fill="#008285"/>
<path d="M49.2052 37.187H49.2059C50.966 35.4736 51.8892 33.0765 51.7329 30.625C51.7329 26.516 49.7154 23.2968 47.1394 23.2968V23.2976C47.0453 23.2984 46.9527 23.317 46.8656 23.352C46.7793 23.317 46.686 23.2984 46.5926 23.2976H35.973L30.7285 18.0531C30.5854 17.91 30.3902 17.8291 30.1872 17.8291H26.9065C26.6522 17.8291 26.415 17.9551 26.2726 18.1651C26.1303 18.3759 26.1015 18.6426 26.1956 18.8791L27.9627 23.2976H18.1574C18.1053 23.3015 18.0547 23.3124 18.005 23.3279C17.8743 23.3093 17.7429 23.2991 17.6106 23.2976C15.0354 23.2976 13.0171 26.516 13.0171 30.625C12.8608 33.0765 13.784 35.4736 15.5441 37.187C13.784 38.8996 12.8608 41.2975 13.0171 43.749C13.0171 47.8572 15.0347 51.0764 17.6106 51.0764C17.7429 51.0748 17.8743 51.0639 18.005 51.0453C18.0547 51.0608 18.1061 51.0717 18.1574 51.0764H46.5919C46.686 51.0748 46.7785 51.0562 46.8656 51.0212C46.9527 51.0562 47.0453 51.0748 47.1386 51.0764C49.7146 51.0764 51.7329 47.8572 51.7329 43.749C51.8892 41.2975 50.966 38.8996 49.2052 37.187ZM50.0942 45.2143C50.0234 45.1879 49.9487 45.1731 49.8733 45.1692H38.9371C38.7333 45.1692 38.5381 45.2493 38.3942 45.3932C38.2495 45.5363 38.1686 45.7316 38.1686 45.9353C38.1686 46.1391 38.2495 46.3343 38.3942 46.4782C38.5381 46.6213 38.7333 46.7022 38.9371 46.7014H49.755C49.2129 48.3876 48.2329 49.545 47.1394 49.545V49.5442C47.0453 49.5457 46.9527 49.5644 46.8664 49.5994C46.7793 49.5644 46.6867 49.5457 46.5926 49.5442H20.4464C21.0982 48.7019 21.5679 47.7343 21.8269 46.7014H31.2815C31.703 46.6999 32.0445 46.3569 32.0445 45.9353C32.0445 45.5138 31.703 45.1716 31.2815 45.17H22.1194C22.1754 44.6979 22.2041 44.2235 22.2041 43.7482C22.2041 43.273 22.1754 42.7986 22.1194 42.3265H26.9073C27.3289 42.3249 27.6695 41.9827 27.6695 41.5612C27.6695 41.1388 27.3289 40.7966 26.9073 40.7951H21.8269C21.5671 39.7622 21.0974 38.7946 20.4464 37.9515H46.5926C46.686 37.9508 46.7785 37.9321 46.8656 37.8971C46.9527 37.9321 47.0453 37.9508 47.1394 37.9515C48.2329 37.9515 49.2129 39.1089 49.755 40.7951H44.4048C43.9832 40.7966 43.6426 41.1388 43.6426 41.5612C43.6426 41.9827 43.9832 42.3249 44.4048 42.3265H49.8733C49.9487 42.3226 50.0234 42.3078 50.0942 42.2822C50.2373 43.2544 50.2373 44.2421 50.0942 45.2143ZM17.5904 24.8298C17.5974 24.829 17.6036 24.829 17.6106 24.829C19.2704 24.829 20.6727 27.4828 20.6727 30.625C20.6727 33.7671 19.2696 36.4209 17.6106 36.4209C17.5399 36.4209 17.4699 36.4162 17.3999 36.4061C15.8342 36.1938 14.5486 33.6334 14.5486 30.625C14.5486 27.4952 15.9392 24.8508 17.5904 24.8298ZM29.8706 19.3605L33.8077 23.2976H29.6124L28.0374 19.3605H29.8706ZM46.8656 24.773C46.9527 24.808 47.0453 24.8267 47.1386 24.8282C48.2329 24.8282 49.2122 25.9848 49.755 27.671V27.6718H44.4056V27.671C43.9832 27.6733 43.6426 28.0155 43.6426 28.4371C43.6426 28.8586 43.9832 29.2016 44.4056 29.2032H49.874C49.9495 29.1993 50.0234 29.1845 50.0942 29.1589C50.2373 30.1303 50.2373 31.1181 50.0942 32.0903C50.0234 32.0646 49.9487 32.0498 49.8733 32.0459H38.9371C38.7333 32.0452 38.5381 32.1253 38.3942 32.2692C38.2495 32.413 38.1686 32.6083 38.1686 32.812C38.1686 33.015 38.2495 33.211 38.3942 33.3541C38.5381 33.498 38.7333 33.5781 38.9371 33.5774H49.755C49.2129 35.2636 48.2337 36.4209 47.1394 36.4209C47.0453 36.4217 46.9527 36.4403 46.8656 36.4761C46.7793 36.4403 46.686 36.4217 46.5926 36.4209H20.4464C21.0974 35.5786 21.5679 34.6102 21.8269 33.5774H31.2815C31.703 33.5758 32.0445 33.2336 32.0445 32.812C32.0445 32.3905 31.703 32.0475 31.2815 32.0459H22.1194C22.1754 31.5738 22.2041 31.0994 22.2041 30.6242C22.2041 30.149 22.1754 29.6745 22.1194 29.2032H26.9065C27.3281 29.2016 27.6695 28.8586 27.6695 28.4371C27.6695 28.0155 27.3281 27.6733 26.9065 27.671H21.8261C21.5671 26.6389 21.0974 25.6706 20.4456 24.8282H46.5919C46.686 24.8267 46.7785 24.808 46.8656 24.773ZM17.3742 37.9702C17.4527 37.9585 17.5313 37.9523 17.6106 37.9523C19.2704 37.9523 20.6727 40.6061 20.6727 43.7482C20.6727 46.8904 19.2696 49.5442 17.6106 49.5442C17.466 49.5442 17.3236 49.524 17.1836 49.4851C15.7168 49.0783 14.5486 46.6167 14.5486 43.7482C14.5486 40.7562 15.8202 38.2074 17.3742 37.9702Z" fill="#3F4254"/>
<path d="M33.8076 23.2977H29.6123L28.0374 19.3606H29.8706L33.8076 23.2977Z" fill="#49D3CC"/>
<path d="M20.6727 30.625C20.6727 31.6836 20.5132 32.6861 20.2387 33.551C19.6989 35.2535 18.7111 36.421 17.6106 36.421C17.5398 36.421 17.4698 36.4163 17.3998 36.4062C15.8342 36.1939 14.5485 33.6334 14.5485 30.625C14.5485 27.4953 15.9392 24.8509 17.5904 24.8299C17.5974 24.8291 17.6036 24.8291 17.6106 24.8291C17.6829 24.8291 17.7553 24.8345 17.8268 24.8447C17.8268 24.8447 17.8268 24.8447 17.8276 24.8447C19.3909 25.0632 20.6727 27.6205 20.6727 30.625Z" fill="#9FD5B5"/>
<path d="M20.6727 43.7483C20.6727 44.6358 20.5607 45.4843 20.3631 46.245C19.8599 48.1777 18.8014 49.5443 17.6106 49.5443C17.4659 49.5443 17.3236 49.524 17.1836 49.4851C15.7167 49.0784 14.5485 46.6167 14.5485 43.7483C14.5485 40.7562 15.8202 38.2075 17.3742 37.9703C17.4224 37.9633 17.4706 37.9578 17.5188 37.9555C17.5492 37.9532 17.5795 37.9524 17.6106 37.9524C19.2704 37.9524 20.6727 40.6061 20.6727 43.7483Z" fill="#FEB404"/>
<path d="M50.0941 45.2145C50.0233 45.188 49.9487 45.1732 49.8732 45.1694H38.937C38.7333 45.1694 38.538 45.2495 38.3941 45.3934C38.2495 45.5365 38.1686 45.7317 38.1686 45.9355C38.1686 45.9899 38.174 46.0436 38.1857 46.0957C38.216 46.2396 38.2876 46.3726 38.3941 46.4783C38.538 46.6215 38.7333 46.7023 38.937 46.7016H49.755C49.2129 48.3878 48.2329 49.5451 47.1394 49.5451V49.5443C47.0453 49.5459 46.9527 49.5645 46.8664 49.5995C46.7793 49.5645 46.6867 49.5459 46.5926 49.5443H20.4464C21.0981 48.702 21.5679 47.7344 21.8269 46.7016H31.2814C31.6532 46.7 31.9636 46.4325 32.0304 46.0801C32.0398 46.0335 32.0444 45.9852 32.0444 45.9355C32.0444 45.5139 31.703 45.1717 31.2814 45.1701H22.1193C22.1753 44.698 22.2041 44.2236 22.2041 43.7484C22.2041 43.2732 22.1753 42.7987 22.1193 42.3266H26.9073C27.3288 42.3251 27.6695 41.9828 27.6695 41.5613C27.6695 41.139 27.3288 40.7967 26.9073 40.7952H21.8269C21.5671 39.7623 21.0973 38.7948 20.4464 37.9517H46.5926C46.6859 37.9509 46.7785 37.9322 46.8656 37.8972C46.9527 37.9322 47.0453 37.9509 47.1394 37.9517C48.2329 37.9517 49.2129 39.109 49.755 40.7952H44.4047C43.9832 40.7967 43.6425 41.139 43.6425 41.5613C43.6425 41.9828 43.9832 42.3251 44.4047 42.3266H49.8732C49.9487 42.3227 50.0233 42.3079 50.0941 42.2823C50.2372 43.2545 50.2372 44.2423 50.0941 45.2145Z" fill="#9FD5B5"/>
<path d="M50.0941 32.0904C50.0233 32.0648 49.9487 32.05 49.8732 32.0461H38.937C38.7332 32.0453 38.538 32.1254 38.3941 32.2693C38.265 32.3977 38.1872 32.5664 38.1717 32.7461C38.1694 32.7679 38.1686 32.7904 38.1686 32.8122C38.1686 33.0152 38.2495 33.2112 38.3941 33.3543C38.538 33.4982 38.7332 33.5783 38.937 33.5775H49.755C49.2129 35.2637 48.2337 36.4211 47.1394 36.4211C47.0453 36.4218 46.9527 36.4405 46.8656 36.4763C46.7793 36.4405 46.6859 36.4218 46.5926 36.4211H20.4463C21.0973 35.5787 21.5679 34.6104 21.8269 33.5775H31.2814C31.703 33.576 32.0444 33.2338 32.0444 32.8122C32.0444 32.7842 32.0429 32.757 32.0398 32.7305C31.9993 32.3471 31.675 32.0477 31.2814 32.0461H22.1193C22.1753 31.574 22.2041 31.0996 22.2041 30.6243C22.2041 30.1491 22.1753 29.6747 22.1193 29.2034H26.9065C27.328 29.2018 27.6695 28.8588 27.6695 28.4373C27.6695 28.0157 27.328 27.6735 26.9065 27.6712H21.8261C21.5671 26.6391 21.0973 25.6707 20.4456 24.8284H46.5918C46.6859 24.8269 46.7785 24.8082 46.8656 24.7732C46.9527 24.8082 47.0452 24.8269 47.1386 24.8284C48.2329 24.8284 49.2121 25.985 49.755 27.6712V27.6719H44.4055V27.6712C43.9832 27.6735 43.6425 28.0157 43.6425 28.4373C43.6425 28.8588 43.9832 29.2018 44.4055 29.2034H49.874C49.9494 29.1995 50.0233 29.1847 50.0941 29.159C50.2372 30.1305 50.2372 31.1182 50.0941 32.0904Z" fill="#FFDF00"/>
<path d="M43.7857 13.7824C43.7219 13.4907 43.494 13.2628 43.2023 13.199C43.0374 13.1625 39.1377 12.3334 37.1186 14.354C35.0988 16.3747 35.9263 20.2736 35.9629 20.4385C35.9947 20.5847 36.0679 20.7139 36.169 20.815C36.2701 20.9169 36.4007 20.9892 36.5462 21.0218C37.2143 21.1548 37.894 21.2217 38.5754 21.2202C40.0516 21.3112 41.5052 20.8259 42.6307 19.8661C44.6505 17.8462 43.8222 13.9473 43.7857 13.7824ZM37.3729 19.611C37.2221 18.4762 37.1925 16.4462 38.2013 15.4367C39.2093 14.4279 41.2408 14.4575 42.3763 14.6099C42.5303 15.7416 42.5614 17.7692 41.5472 18.7827C40.5392 19.7914 38.51 19.7626 37.3729 19.611Z" fill="#3F4254"/>
<path d="M41.5473 18.7828C41.331 18.999 41.0681 19.1678 40.7773 19.2969C39.7102 19.7737 38.2666 19.7301 37.373 19.6111C37.2306 18.5409 37.1964 16.6743 38.0395 15.6189C38.0901 15.5551 38.1437 15.4944 38.2013 15.4369C39.2093 14.4281 41.2408 14.4576 42.3764 14.6101C42.5304 15.7417 42.5615 17.7694 41.5473 18.7828Z" fill="#008285"/>
<path d="M21.8261 27.6711C21.5671 26.639 21.0973 25.6707 20.4456 24.8284H24.1096C24.7676 25.603 25.2864 26.5745 25.6146 27.6711H21.8261Z" fill="#FEB404"/>
<path d="M22.1193 29.2034H25.9327C25.9809 29.593 26.0058 29.9928 26.0058 30.4004C26.0058 30.9658 25.9576 31.5165 25.8674 32.0461H22.1193C22.1753 31.574 22.2041 31.0996 22.2041 30.6244C22.2041 30.1491 22.1753 29.6747 22.1193 29.2034Z" fill="#FEB404"/>
<path d="M49.755 33.5775C49.2129 35.2637 48.2337 36.421 47.1394 36.421C47.0453 36.4218 46.9527 36.4404 46.8656 36.4762C46.7793 36.4404 46.6859 36.4218 46.5926 36.421H20.4464C21.0973 35.5787 21.5679 34.6103 21.8269 33.5775H31.2814C31.703 33.5759 32.0444 33.2337 32.0444 32.8121C32.0444 32.7841 32.0429 32.7569 32.0398 32.7305C33.9515 32.7312 36.0678 32.7375 38.1717 32.746C38.1694 32.7678 38.1686 32.7904 38.1686 32.8121C38.1686 33.0151 38.2495 33.2111 38.3941 33.3542C38.538 33.4981 38.7333 33.5782 38.937 33.5775H49.755Z" fill="#FEB404"/>
<path d="M21.8269 40.7952C21.5671 39.7623 21.0973 38.7948 20.4464 37.9517H23.5699C24.2745 38.7092 24.8392 39.6822 25.2032 40.7952H21.8269Z" fill="#49D3CC"/>
<path d="M22.1193 42.3267H25.5617C25.6302 42.7871 25.6652 43.2623 25.6652 43.7484C25.6652 44.2345 25.6294 44.7097 25.5625 45.1702H22.1193C22.1753 44.6981 22.2041 44.2236 22.2041 43.7484C22.2041 43.2732 22.1753 42.7988 22.1193 42.3267Z" fill="#49D3CC"/>
<path d="M49.755 46.7015C49.2129 48.3877 48.2329 49.545 47.1394 49.545V49.5443C47.0453 49.5458 46.9527 49.5645 46.8664 49.5995C46.7793 49.5645 46.6867 49.5458 46.5926 49.5443H20.4464C21.0981 48.7019 21.5679 47.7344 21.8269 46.7015H31.2814C31.6532 46.7 31.9636 46.4324 32.0304 46.0801C33.9624 46.0809 36.0865 46.0871 38.1857 46.0956C38.216 46.2395 38.2876 46.3725 38.3941 46.4783C38.538 46.6214 38.7333 46.7023 38.937 46.7015H49.755Z" fill="#49D3CC"/>
<path d="M20.6727 30.6251C20.6727 31.6836 20.5133 32.6862 20.2387 33.5511C19.8529 33.8606 19.4197 34.0348 18.9608 34.0348C17.3516 34.0348 16.0481 31.8936 16.0481 29.2523C16.0481 27.2714 16.7815 25.5712 17.8269 24.8447C17.8269 24.8447 17.8269 24.8447 17.8276 24.8447C19.3909 25.0633 20.6727 27.6206 20.6727 30.6251Z" fill="#FFDF00"/>
<path d="M20.6727 43.7483C20.6727 44.6358 20.5607 45.4843 20.3631 46.245C20.0084 46.497 19.618 46.637 19.2066 46.637C17.5981 46.637 16.2938 44.4958 16.2938 41.8537C16.2938 40.2453 16.7776 38.8227 17.5188 37.9555C17.5491 37.9532 17.5795 37.9524 17.6106 37.9524C19.2703 37.9524 20.6727 40.6061 20.6727 43.7483Z" fill="#FFDF00"/>
<path d="M33.8076 23.2977H32.1323L29.3813 19.3606H29.8706L33.8076 23.2977Z" fill="#FEB404"/>
<path d="M41.5472 18.7828C41.331 18.999 41.0681 19.1678 40.7772 19.2969C39.0374 18.9384 38.3273 17.1511 38.0395 15.6189C38.09 15.5551 38.1437 15.4944 38.2013 15.4369C39.2093 14.4281 41.2408 14.4576 42.3763 14.6101C42.5303 15.7417 42.5614 17.7694 41.5472 18.7828Z" fill="#49D3CC"/>
</g>
<defs>
<clipPath id="clip0_0_1">
<rect width="38.75" height="38.0765" fill="white" transform="translate(13 13)"/>
</clipPath>
</defs>
</svg>
