<svg width="64" height="64" viewBox="0 0 64 64" fill="none" xmlns="http://www.w3.org/2000/svg">
<circle cx="32" cy="32" r="32" fill="#ECFFFF"/>
<g clip-path="url(#clip0_0_1)">
<path d="M41.761 38.959H43.0143C43.5407 38.959 44.0453 38.75 44.4173 38.378C44.7893 38.006 44.9984 37.5014 44.9991 36.9758C44.9999 36.1023 45.347 35.2647 45.9646 34.647C46.5823 34.0293 47.4199 33.6823 48.2934 33.6807H50.5598L50.5606 21.7701H50.2369C49.875 21.7701 49.5818 21.4769 49.5818 21.1158C49.5818 21.1018 49.5826 21.0877 49.5834 21.0745H48.7013C48.6069 21.8302 48.3737 22.5734 48.0025 23.2652C47.774 23.677 47.4979 24.0615 47.1821 24.4109L42.9558 29.2462C42.9472 29.2563 42.9394 29.261 42.9277 29.2727C42.916 29.2836 42.9067 29.2969 42.8942 29.3078C42.8895 29.3117 42.8833 29.3133 42.8786 29.3172C42.8256 29.3616 42.7655 29.3967 42.7016 29.4225C42.6899 29.4271 42.6789 29.4295 42.6672 29.4334C42.6017 29.456 42.5331 29.4685 42.4637 29.47C42.3943 29.4685 42.3257 29.456 42.2601 29.4334C42.2492 29.4295 42.2375 29.4271 42.2258 29.4225C42.1619 29.3967 42.1018 29.3616 42.0488 29.3172C42.0441 29.3133 42.0379 29.3117 42.0332 29.3078C42.0207 29.2969 42.009 29.2821 42.0004 29.2727C41.9911 29.2634 41.9802 29.2563 41.9708 29.2462L37.7453 24.4109C37.4287 24.0615 37.1518 23.677 36.9225 23.2652C36.5521 22.5758 36.3189 21.8349 36.2237 21.0815C36.2237 21.0791 36.223 21.0768 36.223 21.0745H35.3464V21.0815C35.3471 21.0924 35.3479 21.1033 35.3479 21.115C35.3479 21.4769 35.0547 21.7701 34.6928 21.7701H14.3102V22.9283H26.1405C27.014 22.9291 27.8508 23.2761 28.4692 23.8938C29.0861 24.5115 29.434 25.3491 29.4348 26.2226C29.434 27.096 29.0869 27.9336 28.4692 28.5513C27.8516 29.169 27.014 29.5161 26.1405 29.5161C25.7786 29.5161 25.4854 29.2228 25.4854 28.8609C25.4854 28.4991 25.7786 28.2058 26.1405 28.2058C26.6669 28.2058 27.1707 27.9968 27.5427 27.6248C27.9155 27.2528 28.1245 26.7482 28.1245 26.2226C28.1238 25.6961 27.9147 25.1923 27.5427 24.8203C27.1707 24.4483 26.6669 24.2385 26.1405 24.2385H14.3102V44.0377H27.2635C27.8937 44.0369 28.4864 43.7375 28.86 43.2297C29.2343 42.722 29.3451 42.0677 29.1595 41.4656C29.1228 41.3603 29.115 41.2488 29.1345 41.1404V41.1396C29.1454 41.0772 29.1657 41.0164 29.1953 40.9587C29.2749 40.8011 29.4145 40.6826 29.5822 40.6296C29.7506 40.5773 29.9331 40.5937 30.0883 40.6771C30.2443 40.7606 30.3597 40.9033 30.4081 41.0725C30.5484 41.5233 30.5882 41.992 30.5321 42.4483C30.465 43.0044 30.256 43.5417 29.9152 44.0042C29.2952 44.848 28.3109 45.3472 27.2635 45.3487H14.3102V48.8559H50.5598V45.5476H41.761C40.8875 45.5476 40.0499 45.2005 39.4322 44.5829C38.8146 43.9652 38.4675 43.1276 38.4667 42.2533C38.4675 41.3798 38.8153 40.543 39.433 39.9253C40.0507 39.3076 40.8883 38.9606 41.761 38.959ZM19.8514 34.066C19.6572 34.3709 19.2524 34.4614 18.9467 34.268C18.1426 33.7524 17.603 32.9125 17.4665 31.9673C17.33 31.022 17.6115 30.0643 18.237 29.3421C18.8625 28.6207 19.7711 28.2066 20.7264 28.2074H23.9583C24.3194 28.2074 24.6134 28.5014 24.6134 28.8625C24.6134 29.2244 24.3194 29.5176 23.9583 29.5176H20.7264V29.5192C20.2 29.5192 19.6962 29.7282 19.3242 30.1002C18.9522 30.4714 18.7432 30.976 18.7432 31.5024C18.74 32.1739 19.0816 32.801 19.6494 33.1613C19.9551 33.3555 20.0456 33.7602 19.8514 34.066ZM30.5484 37.8968C30.3566 38.2423 30.125 38.5644 29.8598 38.8576V38.8584L28.4841 40.4315L26.3893 42.8281C26.3807 42.8382 26.3721 42.8437 26.3604 42.8546C26.3495 42.8655 26.3401 42.8788 26.3277 42.8897C26.3222 42.8944 26.3167 42.8952 26.3121 42.8991C26.259 42.9435 26.199 42.9786 26.135 43.0044C26.1233 43.009 26.1124 43.0121 26.0999 43.016C26.0352 43.0387 25.9666 43.0504 25.8972 43.0519C25.8285 43.0504 25.7599 43.0387 25.6944 43.016V43.0153C25.6827 43.0114 25.671 43.009 25.6593 43.0044C25.5961 42.9786 25.5368 42.9427 25.4846 42.8991C25.4799 42.8952 25.4737 42.8936 25.469 42.8897C25.4565 42.8788 25.4448 42.864 25.4355 42.8546C25.4269 42.8453 25.416 42.8382 25.4066 42.8281L21.9368 38.8576C21.6701 38.5652 21.4377 38.2423 21.2443 37.8968C20.3615 36.259 20.4051 34.2789 21.3589 32.6816C21.9782 31.6436 22.9226 30.8676 24.0184 30.4519C24.6095 30.2265 25.2444 30.1064 25.8964 30.1064C27.7564 30.1064 29.48 31.0844 30.4338 32.6816C31.3876 34.2789 31.4305 36.259 30.5484 37.8968ZM39.8027 29.3055C40.0164 29.0138 40.4258 28.9498 40.7183 29.1628C40.8587 29.2657 40.9523 29.4193 40.9788 29.5909C41.0061 29.7625 40.964 29.938 40.861 30.0784C40.613 30.4161 40.4796 30.8239 40.4804 31.2427C40.4804 31.9517 40.8587 32.6068 41.4732 32.9616C42.087 33.3165 42.8435 33.3165 43.4581 32.9616C44.0718 32.6068 44.4501 31.9517 44.4501 31.2427C44.4509 30.8239 44.3175 30.4161 44.0703 30.0784C43.8566 29.7859 43.9205 29.3765 44.213 29.1628C44.5055 28.9498 44.9149 29.0138 45.1278 29.3055C45.5404 29.8678 45.7619 30.5463 45.7603 31.2427C45.7588 32.1162 45.4109 32.9538 44.7932 33.5707C44.1748 34.1884 43.3372 34.5355 42.4629 34.5355C41.6487 34.5362 40.8633 34.2352 40.2582 33.6901C39.653 33.1457 39.2716 32.3954 39.1881 31.5859C39.1039 30.7756 39.3231 29.9637 39.8027 29.3055Z" fill="#008285"/>
<path opacity="0.4" d="M39.433 39.9253C38.8153 40.543 38.4675 41.3798 38.4667 42.2533C38.4675 43.1276 38.8145 43.9652 39.4322 44.5829C40.0499 45.2005 40.8875 45.5476 41.761 45.5476H50.5598V45.6076H49.4445C47.3357 46.4281 45.0428 46.8797 42.6446 46.8797C39.4392 46.8797 36.4226 46.0764 33.7834 44.6601C33.0534 44.2693 32.3523 43.8303 31.6847 43.3491C31.2885 43.0636 30.9041 42.7634 30.532 42.4483C30.0438 42.0365 29.5774 41.5998 29.1345 41.1404V41.1396C28.9114 40.9088 28.6946 40.6732 28.484 40.4315C26.096 37.6886 24.491 34.2461 24.0184 30.4519C23.9794 30.1431 23.9489 29.8311 23.9255 29.5176C23.8936 29.0848 23.8756 28.648 23.8741 28.2074C23.8733 28.1746 23.8733 28.1411 23.8733 28.1083C23.8733 26.7817 24.0113 25.4871 24.2734 24.2385C24.3217 24.0069 24.374 23.7776 24.4309 23.5499C24.4832 23.3408 24.5385 23.1342 24.5978 22.9283C24.6641 22.6966 24.7351 22.4674 24.8099 22.2396C24.8614 22.0821 24.9145 21.9253 24.9714 21.7701C25.0533 21.5385 25.1406 21.3084 25.2334 21.0815H36.2237C36.3189 21.8349 36.5521 22.5758 36.9225 23.2652C37.1518 23.677 37.4287 24.0615 37.7453 24.4109L41.9708 29.2462C41.9801 29.2563 41.991 29.2634 42.0004 29.2727C42.009 29.2821 42.0207 29.2969 42.0332 29.3078C42.0378 29.3117 42.0441 29.3133 42.0488 29.3172C42.1018 29.3616 42.1618 29.3967 42.2258 29.4225C42.2375 29.4271 42.2492 29.4295 42.2601 29.4334C42.3256 29.456 42.3943 29.4685 42.4637 29.47C42.5331 29.4685 42.6017 29.456 42.6672 29.4334C42.6789 29.4295 42.6898 29.4271 42.7015 29.4225C42.7655 29.3967 42.8255 29.3616 42.8786 29.3172C42.8832 29.3133 42.8895 29.3117 42.8942 29.3078C42.9066 29.2969 42.916 29.2836 42.9277 29.2727C42.9394 29.261 42.9472 29.2563 42.9558 29.2462L47.182 24.4109C47.4979 24.0615 47.774 23.677 48.0025 23.2652C48.3737 22.5734 48.6069 21.8302 48.7013 21.0745H49.5833C49.5826 21.0877 49.5818 21.1018 49.5818 21.1158C49.5818 21.4769 49.875 21.7701 50.2369 21.7701H50.5605L50.5598 33.6807H48.2934C47.4199 33.6823 46.5823 34.0293 45.9646 34.647C45.3469 35.2647 44.9999 36.1023 44.9991 36.9758C44.9983 37.5014 44.7893 38.006 44.4173 38.378C44.0453 38.75 43.5407 38.959 43.0143 38.959H41.761C40.8883 38.9606 40.0507 39.3076 39.433 39.9253Z" fill="white"/>
<path d="M42.4652 14.9624C39.5289 14.9624 37.1479 17.3426 37.1479 20.2797C37.1479 20.5496 37.1682 20.8155 37.2072 21.0744C37.4622 22.7746 38.5221 24.212 39.9867 24.9848L38.7319 23.5491C38.0931 22.8565 37.6813 21.9932 37.5394 21.0744C37.502 20.8374 37.4832 20.5956 37.4832 20.353C37.4832 20.3281 37.484 20.3039 37.484 20.2797C37.4848 18.9594 38.0105 17.6928 38.944 16.7593C39.8783 15.8257 41.1441 15.3001 42.4644 15.2985C43.7559 15.2751 45.0046 15.7595 45.9428 16.6478C46.8802 17.5353 47.4324 18.7558 47.4799 20.0465C47.4924 20.3936 47.469 20.7375 47.4098 21.0744C47.2507 21.9916 46.8342 22.851 46.1978 23.5491L44.9422 24.9856C46.4084 24.2127 47.4682 22.7754 47.7233 21.0744C47.7623 20.8155 47.7825 20.5496 47.7825 20.2797C47.7825 17.3426 45.4023 14.9624 42.4652 14.9624ZM45.857 20.2797C45.857 19.3797 45.4998 18.5172 44.8634 17.88C44.227 17.2444 43.3637 16.8864 42.4644 16.8864C41.5644 16.8864 40.7011 17.2444 40.0647 17.88C39.4283 18.5164 39.0711 19.3797 39.0711 20.2797C39.0719 20.5496 39.1039 20.8163 39.1663 21.0744C39.3121 21.6765 39.6209 22.2326 40.0663 22.6779C40.7019 23.3143 41.5644 23.6715 42.4644 23.6723C43.3637 23.6723 44.227 23.3151 44.8634 22.6787C45.3087 22.2341 45.6176 21.6773 45.7626 21.0744C45.825 20.8163 45.857 20.5496 45.857 20.2797ZM43.9369 21.753C43.5462 22.1437 43.0158 22.3628 42.4637 22.3628C41.9115 22.3628 41.3819 22.1437 40.9912 21.753C40.7955 21.5572 40.6426 21.3256 40.5389 21.0744C40.4359 20.8249 40.3813 20.555 40.3813 20.2797C40.3821 19.7276 40.6013 19.198 40.992 18.8081C41.3827 18.4173 41.9115 18.1982 42.4644 18.1974C43.0166 18.1974 43.5462 18.4166 43.9369 18.8073C44.3276 19.198 44.5468 19.7276 44.5468 20.2805C44.5468 20.5558 44.4929 20.8249 44.39 21.0744C44.2863 21.3256 44.1334 21.5564 43.9369 21.753Z" fill="#008285"/>
<path d="M19.3242 30.1001C18.9522 30.4713 18.7432 30.9759 18.7432 31.5023C18.7401 32.1738 19.0817 32.8009 19.6494 33.1612C19.9551 33.3554 20.0456 33.7601 19.8514 34.0659C19.6572 34.3708 19.2525 34.4613 18.9467 34.2678C18.1427 33.7523 17.603 32.9124 17.4665 31.9672C17.33 31.0219 17.6115 30.0642 18.237 29.342C18.8625 28.6206 19.7711 28.2065 20.7265 28.2073H23.9583C24.3194 28.2073 24.6135 28.5013 24.6135 28.8624C24.6135 29.2243 24.3194 29.5175 23.9583 29.5175H20.7265V29.5191C20.2 29.5191 19.6962 29.7281 19.3242 30.1001Z" fill="#008285"/>
<path d="M27.9529 33.3359C27.4086 32.7916 26.67 32.4858 25.9003 32.4858C25.1297 32.4858 24.3919 32.7916 23.8468 33.3359C23.3024 33.8803 22.9967 34.6189 22.9967 35.3886C22.9983 36.1584 23.304 36.8962 23.8484 37.4405C24.3919 37.9849 25.1305 38.2906 25.9003 38.2922V38.2914C26.67 38.2914 27.4086 37.9857 27.9529 37.4413C28.4973 36.8969 28.803 36.1584 28.803 35.3886C28.803 34.6189 28.4973 33.8803 27.9529 33.3359ZM27.0264 36.5148C26.7269 36.8135 26.3222 36.9812 25.9003 36.9812C25.4776 36.9812 25.072 36.8135 24.7733 36.5148C24.4746 36.2161 24.3069 35.8113 24.3069 35.3886C24.3077 34.9667 24.4754 34.5619 24.7741 34.2632C25.0728 33.9645 25.4776 33.7961 25.9003 33.7961C26.3222 33.7961 26.7269 33.9637 27.0264 34.2624C27.3251 34.5611 27.4928 34.9659 27.4928 35.3886C27.4928 35.8113 27.3251 36.2161 27.0264 36.5148Z" fill="#008285"/>
<path d="M30.4338 32.6817C29.48 31.0844 27.7564 30.1064 25.8964 30.1064C24.0363 30.1064 22.3127 31.0837 21.3589 32.6817C20.4051 34.2789 20.3614 36.259 21.2443 37.8968C21.4377 38.2423 21.6701 38.5652 21.9368 38.8577L25.4066 42.8281C25.4159 42.8382 25.4269 42.8453 25.4354 42.8546C25.4448 42.864 25.4565 42.8788 25.469 42.8897C25.4736 42.8936 25.4799 42.8952 25.4846 42.8991C25.5368 42.9427 25.5961 42.9786 25.6593 43.0044C25.671 43.009 25.6827 43.0114 25.6944 43.0153V43.0161C25.7599 43.0387 25.8285 43.0504 25.8971 43.0519C25.9665 43.0504 26.0352 43.0387 26.0999 43.0161C26.1124 43.0122 26.1233 43.009 26.135 43.0044C26.199 42.9786 26.259 42.9435 26.312 42.8991C26.3167 42.8952 26.3222 42.8944 26.3276 42.8897C26.3401 42.8788 26.3495 42.8655 26.3604 42.8546C26.3721 42.8437 26.3807 42.8382 26.3892 42.8281L29.8598 38.8584V38.8577C30.1249 38.5644 30.3566 38.2423 30.5484 37.8968C31.4305 36.259 31.3876 34.2789 30.4338 32.6817ZM28.8771 37.9959L25.9003 41.4025L22.9234 37.9959C22.2441 37.23 21.8877 36.2302 21.9298 35.207C21.9727 34.1837 22.4102 33.2174 23.1503 32.5101C23.8905 31.8035 24.877 31.4104 25.9003 31.4151C26.9305 31.3956 27.9272 31.7817 28.6759 32.4898C29.4246 33.198 29.8652 34.172 29.9027 35.2015C29.9401 36.231 29.572 37.2347 28.8771 37.9959Z" fill="#008285"/>
<path d="M40.861 30.0782C40.613 30.4159 40.4796 30.8238 40.4804 31.2426C40.4804 31.9515 40.8587 32.6066 41.4732 32.9615C42.087 33.3163 42.8435 33.3163 43.4581 32.9615C44.0718 32.6066 44.4501 31.9515 44.4501 31.2426C44.4509 30.8238 44.3175 30.4159 44.0703 30.0782C43.8566 29.7857 43.9205 29.3763 44.213 29.1626C44.5055 28.9497 44.9149 29.0137 45.1278 29.3053C45.5404 29.8676 45.7619 30.5461 45.7603 31.2426C45.7587 32.1161 45.4109 32.9537 44.7932 33.5706C44.1748 34.1883 43.3372 34.5353 42.4629 34.5353C41.6487 34.5361 40.8633 34.2351 40.2581 33.6899C39.6529 33.1455 39.2716 32.3953 39.1881 31.5857C39.1039 30.7754 39.323 29.9636 39.8027 29.3053C40.0164 29.0137 40.4258 28.9497 40.7183 29.1626C40.8587 29.2656 40.9522 29.4192 40.9788 29.5908C41.0061 29.7624 40.9639 29.9378 40.861 30.0782Z" fill="#008285"/>
<path d="M40.0663 22.6779C39.6209 22.2326 39.3121 21.6765 39.1663 21.0745H40.5389C40.6426 21.3256 40.7955 21.5572 40.9912 21.753C41.3819 22.1437 41.9115 22.3629 42.4637 22.3629C43.0158 22.3629 43.5462 22.1437 43.9369 21.753C44.1334 21.5564 44.2863 21.3256 44.39 21.0745H45.7626C45.6176 21.6773 45.3087 22.2342 44.8634 22.6787C44.227 23.3151 43.3637 23.6723 42.4644 23.6723C41.5644 23.6715 40.7019 23.3143 40.0663 22.6779Z" fill="#008285"/>
<path d="M48.7013 21.0745C48.6069 21.8302 48.3737 22.5734 48.0025 23.2652C47.774 23.677 47.4979 24.0615 47.1821 24.4109L42.9558 29.2462C42.9472 29.2563 42.9394 29.261 42.9277 29.2727C42.916 29.2836 42.9067 29.2969 42.8942 29.3078C42.8895 29.3117 42.8833 29.3133 42.8786 29.3172C42.8256 29.3616 42.7655 29.3967 42.7016 29.4225C42.6899 29.4271 42.6789 29.4295 42.6672 29.4334C42.6017 29.456 42.5331 29.4685 42.4637 29.47C42.3943 29.4685 42.3256 29.456 42.2601 29.4334C42.2492 29.4295 42.2375 29.4271 42.2258 29.4225C42.1619 29.3967 42.1018 29.3616 42.0488 29.3172C42.0441 29.3133 42.0379 29.3117 42.0332 29.3078C42.0207 29.2969 42.009 29.2821 42.0004 29.2727C41.9911 29.2634 41.9802 29.2563 41.9708 29.2462L37.7453 24.4109C37.4287 24.0615 37.1518 23.677 36.9225 23.2652C36.5513 22.5734 36.3173 21.8302 36.223 21.0745H37.5394C37.6814 21.9932 38.0932 22.8565 38.7319 23.5491L39.9867 24.9849L42.4645 27.8198L44.9422 24.9856L46.1978 23.5491C46.8342 22.8511 47.2507 21.9916 47.4098 21.0745H48.7013Z" fill="#008285"/>
<path d="M49.5834 21.0745C49.5826 21.0877 49.5818 21.1018 49.5818 21.1158C49.5818 21.4769 49.875 21.7701 50.2369 21.7701H50.5606L50.5598 33.6807H48.2934C47.4199 33.6823 46.5823 34.0293 45.9646 34.647C45.347 35.2647 44.9999 36.1023 44.9991 36.9758C44.9984 37.5014 44.7893 38.006 44.4173 38.378C44.0453 38.75 43.5407 38.959 43.0143 38.959H41.761C40.8883 38.9606 40.0507 39.3076 39.433 39.9253C38.8153 40.543 38.4675 41.3798 38.4667 42.2533C38.4675 43.1276 38.8146 43.9652 39.4322 44.5829C40.0499 45.2005 40.8875 45.5476 41.761 45.5476H50.5598V48.8559H14.3102V45.3487H27.2635C28.3109 45.3472 29.2952 44.848 29.9152 44.0042C30.536 43.1611 30.7192 42.0724 30.4081 41.0725C30.3597 40.9033 30.2443 40.7606 30.0883 40.6771C29.9331 40.5937 29.7506 40.5773 29.5822 40.6296C29.4145 40.6826 29.2749 40.8011 29.1953 40.9587C29.115 41.1162 29.1017 41.2987 29.1595 41.4656C29.3451 42.0677 29.2343 42.722 28.86 43.2297C28.4864 43.7375 27.8937 44.0369 27.2635 44.0377H14.3102V24.2385H26.1405C26.6669 24.2385 27.1707 24.4483 27.5427 24.8203C27.9147 25.1923 28.1238 25.6961 28.1245 26.2226C28.1245 26.7482 27.9155 27.2528 27.5427 27.6248C27.1707 27.9968 26.6669 28.2058 26.1405 28.2058C25.7786 28.2058 25.4854 28.4991 25.4854 28.8609C25.4854 29.2228 25.7786 29.5161 26.1405 29.5161C27.014 29.5161 27.8516 29.169 28.4692 28.5513C29.0869 27.9336 29.434 27.096 29.4348 26.2226C29.434 25.3491 29.0861 24.5115 28.4692 23.8938C27.8508 23.2761 27.014 22.9291 26.1405 22.9283H14.3102V21.7701H34.6928C35.0547 21.7701 35.3479 21.4769 35.3479 21.115C35.3479 21.101 35.3471 21.0877 35.3464 21.0745H13.8821V49.4939H51.2009V21.0745H49.5834ZM50.5598 44.2381H41.7618C41.2354 44.2381 40.7308 44.0291 40.3588 43.6563C39.986 43.2843 39.777 42.7797 39.777 42.2533C39.7777 41.7277 39.9867 41.2231 40.3588 40.8511C40.7308 40.479 41.2354 40.27 41.7618 40.2693H43.0151C43.8886 40.2693 44.7262 39.9222 45.3438 39.3045C45.9615 38.6868 46.3086 37.8492 46.3094 36.9758C46.3101 36.4493 46.5192 35.9447 46.8912 35.5727C47.2624 35.2007 47.767 34.9917 48.2934 34.9901H50.5598V44.2381Z" fill="#008285"/>
<path d="M50.5598 34.9902V44.2382H41.7618C41.2353 44.2382 40.7307 44.0292 40.3587 43.6564C40.1442 43.4427 39.9844 43.1854 39.8869 42.9046C39.8144 42.6972 39.7769 42.478 39.7769 42.2534C39.7777 41.7278 39.9867 41.2232 40.3587 40.8512C40.7307 40.4791 41.2353 40.2701 41.7618 40.2693H43.015C43.8885 40.2693 44.7261 39.9223 45.3438 39.3046C45.9615 38.6869 46.3085 37.8493 46.3093 36.9758C46.3101 36.4494 46.5191 35.9448 46.8911 35.5728C47.2624 35.2008 47.7669 34.9918 48.2934 34.9902H50.5598Z" fill="#9FD5B5"/>
<path opacity="0.4" d="M48.9025 35.5993V40.3481C48.9025 41.766 47.7529 42.9163 46.3343 42.9163H40.1045C40.1037 42.9163 40.1029 42.9163 40.1021 42.9163C39.968 42.9163 39.8541 42.818 39.8245 42.687C39.7925 42.5459 39.7769 42.4008 39.7769 42.2534C39.7777 41.7278 39.9867 41.2232 40.3587 40.8512C40.7307 40.4791 41.2353 40.2701 41.7618 40.2693H43.015C43.8885 40.2693 44.7261 39.9223 45.3438 39.3046C45.9615 38.6869 46.3085 37.8493 46.3093 36.9758C46.3101 36.4494 46.5191 35.9448 46.8911 35.5728C47.2624 35.2008 47.7669 34.9918 48.2934 34.9902C48.6295 34.9902 48.9025 35.2632 48.9025 35.5993Z" fill="white"/>
<path d="M44.8634 17.8801C44.227 17.2444 43.3636 16.8865 42.4644 16.8865C41.5644 16.8865 40.7011 17.2444 40.0647 17.8801C39.4283 18.5165 39.0711 19.3798 39.0711 20.2798C39.0719 20.5496 39.1039 20.8164 39.1663 21.0745C39.3121 21.6766 39.6209 22.2327 40.0663 22.678C40.7019 23.3144 41.5644 23.6716 42.4644 23.6723C43.3636 23.6723 44.227 23.3152 44.8634 22.6788C45.3087 22.2342 45.6175 21.6774 45.7626 21.0745C45.825 20.8164 45.857 20.5496 45.857 20.2798C45.857 19.3798 45.4998 18.5172 44.8634 17.8801ZM43.9369 21.753C43.5461 22.1438 43.0158 22.3629 42.4637 22.3629C41.9115 22.3629 41.3819 22.1438 40.9912 21.753C40.7955 21.5573 40.6426 21.3256 40.5389 21.0745C40.4359 20.8249 40.3813 20.5551 40.3813 20.2798C40.3821 19.7276 40.6013 19.1981 40.992 18.8081C41.3827 18.4174 41.9115 18.1983 42.4644 18.1975C43.0166 18.1975 43.5461 18.4166 43.9369 18.8074C44.3276 19.1981 44.5468 19.7276 44.5468 20.2806C44.5468 20.5559 44.4929 20.8249 44.39 21.0745C44.2863 21.3256 44.1334 21.5565 43.9369 21.753Z" fill="#3F4254"/>
<path d="M47.48 20.0464C47.4324 18.7557 46.8802 17.5352 45.9428 16.6476C45.0046 15.7593 43.756 15.275 42.4645 15.2984C41.8359 15.2992 41.219 15.4185 40.6458 15.6447C40.014 15.8927 39.4338 16.2702 38.944 16.7592C38.0105 17.6927 37.4848 18.9592 37.4841 20.2796C37.4841 20.3038 37.4833 20.328 37.4833 20.3529C37.4833 20.5955 37.502 20.8372 37.5394 21.0743C37.6814 21.993 38.0932 22.8564 38.7319 23.5489L39.9867 24.9847L42.4645 27.8196L43.508 26.6256L44.9422 24.9855L46.1978 23.5489C46.8342 22.8509 47.2507 21.9915 47.4098 21.0743C47.4691 20.7374 47.4925 20.3935 47.48 20.0464ZM45.7626 21.0743C45.6176 21.6772 45.3088 22.234 44.8634 22.6786C44.227 23.315 43.3637 23.6722 42.4645 23.6722C41.5645 23.6714 40.7019 23.3142 40.0663 22.6778C40.0281 22.6396 39.9906 22.5998 39.9548 22.56C39.7286 22.312 39.543 22.0344 39.4018 21.7357C39.3987 21.731 39.3964 21.7255 39.394 21.7201C39.2965 21.5134 39.2201 21.2974 39.1663 21.0743C39.1039 20.8162 39.0719 20.5495 39.0711 20.2796C39.0711 19.3796 39.4283 18.5163 40.0647 17.8799C40.7011 17.2443 41.5645 16.8863 42.4645 16.8863C43.3637 16.8863 44.227 17.2443 44.8634 17.8799C45.4998 18.517 45.857 19.3796 45.857 20.2796C45.857 20.5495 45.825 20.8162 45.7626 21.0743Z" fill="#FEB404"/>
<path d="M44.5468 20.2806C44.5468 20.5559 44.493 20.825 44.39 21.0745C44.2863 21.3257 44.1334 21.5565 43.9369 21.7531C43.5462 22.1438 43.0158 22.3629 42.4637 22.3629C41.9115 22.3629 41.382 22.1438 40.9912 21.7531C40.7955 21.5573 40.6426 21.3257 40.5389 21.0745C40.4359 20.825 40.3813 20.5551 40.3813 20.2798C40.3821 19.7277 40.6013 19.1981 40.992 18.8082C41.3827 18.4174 41.9115 18.1983 42.4644 18.1975C43.0166 18.1975 43.5462 18.4167 43.9369 18.8074C44.3276 19.1981 44.5468 19.7277 44.5468 20.2806Z" fill="#3F4254"/>
<path d="M45.1684 31.4142C45.1684 32.8601 43.997 34.0315 42.551 34.0315C41.1059 34.0315 39.9337 32.8601 39.9337 31.4142C39.9337 30.8503 40.1123 30.327 40.4165 29.8989C40.8914 29.2321 41.6705 28.7969 42.551 28.7969C43.8504 28.7969 44.9282 29.7437 45.1333 30.9845C45.1567 31.1241 45.1684 31.2676 45.1684 31.4142Z" fill="#9FD5B5"/>
<path opacity="0.4" d="M45.1333 30.9845C44.6583 31.6521 43.8792 32.0873 42.9987 32.0873C41.6986 32.0873 40.6208 31.1405 40.4164 29.8989C40.8914 29.2321 41.6705 28.7969 42.551 28.7969C43.8503 28.7969 44.9281 29.7437 45.1333 30.9845Z" fill="white"/>
<path d="M47.8605 17.0619C46.725 15.1628 44.6754 14 42.4621 14C40.2503 14 38.2007 15.1628 37.0644 17.0619C36.3321 18.2863 36.0498 19.701 36.2229 21.0744C36.3173 21.8302 36.5513 22.5734 36.9225 23.2652C37.1518 23.6769 37.4286 24.0614 37.7453 24.4108L41.9708 29.2462C41.9801 29.2563 41.991 29.2633 42.0004 29.2727C42.009 29.2821 42.0207 29.2969 42.0331 29.3078C42.0378 29.3117 42.0441 29.3133 42.0487 29.3172C42.1018 29.3616 42.1618 29.3967 42.2258 29.4224C42.2375 29.4271 42.2492 29.4295 42.2601 29.4334C42.3256 29.456 42.3942 29.4685 42.4636 29.47C42.5331 29.4685 42.6017 29.456 42.6672 29.4334C42.6789 29.4295 42.6898 29.4271 42.7015 29.4224C42.7655 29.3967 42.8255 29.3616 42.8786 29.3172C42.8832 29.3133 42.8895 29.3117 42.8942 29.3078C42.9066 29.2969 42.916 29.2836 42.9277 29.2727C42.9394 29.261 42.9472 29.2563 42.9558 29.2462L47.182 24.4108C47.4979 24.0614 47.774 23.6769 48.0025 23.2652C48.3737 22.5734 48.6069 21.8302 48.7013 21.0744C48.8752 19.701 48.5928 18.2863 47.8605 17.0619ZM42.4644 27.8198L39.9867 24.9848L38.7318 23.549C38.0931 22.8565 37.6813 21.9932 37.5394 21.0744C37.502 20.8373 37.4832 20.5956 37.4832 20.353C37.4832 20.3281 37.484 20.3039 37.484 20.2797C37.4848 18.9594 38.0104 17.6928 38.944 16.7593C39.8783 15.8257 41.1441 15.3001 42.4644 15.2985C43.7559 15.2751 45.0045 15.7594 45.9428 16.6477C46.8802 17.5353 47.4324 18.7558 47.4799 20.0465C47.4924 20.3936 47.469 20.7375 47.4097 21.0744C47.2506 21.9916 46.8342 22.851 46.1978 23.549L44.9422 24.9856L42.4644 27.8198Z" fill="#3F4254"/>
<path d="M45.7603 31.2426C45.7587 32.1161 45.4109 32.9537 44.7932 33.5706C44.1748 34.1883 43.3372 34.5353 42.4629 34.5353C41.6487 34.5361 40.8633 34.2351 40.2581 33.6899C39.6529 33.1455 39.2716 32.3953 39.1881 31.5857C39.1039 30.7754 39.323 29.9636 39.8027 29.3053C40.0164 29.0137 40.4258 28.9497 40.7183 29.1626C40.8587 29.2656 40.9522 29.4192 40.9788 29.5908C41.0061 29.7624 40.9639 29.9378 40.861 30.0782C40.613 30.4159 40.4796 30.8238 40.4804 31.2426C40.4804 31.9515 40.8587 32.6066 41.4732 32.9615C42.087 33.3163 42.8435 33.3163 43.4581 32.9615C44.0718 32.6066 44.4501 31.9515 44.4501 31.2426C44.4509 30.8238 44.3175 30.4159 44.0703 30.0782C43.8566 29.7857 43.9205 29.3763 44.213 29.1626C44.5055 28.9497 44.9149 29.0137 45.1278 29.3053C45.5404 29.8676 45.7619 30.5461 45.7603 31.2426Z" fill="#3F4254"/>
<path d="M24.9441 44.7748C20.1236 44.6227 13.3751 44.7834 13.3751 44.7834L13.8821 23.6724H26.5678C26.5678 23.6724 27.368 23.7043 28.0122 24.2432C28.4817 24.6348 28.8685 25.2953 28.803 26.4075C28.6478 29.0458 26.5164 28.8532 23.6245 28.7971C20.7327 28.7409 18.6519 28.0725 18.297 30.1065C17.9414 32.1405 18.9779 34.4841 20.6157 35.1899C22.2542 35.8957 29.37 39.8887 29.905 41.4025C29.9214 41.4485 29.937 41.4953 29.9502 41.5421C30.3956 43.0364 29.6172 44.923 24.9441 44.7748Z" fill="#49D3CC"/>
<path opacity="0.4" d="M29.9502 41.5421C29.3092 42.0545 28.1518 42.3953 26.2247 42.3345C24.9152 42.2931 23.4412 42.2783 22.0359 42.2783C18.8508 42.2768 16.2709 39.6945 16.2709 36.5094V25.0372C16.2709 24.563 16.6554 24.1777 17.1303 24.1777H27.6223C27.6223 24.1777 27.7829 24.184 28.0122 24.2432C28.4817 24.6348 28.8685 25.2953 28.803 26.4075C28.6478 29.0458 26.5164 28.8532 23.6245 28.7971C20.7327 28.7409 18.6519 28.0725 18.297 30.1065C17.9414 32.1405 18.9779 34.4841 20.6157 35.1899C22.2542 35.8957 29.37 39.8887 29.905 41.4025C29.9214 41.4485 29.937 41.4953 29.9502 41.5421Z" fill="white"/>
<path d="M51.2149 20.46H50.2369C49.8891 20.46 49.6044 20.7321 49.5833 21.0745C49.5826 21.0878 49.5818 21.1018 49.5818 21.1159C49.5818 21.4769 49.875 21.7702 50.2369 21.7702H50.5606L50.5598 33.6808H48.2934C47.4199 33.6823 46.5823 34.0294 45.9646 34.647C45.347 35.2647 44.9999 36.1023 44.9991 36.9758C44.9983 37.5015 44.7893 38.0061 44.4173 38.3781C44.0453 38.7501 43.5407 38.9591 43.0143 38.9591H41.761C40.8883 38.9606 40.0507 39.3077 39.433 39.9254C38.8153 40.5431 38.4675 41.3799 38.4667 42.2534C38.4675 43.1276 38.8145 43.9652 39.4322 44.5829C40.0499 45.2006 40.8875 45.5476 41.761 45.5476H50.5598V48.856H14.3102V45.3488H27.2635C28.3109 45.3472 29.2951 44.8481 29.9152 44.0042C30.536 43.1612 30.7192 42.0724 30.4081 41.0726C30.3597 40.9034 30.2443 40.7606 30.0883 40.6772C29.9331 40.5937 29.7506 40.5774 29.5821 40.6296C29.4145 40.6827 29.2749 40.8012 29.1953 40.9587C29.115 41.1163 29.1017 41.2988 29.1594 41.4657C29.3451 42.0678 29.2343 42.7221 28.86 43.2298C28.4864 43.7375 27.8937 44.037 27.2635 44.0378H14.3102V24.2386H26.1405C26.6669 24.2386 27.1707 24.4483 27.5427 24.8204C27.9147 25.1924 28.1237 25.6962 28.1245 26.2226C28.1245 26.7483 27.9155 27.2529 27.5427 27.6249C27.1707 27.9969 26.6669 28.2059 26.1405 28.2059C25.7786 28.2059 25.4853 28.4991 25.4853 28.861C25.4853 29.2229 25.7786 29.5161 26.1405 29.5161C27.0139 29.5161 27.8516 29.1691 28.4692 28.5514C29.0869 27.9337 29.434 27.0961 29.4347 26.2226C29.434 25.3491 29.0861 24.5115 28.4692 23.8938C27.8508 23.2762 27.0139 22.9291 26.1405 22.9283H14.3102V21.7702H34.6928C35.0547 21.7702 35.3479 21.4769 35.3479 21.1151C35.3479 21.101 35.3471 21.0878 35.3463 21.0745C35.3253 20.7314 35.0406 20.46 34.6928 20.46H13.6551C13.2932 20.46 13 20.7532 13 21.1151V49.5119C13 49.6928 13.0733 49.8566 13.1919 49.9751C13.3104 50.0937 13.4742 50.167 13.6551 50.167H51.2149C51.5768 50.167 51.87 49.8737 51.87 49.5119V21.1151C51.87 20.7532 51.5768 20.46 51.2149 20.46ZM41.7618 44.2382C41.2353 44.2382 40.7307 44.0292 40.3587 43.6564C39.9859 43.2844 39.7769 42.7798 39.7769 42.2534C39.7777 41.7277 39.9867 41.2231 40.3587 40.8511C40.7307 40.4791 41.2353 40.2701 41.7618 40.2693H43.0151C43.8885 40.2693 44.7262 39.9223 45.3438 39.3046C45.9615 38.6869 46.3086 37.8493 46.3093 36.9758C46.3101 36.4494 46.5191 35.9448 46.8911 35.5728C47.2624 35.2008 47.767 34.9918 48.2934 34.9902H50.5598V44.2382H41.7618Z" fill="#3F4254"/>
<path d="M27.9529 33.3359C27.4086 32.7916 26.67 32.4858 25.9003 32.4858C25.1297 32.4858 24.3919 32.7916 23.8468 33.3359C23.3024 33.8803 22.9967 34.6189 22.9967 35.3886C22.9983 36.1584 23.304 36.8962 23.8484 37.4405C24.3919 37.9849 25.1305 38.2906 25.9003 38.2922V38.2914C26.67 38.2914 27.4086 37.9857 27.9529 37.4413C28.4973 36.8969 28.803 36.1584 28.803 35.3886C28.803 34.6189 28.4973 33.8803 27.9529 33.3359ZM27.0264 36.5148C26.7269 36.8135 26.3222 36.9812 25.9003 36.9812C25.4776 36.9812 25.072 36.8135 24.7733 36.5148C24.4746 36.2161 24.3069 35.8113 24.3069 35.3886C24.3077 34.9667 24.4754 34.5619 24.7741 34.2632C25.0728 33.9645 25.4776 33.7961 25.9003 33.7961C26.3222 33.7961 26.7269 33.9637 27.0264 34.2624C27.3251 34.5611 27.4928 34.9659 27.4928 35.3886C27.4928 35.8113 27.3251 36.2161 27.0264 36.5148Z" fill="#3F4254"/>
<path d="M30.4338 32.6817C29.48 31.0844 27.7564 30.1064 25.8964 30.1064C24.0363 30.1064 22.3127 31.0837 21.3589 32.6817C20.4051 34.2789 20.3614 36.259 21.2443 37.8968C21.4377 38.2423 21.6701 38.5652 21.9368 38.8577L25.4066 42.8281C25.4159 42.8382 25.4269 42.8453 25.4354 42.8546C25.4448 42.864 25.4565 42.8788 25.469 42.8897C25.4736 42.8936 25.4799 42.8952 25.4846 42.8991C25.5368 42.9427 25.5961 42.9786 25.6593 43.0044C25.671 43.009 25.6827 43.0114 25.6944 43.0153V43.0161C25.7599 43.0387 25.8285 43.0504 25.8971 43.0519C25.9665 43.0504 26.0352 43.0387 26.0999 43.0161C26.1124 43.0122 26.1233 43.009 26.135 43.0044C26.199 42.9786 26.259 42.9435 26.312 42.8991C26.3167 42.8952 26.3222 42.8944 26.3276 42.8897C26.3401 42.8788 26.3495 42.8655 26.3604 42.8546C26.3721 42.8437 26.3807 42.8382 26.3892 42.8281L29.8598 38.8584V38.8577C30.1249 38.5644 30.3566 38.2423 30.5484 37.8968C31.4305 36.259 31.3876 34.2789 30.4338 32.6817ZM28.8771 37.9959L25.9003 41.4025L22.9234 37.9959C22.2441 37.23 21.8877 36.2302 21.9298 35.207C21.9727 34.1837 22.4102 33.2174 23.1503 32.5101C23.8905 31.8035 24.877 31.4104 25.9003 31.4151C26.9305 31.3956 27.9272 31.7817 28.6759 32.4898C29.4246 33.198 29.8652 34.172 29.9027 35.2015C29.9401 36.231 29.572 37.2347 28.8771 37.9959Z" fill="#3F4254"/>
<path d="M29.9027 35.2014C29.8652 34.1719 29.4246 33.1979 28.6759 32.4897C27.9272 31.7816 26.9305 31.3955 25.9003 31.415C25.5587 31.4135 25.221 31.4563 24.895 31.5406C24.2453 31.7075 23.6432 32.0389 23.1503 32.51C22.4102 33.2173 21.9727 34.1836 21.9298 35.2069C21.8877 36.2301 22.2441 37.2299 22.9234 37.9958L25.9003 41.4024L26.5733 40.6318L28.8771 37.9958C29.572 37.2346 29.9401 36.2309 29.9027 35.2014ZM27.9529 37.4413C27.4086 37.9856 26.67 38.2914 25.9003 38.2914V38.2921C25.1305 38.2906 24.3919 37.9849 23.8483 37.4405C23.6955 37.2876 23.5606 37.1192 23.4467 36.939C23.4444 36.9359 23.4428 36.9328 23.4412 36.9297C23.286 36.6816 23.1691 36.4118 23.0942 36.1295C23.0302 35.8901 22.9975 35.6413 22.9967 35.3886C22.9967 34.6188 23.3024 33.8803 23.8468 33.3359C24.3919 32.7915 25.1297 32.4858 25.9003 32.4858C26.67 32.4858 27.4086 32.7915 27.9529 33.3359C28.4973 33.8803 28.803 34.6188 28.803 35.3886C28.803 36.1583 28.4973 36.8969 27.9529 37.4413Z" fill="#FFDF00"/>
<path d="M27.4928 35.3887C27.4928 35.8114 27.3251 36.2162 27.0264 36.5149C26.727 36.8136 26.3222 36.9812 25.9003 36.9812C25.4776 36.9812 25.072 36.8136 24.7733 36.5149C24.4746 36.2162 24.3069 35.8114 24.3069 35.3887C24.3077 34.9668 24.4754 34.562 24.7741 34.2633C25.0728 33.9646 25.4776 33.7961 25.9003 33.7961C26.3222 33.7961 26.727 33.9638 27.0264 34.2625C27.3251 34.5612 27.4928 34.966 27.4928 35.3887Z" fill="#3F4254"/>
<path d="M24.6135 28.8624C24.6135 29.2243 24.3194 29.5175 23.9583 29.5175H20.7265V29.5191C20.2 29.5191 19.6962 29.7281 19.3242 30.1001C18.9522 30.4713 18.7432 30.9759 18.7432 31.5023C18.7401 32.1738 19.0817 32.8009 19.6494 33.1612C19.9551 33.3554 20.0456 33.7601 19.8514 34.0659C19.6572 34.3708 19.2525 34.4613 18.9467 34.2678C18.1427 33.7523 17.603 32.9124 17.4665 31.9672C17.33 31.0219 17.6115 30.0642 18.237 29.342C18.8625 28.6206 19.7711 28.2065 20.7265 28.2073H23.9583C24.3194 28.2073 24.6135 28.5013 24.6135 28.8624Z" fill="#3F4254"/>
<path d="M47.4098 21.0743C47.2507 21.9915 46.8342 22.8509 46.1978 23.5489L44.9422 24.9855L43.5079 26.6256L41.3609 24.169L40.106 22.7332C40.0538 22.677 40.0031 22.6193 39.9547 22.56C39.9906 22.5998 40.028 22.6396 40.0663 22.6778C40.7019 23.3142 41.5644 23.6714 42.4644 23.6722C43.3637 23.6722 44.227 23.315 44.8634 22.6786C45.3087 22.234 45.6176 21.6772 45.7626 21.0743C45.825 20.8162 45.857 20.5495 45.857 20.2796C45.857 19.3796 45.4998 18.517 44.8634 17.8799C44.227 17.2443 43.3637 16.8863 42.4644 16.8863C41.5644 16.8863 40.7011 17.2443 40.0647 17.8799C39.4283 18.5163 39.0711 19.3796 39.0711 20.2796C39.0719 20.5495 39.1039 20.8162 39.1663 21.0743C39.2201 21.2974 39.2965 21.5134 39.394 21.7201C39.1553 21.2631 38.9923 20.7694 38.9136 20.2586C38.8761 20.0215 38.8574 19.7797 38.8574 19.5372C38.8574 19.5122 38.8582 19.488 38.8582 19.4638C38.859 18.1435 39.3846 16.8769 40.3182 15.9434C40.4235 15.8381 40.5326 15.7383 40.6457 15.6447C41.2189 15.4185 41.8358 15.2992 42.4644 15.2984C43.7559 15.275 45.0046 15.7593 45.9428 16.6476C46.8802 17.5352 47.4324 18.7557 47.4799 20.0464C47.4924 20.3935 47.469 20.7374 47.4098 21.0743Z" fill="#FFDF00"/>
<path opacity="0.4" d="M28.8771 37.9958L26.5733 40.6318L23.9154 37.5902C23.736 37.3882 23.5793 37.1699 23.4467 36.939C23.5605 37.1192 23.6955 37.2876 23.8483 37.4405C24.3919 37.9849 25.1305 38.2906 25.9002 38.2921V38.2914C26.67 38.2914 27.4085 37.9856 27.9529 37.4413C28.4973 36.8969 28.803 36.1583 28.803 35.3886C28.803 34.6188 28.4973 33.8803 27.9529 33.3359C27.4085 32.7915 26.67 32.4858 25.9002 32.4858C25.1297 32.4858 24.3919 32.7915 23.8468 33.3359C23.3024 33.8803 22.9967 34.6188 22.9967 35.3886C22.9975 35.6413 23.0302 35.8901 23.0942 36.1295C22.9631 35.7037 22.9031 35.2544 22.9218 34.8013C22.9647 33.7781 23.4022 32.8118 24.1423 32.1044C24.3716 31.8853 24.6243 31.6966 24.8949 31.5406C25.2209 31.4563 25.5586 31.4135 25.9002 31.415C26.9305 31.3955 27.9272 31.7816 28.6759 32.4897C29.4246 33.1979 29.8652 34.1719 29.9027 35.2014C29.9401 36.2309 29.572 37.2346 28.8771 37.9958Z" fill="white"/>
</g>
<defs>
<clipPath id="clip0_0_1">
<rect width="38.87" height="36.1669" fill="white" transform="translate(13 14)"/>
</clipPath>
</defs>
</svg>
