<svg width="64" height="64" viewBox="0 0 64 64" fill="none" xmlns="http://www.w3.org/2000/svg">
<circle cx="32" cy="32" r="32" fill="#ECFFFF"/>
<g clip-path="url(#clip0_0_1)">
<path d="M52.5937 36.7411V38.0284H48.3243C48.2126 37.3186 47.9201 36.6609 47.4902 36.0975C46.5999 34.9308 45.1221 34.1665 43.4531 34.1665C41.7841 34.1665 40.3063 34.9308 39.416 36.0975C38.986 36.6609 38.6935 37.3186 38.5818 38.0284H24.4173C24.3064 37.3186 24.0131 36.6609 23.5832 36.0975C22.6928 34.9308 21.2151 34.1665 19.546 34.1665C18.5022 34.1665 17.5323 34.4659 16.7343 34.9764C15.6407 35.6752 14.8709 36.7698 14.674 38.0306L12.518 38.0387V32.8843H37.125C37.137 32.8843 37.1491 32.8843 37.1611 32.8836C38.6783 32.8666 39.9101 31.7426 39.9367 30.356C39.9383 30.3405 39.9391 30.3251 39.9391 30.3089V22.5806H42.0485V27.0869C42.0485 28.862 43.6259 30.3052 45.5641 30.3052H51.8906V32.2355C51.5017 32.2355 51.1875 32.5231 51.1875 32.8791C51.1875 33.2352 51.5017 33.5228 51.8906 33.5228V35.4538H51.2019C50.813 35.4538 50.4988 35.7414 50.4988 36.0975C50.4988 36.4535 50.813 36.7411 51.2019 36.7411H52.5937Z" fill="#FEB404"/>
<path d="M51.1875 32.8791C51.1875 33.2352 51.5017 33.5228 51.8906 33.5228V35.4538H51.202C50.813 35.4538 50.4988 35.7414 50.4988 36.0975H16.7344V33.9281C16.7344 33.3514 17.2446 32.8843 17.8746 32.8843H37.125C37.1371 32.8843 37.1491 32.8843 37.1612 32.8836C38.6783 32.8666 39.9102 31.7426 39.9367 30.356C39.9383 30.3405 39.9391 30.3251 39.9391 30.3089V22.5806H42.0485V27.0869C42.0485 28.862 43.6259 30.3052 45.5641 30.3052H51.8906V32.2355C51.5017 32.2355 51.1875 32.5231 51.1875 32.8791Z" fill="#9FD5B5"/>
<path d="M19.5461 36.741C18.3833 36.741 17.4367 37.6075 17.4367 38.672C17.4367 39.7364 18.3833 40.6029 19.5461 40.6029C20.7088 40.6029 21.6554 39.7364 21.6554 38.672C21.6554 37.6075 20.7088 36.741 19.5461 36.741ZM19.5461 39.3156C19.1579 39.3156 18.8429 39.0273 18.8429 38.672C18.8429 38.3167 19.1579 38.0283 19.5461 38.0283C19.9342 38.0283 20.2492 38.3167 20.2492 38.672C20.2492 39.0273 19.9342 39.3156 19.5461 39.3156ZM19.5461 36.741C18.3833 36.741 17.4367 37.6075 17.4367 38.672C17.4367 39.7364 18.3833 40.6029 19.5461 40.6029C20.7088 40.6029 21.6554 39.7364 21.6554 38.672C21.6554 37.6075 20.7088 36.741 19.5461 36.741ZM19.5461 39.3156C19.1579 39.3156 18.8429 39.0273 18.8429 38.672C18.8429 38.3167 19.1579 38.0283 19.5461 38.0283C19.9342 38.0283 20.2492 38.3167 20.2492 38.672C20.2492 39.0273 19.9342 39.3156 19.5461 39.3156ZM19.5461 36.741C18.3833 36.741 17.4367 37.6075 17.4367 38.672C17.4367 39.7364 18.3833 40.6029 19.5461 40.6029C20.7088 40.6029 21.6554 39.7364 21.6554 38.672C21.6554 37.6075 20.7088 36.741 19.5461 36.741ZM19.5461 39.3156C19.1579 39.3156 18.8429 39.0273 18.8429 38.672C18.8429 38.3167 19.1579 38.0283 19.5461 38.0283C19.9342 38.0283 20.2492 38.3167 20.2492 38.672C20.2492 39.0273 19.9342 39.3156 19.5461 39.3156ZM43.4531 36.741C42.2904 36.741 41.3437 37.6075 41.3437 38.672C41.3437 39.7364 42.2904 40.6029 43.4531 40.6029C44.6159 40.6029 45.5625 39.7364 45.5625 38.672C45.5625 37.6075 44.6159 36.741 43.4531 36.741ZM43.4531 39.3156C43.065 39.3156 42.75 39.0273 42.75 38.672C42.75 38.3167 43.065 38.0283 43.4531 38.0283C43.8412 38.0283 44.1562 38.3167 44.1562 38.672C44.1562 39.0273 43.8412 39.3156 43.4531 39.3156ZM43.4531 36.741C42.2904 36.741 41.3437 37.6075 41.3437 38.672C41.3437 39.7364 42.2904 40.6029 43.4531 40.6029C44.6159 40.6029 45.5625 39.7364 45.5625 38.672C45.5625 37.6075 44.6159 36.741 43.4531 36.741ZM43.4531 39.3156C43.065 39.3156 42.75 39.0273 42.75 38.672C42.75 38.3167 43.065 38.0283 43.4531 38.0283C43.8412 38.0283 44.1562 38.3167 44.1562 38.672C44.1562 39.0273 43.8412 39.3156 43.4531 39.3156ZM19.5461 36.741C18.3833 36.741 17.4367 37.6075 17.4367 38.672C17.4367 39.7364 18.3833 40.6029 19.5461 40.6029C20.7088 40.6029 21.6554 39.7364 21.6554 38.672C21.6554 37.6075 20.7088 36.741 19.5461 36.741ZM19.5461 39.3156C19.1579 39.3156 18.8429 39.0273 18.8429 38.672C18.8429 38.3167 19.1579 38.0283 19.5461 38.0283C19.9342 38.0283 20.2492 38.3167 20.2492 38.672C20.2492 39.0273 19.9342 39.3156 19.5461 39.3156ZM19.5461 36.741C18.3833 36.741 17.4367 37.6075 17.4367 38.672C17.4367 39.7364 18.3833 40.6029 19.5461 40.6029C20.7088 40.6029 21.6554 39.7364 21.6554 38.672C21.6554 37.6075 20.7088 36.741 19.5461 36.741ZM19.5461 39.3156C19.1579 39.3156 18.8429 39.0273 18.8429 38.672C18.8429 38.3167 19.1579 38.0283 19.5461 38.0283C19.9342 38.0283 20.2492 38.3167 20.2492 38.672C20.2492 39.0273 19.9342 39.3156 19.5461 39.3156ZM43.4531 36.741C42.2904 36.741 41.3437 37.6075 41.3437 38.672C41.3437 39.7364 42.2904 40.6029 43.4531 40.6029C44.6159 40.6029 45.5625 39.7364 45.5625 38.672C45.5625 37.6075 44.6159 36.741 43.4531 36.741ZM43.4531 39.3156C43.065 39.3156 42.75 39.0273 42.75 38.672C42.75 38.3167 43.065 38.0283 43.4531 38.0283C43.8412 38.0283 44.1562 38.3167 44.1562 38.672C44.1562 39.0273 43.8412 39.3156 43.4531 39.3156ZM43.4531 36.741C42.2904 36.741 41.3437 37.6075 41.3437 38.672C41.3437 39.7364 42.2904 40.6029 43.4531 40.6029C44.6159 40.6029 45.5625 39.7364 45.5625 38.672C45.5625 37.6075 44.6159 36.741 43.4531 36.741ZM43.4531 39.3156C43.065 39.3156 42.75 39.0273 42.75 38.672C42.75 38.3167 43.065 38.0283 43.4531 38.0283C43.8412 38.0283 44.1562 38.3167 44.1562 38.672C44.1562 39.0273 43.8412 39.3156 43.4531 39.3156ZM19.5461 36.741C18.3833 36.741 17.4367 37.6075 17.4367 38.672C17.4367 39.7364 18.3833 40.6029 19.5461 40.6029C20.7088 40.6029 21.6554 39.7364 21.6554 38.672C21.6554 37.6075 20.7088 36.741 19.5461 36.741ZM19.5461 39.3156C19.1579 39.3156 18.8429 39.0273 18.8429 38.672C18.8429 38.3167 19.1579 38.0283 19.5461 38.0283C19.9342 38.0283 20.2492 38.3167 20.2492 38.672C20.2492 39.0273 19.9342 39.3156 19.5461 39.3156ZM19.5461 36.741C18.3833 36.741 17.4367 37.6075 17.4367 38.672C17.4367 39.7364 18.3833 40.6029 19.5461 40.6029C20.7088 40.6029 21.6554 39.7364 21.6554 38.672C21.6554 37.6075 20.7088 36.741 19.5461 36.741ZM19.5461 39.3156C19.1579 39.3156 18.8429 39.0273 18.8429 38.672C18.8429 38.3167 19.1579 38.0283 19.5461 38.0283C19.9342 38.0283 20.2492 38.3167 20.2492 38.672C20.2492 39.0273 19.9342 39.3156 19.5461 39.3156ZM43.4531 36.741C42.2904 36.741 41.3437 37.6075 41.3437 38.672C41.3437 39.7364 42.2904 40.6029 43.4531 40.6029C44.6159 40.6029 45.5625 39.7364 45.5625 38.672C45.5625 37.6075 44.6159 36.741 43.4531 36.741ZM43.4531 39.3156C43.065 39.3156 42.75 39.0273 42.75 38.672C42.75 38.3167 43.065 38.0283 43.4531 38.0283C43.8412 38.0283 44.1562 38.3167 44.1562 38.672C44.1562 39.0273 43.8412 39.3156 43.4531 39.3156ZM43.4531 36.741C42.2904 36.741 41.3437 37.6075 41.3437 38.672C41.3437 39.7364 42.2904 40.6029 43.4531 40.6029C44.6159 40.6029 45.5625 39.7364 45.5625 38.672C45.5625 37.6075 44.6159 36.741 43.4531 36.741ZM43.4531 39.3156C43.065 39.3156 42.75 39.0273 42.75 38.672C42.75 38.3167 43.065 38.0283 43.4531 38.0283C43.8412 38.0283 44.1562 38.3167 44.1562 38.672C44.1562 39.0273 43.8412 39.3156 43.4531 39.3156ZM19.5461 36.741C18.3833 36.741 17.4367 37.6075 17.4367 38.672C17.4367 39.7364 18.3833 40.6029 19.5461 40.6029C20.7088 40.6029 21.6554 39.7364 21.6554 38.672C21.6554 37.6075 20.7088 36.741 19.5461 36.741ZM19.5461 39.3156C19.1579 39.3156 18.8429 39.0273 18.8429 38.672C18.8429 38.3167 19.1579 38.0283 19.5461 38.0283C19.9342 38.0283 20.2492 38.3167 20.2492 38.672C20.2492 39.0273 19.9342 39.3156 19.5461 39.3156ZM19.5461 36.741C18.3833 36.741 17.4367 37.6075 17.4367 38.672C17.4367 39.7364 18.3833 40.6029 19.5461 40.6029C20.7088 40.6029 21.6554 39.7364 21.6554 38.672C21.6554 37.6075 20.7088 36.741 19.5461 36.741ZM19.5461 39.3156C19.1579 39.3156 18.8429 39.0273 18.8429 38.672C18.8429 38.3167 19.1579 38.0283 19.5461 38.0283C19.9342 38.0283 20.2492 38.3167 20.2492 38.672C20.2492 39.0273 19.9342 39.3156 19.5461 39.3156ZM43.4531 36.741C42.2904 36.741 41.3437 37.6075 41.3437 38.672C41.3437 39.7364 42.2904 40.6029 43.4531 40.6029C44.6159 40.6029 45.5625 39.7364 45.5625 38.672C45.5625 37.6075 44.6159 36.741 43.4531 36.741ZM43.4531 39.3156C43.065 39.3156 42.75 39.0273 42.75 38.672C42.75 38.3167 43.065 38.0283 43.4531 38.0283C43.8412 38.0283 44.1562 38.3167 44.1562 38.672C44.1562 39.0273 43.8412 39.3156 43.4531 39.3156ZM43.4531 36.741C42.2904 36.741 41.3437 37.6075 41.3437 38.672C41.3437 39.7364 42.2904 40.6029 43.4531 40.6029C44.6159 40.6029 45.5625 39.7364 45.5625 38.672C45.5625 37.6075 44.6159 36.741 43.4531 36.741ZM43.4531 39.3156C43.065 39.3156 42.75 39.0273 42.75 38.672C42.75 38.3167 43.065 38.0283 43.4531 38.0283C43.8412 38.0283 44.1562 38.3167 44.1562 38.672C44.1562 39.0273 43.8412 39.3156 43.4531 39.3156ZM19.5461 36.741C18.3833 36.741 17.4367 37.6075 17.4367 38.672C17.4367 39.7364 18.3833 40.6029 19.5461 40.6029C20.7088 40.6029 21.6554 39.7364 21.6554 38.672C21.6554 37.6075 20.7088 36.741 19.5461 36.741ZM19.5461 39.3156C19.1579 39.3156 18.8429 39.0273 18.8429 38.672C18.8429 38.3167 19.1579 38.0283 19.5461 38.0283C19.9342 38.0283 20.2492 38.3167 20.2492 38.672C20.2492 39.0273 19.9342 39.3156 19.5461 39.3156ZM19.5461 36.741C18.3833 36.741 17.4367 37.6075 17.4367 38.672C17.4367 39.7364 18.3833 40.6029 19.5461 40.6029C20.7088 40.6029 21.6554 39.7364 21.6554 38.672C21.6554 37.6075 20.7088 36.741 19.5461 36.741ZM19.5461 39.3156C19.1579 39.3156 18.8429 39.0273 18.8429 38.672C18.8429 38.3167 19.1579 38.0283 19.5461 38.0283C19.9342 38.0283 20.2492 38.3167 20.2492 38.672C20.2492 39.0273 19.9342 39.3156 19.5461 39.3156ZM43.4531 36.741C42.2904 36.741 41.3437 37.6075 41.3437 38.672C41.3437 39.7364 42.2904 40.6029 43.4531 40.6029C44.6159 40.6029 45.5625 39.7364 45.5625 38.672C45.5625 37.6075 44.6159 36.741 43.4531 36.741ZM43.4531 39.3156C43.065 39.3156 42.75 39.0273 42.75 38.672C42.75 38.3167 43.065 38.0283 43.4531 38.0283C43.8412 38.0283 44.1562 38.3167 44.1562 38.672C44.1562 39.0273 43.8412 39.3156 43.4531 39.3156ZM43.4531 36.741C42.2904 36.741 41.3437 37.6075 41.3437 38.672C41.3437 39.7364 42.2904 40.6029 43.4531 40.6029C44.6159 40.6029 45.5625 39.7364 45.5625 38.672C45.5625 37.6075 44.6159 36.741 43.4531 36.741ZM43.4531 39.3156C43.065 39.3156 42.75 39.0273 42.75 38.672C42.75 38.3167 43.065 38.0283 43.4531 38.0283C43.8412 38.0283 44.1562 38.3167 44.1562 38.672C44.1562 39.0273 43.8412 39.3156 43.4531 39.3156ZM19.5461 36.741C18.3833 36.741 17.4367 37.6075 17.4367 38.672C17.4367 39.7364 18.3833 40.6029 19.5461 40.6029C20.7088 40.6029 21.6554 39.7364 21.6554 38.672C21.6554 37.6075 20.7088 36.741 19.5461 36.741ZM19.5461 39.3156C19.1579 39.3156 18.8429 39.0273 18.8429 38.672C18.8429 38.3167 19.1579 38.0283 19.5461 38.0283C19.9342 38.0283 20.2492 38.3167 20.2492 38.672C20.2492 39.0273 19.9342 39.3156 19.5461 39.3156ZM19.5461 36.741C18.3833 36.741 17.4367 37.6075 17.4367 38.672C17.4367 39.7364 18.3833 40.6029 19.5461 40.6029C20.7088 40.6029 21.6554 39.7364 21.6554 38.672C21.6554 37.6075 20.7088 36.741 19.5461 36.741ZM19.5461 39.3156C19.1579 39.3156 18.8429 39.0273 18.8429 38.672C18.8429 38.3167 19.1579 38.0283 19.5461 38.0283C19.9342 38.0283 20.2492 38.3167 20.2492 38.672C20.2492 39.0273 19.9342 39.3156 19.5461 39.3156ZM43.4531 36.741C42.2904 36.741 41.3437 37.6075 41.3437 38.672C41.3437 39.7364 42.2904 40.6029 43.4531 40.6029C44.6159 40.6029 45.5625 39.7364 45.5625 38.672C45.5625 37.6075 44.6159 36.741 43.4531 36.741ZM43.4531 39.3156C43.065 39.3156 42.75 39.0273 42.75 38.672C42.75 38.3167 43.065 38.0283 43.4531 38.0283C43.8412 38.0283 44.1562 38.3167 44.1562 38.672C44.1562 39.0273 43.8412 39.3156 43.4531 39.3156ZM43.4531 36.741C42.2904 36.741 41.3437 37.6075 41.3437 38.672C41.3437 39.7364 42.2904 40.6029 43.4531 40.6029C44.6159 40.6029 45.5625 39.7364 45.5625 38.672C45.5625 37.6075 44.6159 36.741 43.4531 36.741ZM43.4531 39.3156C43.065 39.3156 42.75 39.0273 42.75 38.672C42.75 38.3167 43.065 38.0283 43.4531 38.0283C43.8412 38.0283 44.1562 38.3167 44.1562 38.672C44.1562 39.0273 43.8412 39.3156 43.4531 39.3156ZM19.5461 36.741C18.3833 36.741 17.4367 37.6075 17.4367 38.672C17.4367 39.7364 18.3833 40.6029 19.5461 40.6029C20.7088 40.6029 21.6554 39.7364 21.6554 38.672C21.6554 37.6075 20.7088 36.741 19.5461 36.741ZM19.5461 39.3156C19.1579 39.3156 18.8429 39.0273 18.8429 38.672C18.8429 38.3167 19.1579 38.0283 19.5461 38.0283C19.9342 38.0283 20.2492 38.3167 20.2492 38.672C20.2492 39.0273 19.9342 39.3156 19.5461 39.3156ZM19.5461 36.741C18.3833 36.741 17.4367 37.6075 17.4367 38.672C17.4367 39.7364 18.3833 40.6029 19.5461 40.6029C20.7088 40.6029 21.6554 39.7364 21.6554 38.672C21.6554 37.6075 20.7088 36.741 19.5461 36.741ZM19.5461 39.3156C19.1579 39.3156 18.8429 39.0273 18.8429 38.672C18.8429 38.3167 19.1579 38.0283 19.5461 38.0283C19.9342 38.0283 20.2492 38.3167 20.2492 38.672C20.2492 39.0273 19.9342 39.3156 19.5461 39.3156ZM43.4531 36.741C42.2904 36.741 41.3437 37.6075 41.3437 38.672C41.3437 39.7364 42.2904 40.6029 43.4531 40.6029C44.6159 40.6029 45.5625 39.7364 45.5625 38.672C45.5625 37.6075 44.6159 36.741 43.4531 36.741ZM43.4531 39.3156C43.065 39.3156 42.75 39.0273 42.75 38.672C42.75 38.3167 43.065 38.0283 43.4531 38.0283C43.8412 38.0283 44.1562 38.3167 44.1562 38.672C44.1562 39.0273 43.8412 39.3156 43.4531 39.3156ZM43.4531 36.741C42.2904 36.741 41.3437 37.6075 41.3437 38.672C41.3437 39.7364 42.2904 40.6029 43.4531 40.6029C44.6159 40.6029 45.5625 39.7364 45.5625 38.672C45.5625 37.6075 44.6159 36.741 43.4531 36.741ZM43.4531 39.3156C43.065 39.3156 42.75 39.0273 42.75 38.672C42.75 38.3167 43.065 38.0283 43.4531 38.0283C43.8412 38.0283 44.1562 38.3167 44.1562 38.672C44.1562 39.0273 43.8412 39.3156 43.4531 39.3156ZM19.5461 36.741C18.3833 36.741 17.4367 37.6075 17.4367 38.672C17.4367 39.7364 18.3833 40.6029 19.5461 40.6029C20.7088 40.6029 21.6554 39.7364 21.6554 38.672C21.6554 37.6075 20.7088 36.741 19.5461 36.741ZM19.5461 39.3156C19.1579 39.3156 18.8429 39.0273 18.8429 38.672C18.8429 38.3167 19.1579 38.0283 19.5461 38.0283C19.9342 38.0283 20.2492 38.3167 20.2492 38.672C20.2492 39.0273 19.9342 39.3156 19.5461 39.3156ZM53.2736 36.2606L52.5938 36.0973L52.597 36.0421L52.6283 35.4537L52.7328 33.5102L52.7995 32.2633L52.9079 30.2374V30.2367L52.2442 29.1038L52.1936 29.0178L48.4208 22.579L48.0447 21.9368H39.236V30.7016C39.0841 29.9027 38.8286 29.3591 38.5329 28.9935C38.3111 28.7198 38.0668 28.5455 37.8249 28.4374C37.5228 28.302 37.2262 28.2711 36.9836 28.28H36.9828C36.6517 28.2917 36.4219 28.3785 36.4219 28.3785C36.5376 28.1939 36.6372 28.0173 36.724 27.8496C36.7433 27.8106 36.7626 27.7724 36.7811 27.7341C37.7429 25.7568 36.6999 24.991 35.689 24.6953C35.3411 24.5931 34.9963 24.5467 34.7392 24.5261C34.4821 24.5055 34.3125 24.5107 34.3125 24.5107C34.4804 24.3069 34.6179 24.1112 34.7271 23.9237C34.7384 23.9045 34.7488 23.8861 34.7593 23.867C35.9494 21.7367 33.6094 20.6436 33.6094 20.6436H16.0312C15.7741 20.6715 15.5451 20.7127 15.341 20.7657C13.3079 21.2894 13.7885 22.9409 14.2465 23.867C14.2497 23.8729 14.2529 23.8795 14.2554 23.8854C14.4434 24.2606 14.6242 24.5121 14.6242 24.5121C14.4402 24.4812 14.2682 24.4614 14.1067 24.4504H14.1059C13.7636 24.4283 13.4711 24.4489 13.2187 24.5041C11.5666 24.8697 11.7032 26.7308 11.9065 27.7341C11.9057 27.7349 11.9065 27.7356 11.9065 27.7363C11.9845 28.1203 12.0712 28.3778 12.0712 28.3778H12.0696C11.7241 28.4491 11.422 28.5286 11.1584 28.6139C8.27196 29.5511 10.0286 31.2732 11.1287 32.1007C11.512 32.3884 11.8149 32.5678 11.8149 32.5678V38.672H15.5298V38.6786C15.5298 38.8809 15.5475 39.0788 15.5821 39.2722C15.8922 41.0208 17.5492 42.3559 19.5469 42.3559C21.5446 42.3559 23.2015 41.0208 23.5117 39.2722C23.5462 39.0788 23.5639 38.8809 23.5639 38.6786V38.672H39.637C39.637 38.8463 39.6498 39.0177 39.6763 39.1854C39.9487 40.9737 41.6258 42.3493 43.654 42.3493C45.634 42.3493 47.2789 41.0384 47.61 39.3127C47.6502 39.1045 47.6711 38.8904 47.6711 38.672L48.3742 38.633L52.5938 38.3983L53.2969 38.3593L53.3531 38.0305L53.5821 36.6858L53.6392 36.3489L53.2736 36.2606ZM47.9403 22.5804L51.4559 29.0178H45.5641C44.4013 29.0178 43.4547 28.1512 43.4547 27.0868V22.5804H47.9403ZM37.125 29.0222C37.9004 29.0222 38.5312 29.5996 38.5312 30.3095C38.5312 31.0194 37.9004 31.5968 37.125 31.5968H31.8246C32.0657 31.218 32.2031 30.7781 32.2031 30.3095C32.2031 29.8409 32.0657 29.4003 31.8246 29.0215H37.0888C37.1009 29.0222 37.1129 29.0222 37.125 29.0222ZM22.6848 31.5968C22.9251 31.218 23.0625 30.7781 23.0625 30.3095C23.0625 29.8409 22.9251 29.4003 22.6848 29.0215H29.3545C29.3665 29.0222 29.3786 29.0222 29.3906 29.0222C30.1661 29.0222 30.7969 29.5996 30.7969 30.3095C30.7969 31.0194 30.1661 31.5968 29.3906 31.5968H22.6848ZM27.2812 25.1543C28.0567 25.1543 28.6875 25.7318 28.6875 26.4417C28.6875 27.1515 28.0567 27.729 27.2812 27.729C27.2523 27.729 27.2234 27.7304 27.1953 27.7341H20.5722C20.8141 27.3538 20.9531 26.9124 20.9531 26.4417C20.9531 25.9731 20.8157 25.5332 20.5754 25.1543H27.2812ZM21.6562 30.3088C21.6562 31.0186 21.0254 31.5961 20.25 31.5961C19.4746 31.5961 18.8446 31.0194 18.8437 30.3095V30.3088C18.8437 29.5989 19.4746 29.0215 20.25 29.0215C21.0254 29.0215 21.6562 29.5989 21.6562 30.3088ZM17.4375 30.3095C17.4367 31.0194 16.8067 31.5961 16.0312 31.5961C15.2558 31.5961 14.6258 31.0194 14.625 30.3095V30.3088C14.625 29.5989 15.2558 29.0215 16.0312 29.0215C16.8067 29.0215 17.4375 29.5989 17.4375 30.3088V30.3095ZM18.1406 25.1543C18.9161 25.1543 19.5469 25.7318 19.5469 26.4417C19.5469 27.1515 18.9161 27.729 18.1406 27.729C17.3652 27.729 16.7344 27.1515 16.7344 26.4417C16.7344 25.7318 17.3652 25.1543 18.1406 25.1543ZM36.4219 26.4417C36.4219 27.1515 35.7911 27.729 35.0156 27.729C34.9867 27.729 34.9578 27.7304 34.9296 27.7341H29.7137C29.9555 27.3538 30.0938 26.9124 30.0938 26.4417C30.0938 25.9731 29.9563 25.5332 29.7169 25.1543H35.0156C35.7911 25.1543 36.4219 25.7318 36.4219 26.4417ZM32.9062 21.2872C33.6817 21.2872 34.3125 21.8647 34.3125 22.5745C34.3125 23.2844 33.6817 23.8619 32.9062 23.8619C32.8773 23.8619 32.8484 23.8633 32.8203 23.867H27.6035C27.8454 23.4867 27.9844 23.0453 27.9844 22.5745C27.9844 22.106 27.847 21.6661 27.6067 21.2872H32.9062ZM25.1719 21.2872C25.9473 21.2872 26.5781 21.8647 26.5781 22.5745C26.5781 23.2844 25.9473 23.8619 25.1719 23.8619C25.1429 23.8619 25.114 23.8633 25.0859 23.867H18.4637C18.7055 23.4867 18.8437 23.0453 18.8437 22.5745C18.8437 22.106 18.7063 21.6661 18.4669 21.2872H25.1719ZM16.0312 21.2872C16.8067 21.2872 17.4375 21.8647 17.4375 22.5745C17.4375 23.2844 16.8067 23.8619 16.0312 23.8619C15.2558 23.8619 14.625 23.2844 14.625 22.5745C14.625 21.8647 15.2558 21.2872 16.0312 21.2872ZM13.9219 25.1543C14.6973 25.1543 15.3281 25.7318 15.3281 26.4417C15.3281 27.1515 14.6973 27.729 13.9219 27.729C13.1464 27.729 12.5156 27.1515 12.5156 26.4417C12.5156 25.7318 13.1464 25.1543 13.9219 25.1543ZM10.4062 30.3088C10.4062 29.5989 11.0371 29.0215 11.8125 29.0215C12.5879 29.0215 13.2187 29.5989 13.2187 30.3088V30.3095C13.2179 31.0194 12.5879 31.5961 11.8125 31.5961C11.0371 31.5961 10.4062 31.0186 10.4062 30.3088ZM19.5461 41.8903C17.6191 41.8903 16.0489 40.4639 16.0304 38.7036V38.6948C16.0312 38.6859 16.0312 38.6778 16.0312 38.669C16.0312 38.6617 16.0312 38.6536 16.0304 38.6462V38.6359C16.0521 36.8778 17.6207 35.4537 19.5461 35.4537C21.4843 35.4537 23.0617 36.8977 23.0617 38.672C23.0617 40.447 21.4851 41.8903 19.5461 41.8903ZM43.4531 41.8903C41.5623 41.8903 40.0154 40.5176 39.9407 38.8029C39.9407 38.8022 39.9407 38.8022 39.9407 38.8022C39.9504 38.7602 39.9552 38.7168 39.9552 38.672C39.9552 38.6271 39.9504 38.5837 39.9407 38.5418C39.9407 38.5418 39.9407 38.5418 39.9407 38.541C40.0154 36.827 41.5623 35.4537 43.4531 35.4537C45.3921 35.4537 46.9688 36.8977 46.9688 38.672C46.9688 40.447 45.3921 41.8903 43.4531 41.8903ZM48.3244 38.0283C47.9829 35.8479 45.9281 34.1663 43.4531 34.1663C40.9781 34.1663 38.9234 35.8479 38.5819 38.0283H24.4173C24.0758 35.8479 22.0211 34.1663 19.5461 34.1663C17.0703 34.1663 15.0147 35.8494 14.674 38.0305L12.518 38.0386V32.8842H37.125C37.1371 32.8842 37.1491 32.8842 37.1612 32.8834C38.6783 32.8665 39.9102 31.7425 39.9367 30.3559C39.9383 30.3404 39.9391 30.325 39.9391 30.3088V22.5804H42.0485V27.0868C42.0485 28.8618 43.6259 30.3051 45.5641 30.3051H51.8906V32.2353C51.5017 32.2353 51.1875 32.523 51.1875 32.879C51.1875 33.235 51.5017 33.5227 51.8906 33.5227V35.4537H51.202C50.813 35.4537 50.4988 35.7413 50.4988 36.0973C50.4988 36.4533 50.813 36.741 51.202 36.741H52.5938V38.0283H48.3244ZM43.4531 36.741C42.2904 36.741 41.3437 37.6075 41.3437 38.672C41.3437 39.7364 42.2904 40.6029 43.4531 40.6029C44.6159 40.6029 45.5625 39.7364 45.5625 38.672C45.5625 37.6075 44.6159 36.741 43.4531 36.741ZM43.4531 39.3156C43.065 39.3156 42.75 39.0273 42.75 38.672C42.75 38.3167 43.065 38.0283 43.4531 38.0283C43.8412 38.0283 44.1562 38.3167 44.1562 38.672C44.1562 39.0273 43.8412 39.3156 43.4531 39.3156ZM19.5461 36.741C18.3833 36.741 17.4367 37.6075 17.4367 38.672C17.4367 39.7364 18.3833 40.6029 19.5461 40.6029C20.7088 40.6029 21.6554 39.7364 21.6554 38.672C21.6554 37.6075 20.7088 36.741 19.5461 36.741ZM19.5461 39.3156C19.1579 39.3156 18.8429 39.0273 18.8429 38.672C18.8429 38.3167 19.1579 38.0283 19.5461 38.0283C19.9342 38.0283 20.2492 38.3167 20.2492 38.672C20.2492 39.0273 19.9342 39.3156 19.5461 39.3156ZM19.5461 36.741C18.3833 36.741 17.4367 37.6075 17.4367 38.672C17.4367 39.7364 18.3833 40.6029 19.5461 40.6029C20.7088 40.6029 21.6554 39.7364 21.6554 38.672C21.6554 37.6075 20.7088 36.741 19.5461 36.741ZM19.5461 39.3156C19.1579 39.3156 18.8429 39.0273 18.8429 38.672C18.8429 38.3167 19.1579 38.0283 19.5461 38.0283C19.9342 38.0283 20.2492 38.3167 20.2492 38.672C20.2492 39.0273 19.9342 39.3156 19.5461 39.3156ZM43.4531 36.741C42.2904 36.741 41.3437 37.6075 41.3437 38.672C41.3437 39.7364 42.2904 40.6029 43.4531 40.6029C44.6159 40.6029 45.5625 39.7364 45.5625 38.672C45.5625 37.6075 44.6159 36.741 43.4531 36.741ZM43.4531 39.3156C43.065 39.3156 42.75 39.0273 42.75 38.672C42.75 38.3167 43.065 38.0283 43.4531 38.0283C43.8412 38.0283 44.1562 38.3167 44.1562 38.672C44.1562 39.0273 43.8412 39.3156 43.4531 39.3156ZM43.4531 36.741C42.2904 36.741 41.3437 37.6075 41.3437 38.672C41.3437 39.7364 42.2904 40.6029 43.4531 40.6029C44.6159 40.6029 45.5625 39.7364 45.5625 38.672C45.5625 37.6075 44.6159 36.741 43.4531 36.741ZM43.4531 39.3156C43.065 39.3156 42.75 39.0273 42.75 38.672C42.75 38.3167 43.065 38.0283 43.4531 38.0283C43.8412 38.0283 44.1562 38.3167 44.1562 38.672C44.1562 39.0273 43.8412 39.3156 43.4531 39.3156ZM19.5461 36.741C18.3833 36.741 17.4367 37.6075 17.4367 38.672C17.4367 39.7364 18.3833 40.6029 19.5461 40.6029C20.7088 40.6029 21.6554 39.7364 21.6554 38.672C21.6554 37.6075 20.7088 36.741 19.5461 36.741ZM19.5461 39.3156C19.1579 39.3156 18.8429 39.0273 18.8429 38.672C18.8429 38.3167 19.1579 38.0283 19.5461 38.0283C19.9342 38.0283 20.2492 38.3167 20.2492 38.672C20.2492 39.0273 19.9342 39.3156 19.5461 39.3156ZM19.5461 36.741C18.3833 36.741 17.4367 37.6075 17.4367 38.672C17.4367 39.7364 18.3833 40.6029 19.5461 40.6029C20.7088 40.6029 21.6554 39.7364 21.6554 38.672C21.6554 37.6075 20.7088 36.741 19.5461 36.741ZM19.5461 39.3156C19.1579 39.3156 18.8429 39.0273 18.8429 38.672C18.8429 38.3167 19.1579 38.0283 19.5461 38.0283C19.9342 38.0283 20.2492 38.3167 20.2492 38.672C20.2492 39.0273 19.9342 39.3156 19.5461 39.3156ZM43.4531 36.741C42.2904 36.741 41.3437 37.6075 41.3437 38.672C41.3437 39.7364 42.2904 40.6029 43.4531 40.6029C44.6159 40.6029 45.5625 39.7364 45.5625 38.672C45.5625 37.6075 44.6159 36.741 43.4531 36.741ZM43.4531 39.3156C43.065 39.3156 42.75 39.0273 42.75 38.672C42.75 38.3167 43.065 38.0283 43.4531 38.0283C43.8412 38.0283 44.1562 38.3167 44.1562 38.672C44.1562 39.0273 43.8412 39.3156 43.4531 39.3156ZM43.4531 36.741C42.2904 36.741 41.3437 37.6075 41.3437 38.672C41.3437 39.7364 42.2904 40.6029 43.4531 40.6029C44.6159 40.6029 45.5625 39.7364 45.5625 38.672C45.5625 37.6075 44.6159 36.741 43.4531 36.741ZM43.4531 39.3156C43.065 39.3156 42.75 39.0273 42.75 38.672C42.75 38.3167 43.065 38.0283 43.4531 38.0283C43.8412 38.0283 44.1562 38.3167 44.1562 38.672C44.1562 39.0273 43.8412 39.3156 43.4531 39.3156ZM19.5461 36.741C18.3833 36.741 17.4367 37.6075 17.4367 38.672C17.4367 39.7364 18.3833 40.6029 19.5461 40.6029C20.7088 40.6029 21.6554 39.7364 21.6554 38.672C21.6554 37.6075 20.7088 36.741 19.5461 36.741ZM19.5461 39.3156C19.1579 39.3156 18.8429 39.0273 18.8429 38.672C18.8429 38.3167 19.1579 38.0283 19.5461 38.0283C19.9342 38.0283 20.2492 38.3167 20.2492 38.672C20.2492 39.0273 19.9342 39.3156 19.5461 39.3156ZM19.5461 36.741C18.3833 36.741 17.4367 37.6075 17.4367 38.672C17.4367 39.7364 18.3833 40.6029 19.5461 40.6029C20.7088 40.6029 21.6554 39.7364 21.6554 38.672C21.6554 37.6075 20.7088 36.741 19.5461 36.741ZM19.5461 39.3156C19.1579 39.3156 18.8429 39.0273 18.8429 38.672C18.8429 38.3167 19.1579 38.0283 19.5461 38.0283C19.9342 38.0283 20.2492 38.3167 20.2492 38.672C20.2492 39.0273 19.9342 39.3156 19.5461 39.3156ZM43.4531 36.741C42.2904 36.741 41.3437 37.6075 41.3437 38.672C41.3437 39.7364 42.2904 40.6029 43.4531 40.6029C44.6159 40.6029 45.5625 39.7364 45.5625 38.672C45.5625 37.6075 44.6159 36.741 43.4531 36.741ZM43.4531 39.3156C43.065 39.3156 42.75 39.0273 42.75 38.672C42.75 38.3167 43.065 38.0283 43.4531 38.0283C43.8412 38.0283 44.1562 38.3167 44.1562 38.672C44.1562 39.0273 43.8412 39.3156 43.4531 39.3156ZM43.4531 36.741C42.2904 36.741 41.3437 37.6075 41.3437 38.672C41.3437 39.7364 42.2904 40.6029 43.4531 40.6029C44.6159 40.6029 45.5625 39.7364 45.5625 38.672C45.5625 37.6075 44.6159 36.741 43.4531 36.741ZM43.4531 39.3156C43.065 39.3156 42.75 39.0273 42.75 38.672C42.75 38.3167 43.065 38.0283 43.4531 38.0283C43.8412 38.0283 44.1562 38.3167 44.1562 38.672C44.1562 39.0273 43.8412 39.3156 43.4531 39.3156ZM19.5461 36.741C18.3833 36.741 17.4367 37.6075 17.4367 38.672C17.4367 39.7364 18.3833 40.6029 19.5461 40.6029C20.7088 40.6029 21.6554 39.7364 21.6554 38.672C21.6554 37.6075 20.7088 36.741 19.5461 36.741ZM19.5461 39.3156C19.1579 39.3156 18.8429 39.0273 18.8429 38.672C18.8429 38.3167 19.1579 38.0283 19.5461 38.0283C19.9342 38.0283 20.2492 38.3167 20.2492 38.672C20.2492 39.0273 19.9342 39.3156 19.5461 39.3156ZM19.5461 36.741C18.3833 36.741 17.4367 37.6075 17.4367 38.672C17.4367 39.7364 18.3833 40.6029 19.5461 40.6029C20.7088 40.6029 21.6554 39.7364 21.6554 38.672C21.6554 37.6075 20.7088 36.741 19.5461 36.741ZM19.5461 39.3156C19.1579 39.3156 18.8429 39.0273 18.8429 38.672C18.8429 38.3167 19.1579 38.0283 19.5461 38.0283C19.9342 38.0283 20.2492 38.3167 20.2492 38.672C20.2492 39.0273 19.9342 39.3156 19.5461 39.3156ZM43.4531 36.741C42.2904 36.741 41.3437 37.6075 41.3437 38.672C41.3437 39.7364 42.2904 40.6029 43.4531 40.6029C44.6159 40.6029 45.5625 39.7364 45.5625 38.672C45.5625 37.6075 44.6159 36.741 43.4531 36.741ZM43.4531 39.3156C43.065 39.3156 42.75 39.0273 42.75 38.672C42.75 38.3167 43.065 38.0283 43.4531 38.0283C43.8412 38.0283 44.1562 38.3167 44.1562 38.672C44.1562 39.0273 43.8412 39.3156 43.4531 39.3156ZM43.4531 36.741C42.2904 36.741 41.3437 37.6075 41.3437 38.672C41.3437 39.7364 42.2904 40.6029 43.4531 40.6029C44.6159 40.6029 45.5625 39.7364 45.5625 38.672C45.5625 37.6075 44.6159 36.741 43.4531 36.741ZM43.4531 39.3156C43.065 39.3156 42.75 39.0273 42.75 38.672C42.75 38.3167 43.065 38.0283 43.4531 38.0283C43.8412 38.0283 44.1562 38.3167 44.1562 38.672C44.1562 39.0273 43.8412 39.3156 43.4531 39.3156ZM19.5461 36.741C18.3833 36.741 17.4367 37.6075 17.4367 38.672C17.4367 39.7364 18.3833 40.6029 19.5461 40.6029C20.7088 40.6029 21.6554 39.7364 21.6554 38.672C21.6554 37.6075 20.7088 36.741 19.5461 36.741ZM19.5461 39.3156C19.1579 39.3156 18.8429 39.0273 18.8429 38.672C18.8429 38.3167 19.1579 38.0283 19.5461 38.0283C19.9342 38.0283 20.2492 38.3167 20.2492 38.672C20.2492 39.0273 19.9342 39.3156 19.5461 39.3156ZM19.5461 36.741C18.3833 36.741 17.4367 37.6075 17.4367 38.672C17.4367 39.7364 18.3833 40.6029 19.5461 40.6029C20.7088 40.6029 21.6554 39.7364 21.6554 38.672C21.6554 37.6075 20.7088 36.741 19.5461 36.741ZM19.5461 39.3156C19.1579 39.3156 18.8429 39.0273 18.8429 38.672C18.8429 38.3167 19.1579 38.0283 19.5461 38.0283C19.9342 38.0283 20.2492 38.3167 20.2492 38.672C20.2492 39.0273 19.9342 39.3156 19.5461 39.3156ZM43.4531 36.741C42.2904 36.741 41.3437 37.6075 41.3437 38.672C41.3437 39.7364 42.2904 40.6029 43.4531 40.6029C44.6159 40.6029 45.5625 39.7364 45.5625 38.672C45.5625 37.6075 44.6159 36.741 43.4531 36.741ZM43.4531 39.3156C43.065 39.3156 42.75 39.0273 42.75 38.672C42.75 38.3167 43.065 38.0283 43.4531 38.0283C43.8412 38.0283 44.1562 38.3167 44.1562 38.672C44.1562 39.0273 43.8412 39.3156 43.4531 39.3156ZM43.4531 36.741C42.2904 36.741 41.3437 37.6075 41.3437 38.672C41.3437 39.7364 42.2904 40.6029 43.4531 40.6029C44.6159 40.6029 45.5625 39.7364 45.5625 38.672C45.5625 37.6075 44.6159 36.741 43.4531 36.741ZM43.4531 39.3156C43.065 39.3156 42.75 39.0273 42.75 38.672C42.75 38.3167 43.065 38.0283 43.4531 38.0283C43.8412 38.0283 44.1562 38.3167 44.1562 38.672C44.1562 39.0273 43.8412 39.3156 43.4531 39.3156ZM19.5461 36.741C18.3833 36.741 17.4367 37.6075 17.4367 38.672C17.4367 39.7364 18.3833 40.6029 19.5461 40.6029C20.7088 40.6029 21.6554 39.7364 21.6554 38.672C21.6554 37.6075 20.7088 36.741 19.5461 36.741ZM19.5461 39.3156C19.1579 39.3156 18.8429 39.0273 18.8429 38.672C18.8429 38.3167 19.1579 38.0283 19.5461 38.0283C19.9342 38.0283 20.2492 38.3167 20.2492 38.672C20.2492 39.0273 19.9342 39.3156 19.5461 39.3156ZM19.5461 36.741C18.3833 36.741 17.4367 37.6075 17.4367 38.672C17.4367 39.7364 18.3833 40.6029 19.5461 40.6029C20.7088 40.6029 21.6554 39.7364 21.6554 38.672C21.6554 37.6075 20.7088 36.741 19.5461 36.741ZM19.5461 39.3156C19.1579 39.3156 18.8429 39.0273 18.8429 38.672C18.8429 38.3167 19.1579 38.0283 19.5461 38.0283C19.9342 38.0283 20.2492 38.3167 20.2492 38.672C20.2492 39.0273 19.9342 39.3156 19.5461 39.3156ZM43.4531 36.741C42.2904 36.741 41.3437 37.6075 41.3437 38.672C41.3437 39.7364 42.2904 40.6029 43.4531 40.6029C44.6159 40.6029 45.5625 39.7364 45.5625 38.672C45.5625 37.6075 44.6159 36.741 43.4531 36.741ZM43.4531 39.3156C43.065 39.3156 42.75 39.0273 42.75 38.672C42.75 38.3167 43.065 38.0283 43.4531 38.0283C43.8412 38.0283 44.1562 38.3167 44.1562 38.672C44.1562 39.0273 43.8412 39.3156 43.4531 39.3156ZM43.4531 36.741C42.2904 36.741 41.3437 37.6075 41.3437 38.672C41.3437 39.7364 42.2904 40.6029 43.4531 40.6029C44.6159 40.6029 45.5625 39.7364 45.5625 38.672C45.5625 37.6075 44.6159 36.741 43.4531 36.741ZM43.4531 39.3156C43.065 39.3156 42.75 39.0273 42.75 38.672C42.75 38.3167 43.065 38.0283 43.4531 38.0283C43.8412 38.0283 44.1562 38.3167 44.1562 38.672C44.1562 39.0273 43.8412 39.3156 43.4531 39.3156ZM19.5461 36.741C18.3833 36.741 17.4367 37.6075 17.4367 38.672C17.4367 39.7364 18.3833 40.6029 19.5461 40.6029C20.7088 40.6029 21.6554 39.7364 21.6554 38.672C21.6554 37.6075 20.7088 36.741 19.5461 36.741ZM19.5461 39.3156C19.1579 39.3156 18.8429 39.0273 18.8429 38.672C18.8429 38.3167 19.1579 38.0283 19.5461 38.0283C19.9342 38.0283 20.2492 38.3167 20.2492 38.672C20.2492 39.0273 19.9342 39.3156 19.5461 39.3156ZM19.5461 36.741C18.3833 36.741 17.4367 37.6075 17.4367 38.672C17.4367 39.7364 18.3833 40.6029 19.5461 40.6029C20.7088 40.6029 21.6554 39.7364 21.6554 38.672C21.6554 37.6075 20.7088 36.741 19.5461 36.741ZM19.5461 39.3156C19.1579 39.3156 18.8429 39.0273 18.8429 38.672C18.8429 38.3167 19.1579 38.0283 19.5461 38.0283C19.9342 38.0283 20.2492 38.3167 20.2492 38.672C20.2492 39.0273 19.9342 39.3156 19.5461 39.3156ZM43.4531 36.741C42.2904 36.741 41.3437 37.6075 41.3437 38.672C41.3437 39.7364 42.2904 40.6029 43.4531 40.6029C44.6159 40.6029 45.5625 39.7364 45.5625 38.672C45.5625 37.6075 44.6159 36.741 43.4531 36.741ZM43.4531 39.3156C43.065 39.3156 42.75 39.0273 42.75 38.672C42.75 38.3167 43.065 38.0283 43.4531 38.0283C43.8412 38.0283 44.1562 38.3167 44.1562 38.672C44.1562 39.0273 43.8412 39.3156 43.4531 39.3156ZM43.4531 36.741C42.2904 36.741 41.3437 37.6075 41.3437 38.672C41.3437 39.7364 42.2904 40.6029 43.4531 40.6029C44.6159 40.6029 45.5625 39.7364 45.5625 38.672C45.5625 37.6075 44.6159 36.741 43.4531 36.741ZM43.4531 39.3156C43.065 39.3156 42.75 39.0273 42.75 38.672C42.75 38.3167 43.065 38.0283 43.4531 38.0283C43.8412 38.0283 44.1562 38.3167 44.1562 38.672C44.1562 39.0273 43.8412 39.3156 43.4531 39.3156ZM19.5461 36.741C18.3833 36.741 17.4367 37.6075 17.4367 38.672C17.4367 39.7364 18.3833 40.6029 19.5461 40.6029C20.7088 40.6029 21.6554 39.7364 21.6554 38.672C21.6554 37.6075 20.7088 36.741 19.5461 36.741ZM19.5461 39.3156C19.1579 39.3156 18.8429 39.0273 18.8429 38.672C18.8429 38.3167 19.1579 38.0283 19.5461 38.0283C19.9342 38.0283 20.2492 38.3167 20.2492 38.672C20.2492 39.0273 19.9342 39.3156 19.5461 39.3156ZM19.5461 36.741C18.3833 36.741 17.4367 37.6075 17.4367 38.672C17.4367 39.7364 18.3833 40.6029 19.5461 40.6029C20.7088 40.6029 21.6554 39.7364 21.6554 38.672C21.6554 37.6075 20.7088 36.741 19.5461 36.741ZM19.5461 39.3156C19.1579 39.3156 18.8429 39.0273 18.8429 38.672C18.8429 38.3167 19.1579 38.0283 19.5461 38.0283C19.9342 38.0283 20.2492 38.3167 20.2492 38.672C20.2492 39.0273 19.9342 39.3156 19.5461 39.3156ZM19.5461 36.741C18.3833 36.741 17.4367 37.6075 17.4367 38.672C17.4367 39.7364 18.3833 40.6029 19.5461 40.6029C20.7088 40.6029 21.6554 39.7364 21.6554 38.672C21.6554 37.6075 20.7088 36.741 19.5461 36.741ZM19.5461 39.3156C19.1579 39.3156 18.8429 39.0273 18.8429 38.672C18.8429 38.3167 19.1579 38.0283 19.5461 38.0283C19.9342 38.0283 20.2492 38.3167 20.2492 38.672C20.2492 39.0273 19.9342 39.3156 19.5461 39.3156Z" fill="#008285"/>
<path d="M26.5781 22.5747C26.5781 23.2845 25.9473 23.862 25.1719 23.862C25.143 23.862 25.114 23.8635 25.0859 23.8671H18.4637C18.7056 23.4868 18.8438 23.0455 18.8438 22.5747C18.8438 22.1061 18.7064 21.6662 18.4669 21.2874H25.1719C25.9473 21.2874 26.5781 21.8648 26.5781 22.5747Z" fill="#49D3CC"/>
<path d="M34.3125 22.5747C34.3125 23.2845 33.6817 23.862 32.9062 23.862C32.8773 23.862 32.8484 23.8635 32.8202 23.8671H27.6035C27.8453 23.4868 27.9843 23.0455 27.9843 22.5747C27.9843 22.1061 27.8469 21.6662 27.6067 21.2874H32.9062C32.9826 21.2874 33.0573 21.2932 33.1304 21.3035C33.7998 21.4021 34.3125 21.9347 34.3125 22.5747Z" fill="#008285"/>
<path d="M36.4219 26.4419C36.4219 27.1517 35.7911 27.7292 35.0156 27.7292C34.9867 27.7292 34.9578 27.7307 34.9297 27.7343H29.7137C29.9556 27.354 30.0938 26.9127 30.0938 26.4419C30.0938 25.9733 29.9564 25.5334 29.7169 25.1545H35.0156C35.7911 25.1545 36.4219 25.732 36.4219 26.4419Z" fill="#008285"/>
<path d="M28.6875 26.4419C28.6875 27.1517 28.0567 27.7292 27.2812 27.7292C27.2523 27.7292 27.2234 27.7307 27.1952 27.7343H20.5722C20.8141 27.354 20.9531 26.9127 20.9531 26.4419C20.9531 25.9733 20.8157 25.5334 20.5754 25.1545H27.2812C28.0567 25.1545 28.6875 25.732 28.6875 26.4419Z" fill="#49D3CC"/>
<path d="M30.7969 30.3095C30.7969 30.3206 30.7969 30.3316 30.7961 30.3426C30.7768 31.0371 30.154 31.5969 29.3906 31.5969H22.6848C22.9251 31.218 23.0625 30.7781 23.0625 30.3095C23.0625 29.841 22.9251 29.4003 22.6848 29.0215H29.3545C29.3665 29.0222 29.3786 29.0222 29.3906 29.0222C30.1661 29.0222 30.7969 29.5997 30.7969 30.3095Z" fill="#49D3CC"/>
<path d="M38.5313 30.3095C38.5313 30.6222 38.4099 30.9083 38.2066 31.1312C37.9487 31.4152 37.5597 31.5969 37.125 31.5969H31.8246C32.0657 31.218 32.2031 30.7781 32.2031 30.3095C32.2031 29.841 32.0657 29.4003 31.8246 29.0215H37.0888C37.1009 29.0222 37.1129 29.0222 37.125 29.0222C37.9004 29.0222 38.5313 29.5997 38.5313 30.3095Z" fill="#008285"/>
<path d="M51.4559 29.0179H45.5641C44.4013 29.0179 43.4547 28.1514 43.4547 27.0869V22.5806H47.9402L51.4253 28.962L51.4559 29.0179Z" fill="#FFDF00"/>
<path d="M39.9391 21.9369V30.3089C39.9391 30.3251 39.9383 30.3405 39.9367 30.356C39.911 30.6892 39.6072 30.9525 39.236 30.9525C38.847 30.9525 38.5328 30.6642 38.5328 30.3089V21.9369C38.5328 21.7596 38.6108 21.5992 38.7386 21.4823C38.8655 21.366 39.0415 21.2939 39.236 21.2939C39.6249 21.2939 39.9383 21.5816 39.9391 21.9369Z" fill="#3F4254"/>
<path d="M54 36.0975C54 36.3609 53.8288 36.586 53.5821 36.686C53.4954 36.7213 53.3981 36.7412 53.2969 36.7412H51.202C50.813 36.7412 50.4988 36.4536 50.4988 36.0975C50.4988 35.7415 50.813 35.4539 51.202 35.4539H53.2969C53.6858 35.4539 54 35.7415 54 36.0975Z" fill="#3F4254"/>
<path d="M54 36.0975V38.6722C54 39.0282 53.6858 39.3158 53.2969 39.3158C52.9079 39.3158 52.5938 39.0282 52.5938 38.6722V36.0975L52.597 36.0423C52.6267 35.7121 52.928 35.4539 53.2969 35.4539C53.6858 35.4539 54 35.7415 54 36.0975Z" fill="#3F4254"/>
<path d="M16.0313 38.669C16.0313 38.6779 16.0313 38.686 16.0305 38.6948V38.7036C16.016 38.9625 15.8344 39.1825 15.5821 39.2722C15.5041 39.3002 15.4198 39.3156 15.3306 39.3156L14.6748 39.3178L11.8189 39.3289H11.8157C11.4381 39.3289 11.1295 39.0567 11.1134 38.7139C11.1126 38.7043 11.1126 38.6948 11.1126 38.6852C11.1126 38.3321 11.4252 38.043 11.8125 38.0416H11.8149L12.5181 38.0386L14.674 38.0305L15.3249 38.0283H15.3281C15.7034 38.0283 16.0096 38.2968 16.0305 38.6359V38.6462C16.0313 38.6536 16.0313 38.6617 16.0313 38.669Z" fill="#3F4254"/>
<path d="M53.2969 32.879C53.2969 33.1916 53.055 33.4513 52.7328 33.5102C52.6878 33.5183 52.6412 33.5227 52.5938 33.5227H51.8906C51.5017 33.5227 51.1875 33.235 51.1875 32.879C51.1875 32.523 51.5017 32.2354 51.8906 32.2354H52.5938C52.6653 32.2354 52.7344 32.2449 52.7995 32.2633C53.0879 32.3435 53.2969 32.5884 53.2969 32.879Z" fill="#3F4254"/>
<path d="M53.2969 29.6615V36.0974C53.2969 36.154 53.2888 36.2084 53.2736 36.2607C53.1956 36.5373 52.9208 36.741 52.5938 36.741C52.2048 36.741 51.8906 36.4534 51.8906 36.0974V29.6622C51.8906 29.4231 52.0329 29.2142 52.2442 29.1039C52.3471 29.0495 52.4668 29.0186 52.5938 29.0186C52.7882 29.0186 52.9642 29.0906 53.0912 29.2069C53.1064 29.2216 53.1217 29.2363 53.1362 29.2517C53.137 29.2525 53.1362 29.2525 53.1362 29.2525C53.1506 29.2687 53.1635 29.2848 53.1771 29.3018C53.1892 29.3187 53.2013 29.3363 53.2117 29.3547C53.2149 29.3591 53.2173 29.3636 53.2197 29.3687C53.2205 29.3702 53.2213 29.3716 53.2221 29.3731C53.2229 29.3746 53.2238 29.3753 53.2238 29.3768C53.2254 29.379 53.2262 29.3805 53.2278 29.3827C53.2278 29.3827 53.2278 29.3827 53.2278 29.3834C53.2318 29.3915 53.2358 29.3996 53.2398 29.4084C53.2406 29.4092 53.2406 29.4099 53.2414 29.4114C53.2462 29.4217 53.2511 29.4327 53.2551 29.4437C53.2583 29.4526 53.2615 29.4614 53.2655 29.4702C53.2655 29.4702 53.2655 29.4702 53.2655 29.471C53.2663 29.4732 53.2663 29.4754 53.2671 29.4776C53.2679 29.4783 53.2679 29.479 53.2679 29.479C53.2712 29.4886 53.2744 29.4974 53.276 29.507C53.2784 29.5144 53.28 29.5224 53.2816 29.5305C53.284 29.5394 53.2864 29.5482 53.2872 29.557C53.288 29.5592 53.2888 29.5614 53.2888 29.5644C53.2904 29.5754 53.2921 29.5864 53.2929 29.5967C53.2945 29.607 53.2953 29.6181 53.2961 29.6284C53.2969 29.6394 53.2969 29.6504 53.2969 29.6615Z" fill="#3F4254"/>
<path d="M49.0781 21.9369C49.0781 22.2782 48.788 22.5577 48.4208 22.5791C48.4055 22.5798 48.3902 22.5805 48.375 22.5805H39.236C38.847 22.5805 38.5336 22.2929 38.5328 21.9376V21.9369C38.5328 21.7596 38.6108 21.5992 38.7386 21.4823C38.7699 21.4536 38.8044 21.4271 38.8422 21.4036C38.9539 21.3337 39.0905 21.2932 39.236 21.2932H48.375C48.387 21.2932 48.3991 21.2932 48.4111 21.2939C48.4352 21.2954 48.4586 21.2976 48.4819 21.3006C48.4923 21.302 48.5036 21.3035 48.514 21.3057C48.5252 21.3079 48.5357 21.3109 48.5461 21.3131C48.5791 21.3197 48.6104 21.3293 48.641 21.341C48.6482 21.344 48.6554 21.3469 48.6627 21.3499C48.776 21.3962 48.8772 21.4705 48.9511 21.5683C48.9608 21.5808 48.9704 21.5941 48.9785 21.6073C48.9873 21.6206 48.9953 21.6345 49.0034 21.6485L49.0114 21.664C49.054 21.7471 49.0781 21.8398 49.0781 21.9369Z" fill="#3F4254"/>
<path d="M53.2969 29.6615V29.6623C53.2969 29.6755 53.2961 29.6888 53.2953 29.702C53.2937 29.7351 53.288 29.7675 53.2808 29.7984C53.2744 29.8249 53.2663 29.8513 53.2559 29.8763C53.2511 29.8903 53.2447 29.9036 53.239 29.9168C53.2326 29.9308 53.2254 29.944 53.2181 29.9565C53.2109 29.9698 53.2029 29.9823 53.1948 29.9955C53.186 30.008 53.1772 30.0198 53.1683 30.0323C53.1595 30.0433 53.1498 30.0551 53.1402 30.0661C53.1394 30.0676 53.1378 30.0691 53.1362 30.0713C53.096 30.1154 53.0486 30.1551 52.9955 30.1897C52.9835 30.1971 52.9714 30.2044 52.9586 30.2118C52.957 30.2133 52.9546 30.214 52.953 30.2147C52.9385 30.2221 52.9232 30.2294 52.908 30.2368C52.8975 30.2419 52.8871 30.2464 52.8766 30.2508C52.8758 30.2508 52.8758 30.2515 52.875 30.2515C52.8605 30.2574 52.8461 30.2633 52.8308 30.2677C52.8236 30.2699 52.8172 30.2721 52.8099 30.2743C52.7963 30.278 52.7834 30.2817 52.7697 30.2846C52.7585 30.2875 52.7472 30.2898 52.736 30.292C52.7239 30.2942 52.7127 30.2964 52.7006 30.2978C52.6789 30.3008 52.6564 30.303 52.6339 30.3045C52.6203 30.3052 52.6074 30.3052 52.5938 30.3052C52.3358 30.3052 52.0883 30.175 51.9646 29.9492L51.8906 29.8138L51.4559 29.0179L47.9403 22.5805L47.7458 22.2245C47.6952 22.1318 47.6711 22.034 47.6711 21.9369C47.6711 21.7007 47.8141 21.4734 48.06 21.3609C48.1484 21.3204 48.2416 21.2984 48.334 21.2932H48.375C48.3871 21.2932 48.3991 21.2932 48.4112 21.2939C48.4353 21.2954 48.4586 21.2976 48.4819 21.3006C48.4923 21.302 48.5036 21.3035 48.514 21.3057C48.5253 21.3079 48.5357 21.3109 48.5462 21.3131C48.5791 21.3197 48.6105 21.3293 48.641 21.341C48.6482 21.344 48.6555 21.3469 48.6627 21.3499C48.776 21.3962 48.8772 21.4705 48.9512 21.5683C48.9608 21.5808 48.9705 21.5941 48.9785 21.6073C48.9873 21.6206 48.9954 21.6345 49.0034 21.6485L49.0114 21.664L53.2117 29.3548C53.2149 29.3592 53.2173 29.3636 53.2197 29.3688C53.2205 29.3702 53.2214 29.3717 53.2222 29.3732C53.2238 29.3747 53.2246 29.3761 53.2246 29.3783C53.2262 29.3798 53.227 29.382 53.2278 29.3835C53.2326 29.3916 53.2366 29.4004 53.2398 29.4085C53.2414 29.41 53.2414 29.4107 53.2414 29.4114C53.2463 29.4217 53.2511 29.4328 53.2551 29.4438C53.2591 29.4541 53.2631 29.4651 53.2663 29.4754C53.2672 29.4762 53.268 29.4776 53.268 29.4791C53.2712 29.4887 53.2736 29.4975 53.276 29.5063V29.5071C53.2784 29.5144 53.28 29.5225 53.2816 29.5306C53.284 29.5394 53.2864 29.5483 53.2872 29.5571C53.288 29.5593 53.2889 29.5615 53.2889 29.5644C53.2905 29.5755 53.2921 29.5865 53.2929 29.5968C53.2945 29.6078 53.2953 29.6181 53.2961 29.6284C53.2969 29.6395 53.2969 29.6505 53.2969 29.6615Z" fill="#3F4254"/>
<path d="M12.5181 32.2406V38.6743C12.5181 39.0303 12.2039 39.3179 11.8149 39.3179C11.4405 39.3179 11.1351 39.0516 11.1134 38.714C11.1126 38.7007 11.1118 38.6875 11.1118 38.6743V32.2406C11.1118 32.1928 11.1174 32.1457 11.1287 32.1008C11.1978 31.8125 11.4782 31.5969 11.8149 31.5969C12.2039 31.5969 12.5181 31.8853 12.5181 32.2406Z" fill="#3F4254"/>
<path d="M37.8282 32.2406C37.8282 32.5849 37.5332 32.8659 37.1612 32.8835C37.1491 32.8842 37.1371 32.8842 37.125 32.8842H11.8125C11.8005 32.8842 11.7884 32.8842 11.7764 32.8835C11.4051 32.8651 11.1118 32.5849 11.1118 32.2406C11.1118 32.1928 11.1174 32.1457 11.1287 32.1008C11.1978 31.8125 11.4782 31.5969 11.8149 31.5969H37.125C37.514 31.5969 37.8282 31.8853 37.8282 32.2406Z" fill="#3F4254"/>
<path d="M24.4173 38.0285C24.0758 35.8481 22.0211 34.1665 19.5461 34.1665C17.0703 34.1665 15.0147 35.8496 14.674 38.0307C14.6411 38.2403 14.6242 38.4544 14.6242 38.6721C14.6242 38.8913 14.6411 39.1069 14.6748 39.318C15.018 41.4976 17.0719 43.1778 19.5461 43.1778C22.0211 43.1778 24.0758 41.4962 24.4173 39.3158C24.4511 39.1054 24.468 38.8906 24.468 38.6721C24.468 38.4537 24.4511 38.2389 24.4173 38.0285ZM19.5461 35.4538C21.4843 35.4538 23.0617 36.8978 23.0617 38.6721C23.0617 40.4472 21.4851 41.8904 19.5461 41.8904C17.6191 41.8904 16.0489 40.4641 16.0305 38.7038V38.6361C16.0522 36.878 17.6207 35.4538 19.5461 35.4538Z" fill="#3F4254"/>
<path d="M19.5461 35.4539C17.8795 35.4539 16.4805 36.5212 16.1197 37.9483C16.0642 38.1697 16.0329 38.4 16.0305 38.6361V38.6464C16.0313 38.6538 16.0313 38.6619 16.0313 38.6692C16.0313 38.678 16.0313 38.6861 16.0305 38.695V38.7038C16.0489 40.4641 17.6191 41.8905 19.5461 41.8905C20.7844 41.8905 21.874 41.302 22.5 40.4148C22.8552 39.9124 23.0617 39.3144 23.0617 38.6722C23.0617 36.8979 21.4843 35.4539 19.5461 35.4539ZM18.8727 40.5016C18.7779 40.4737 18.6871 40.4376 18.5995 40.3964C18.5947 40.395 18.5898 40.3928 18.585 40.3898C17.9036 40.0706 17.4367 39.4203 17.4367 38.6722C17.4367 37.6077 18.3833 36.7412 19.5461 36.7412C20.7088 36.7412 21.6555 37.6077 21.6555 38.6722C21.6555 39.7366 20.7088 40.6031 19.5461 40.6031C19.3122 40.6031 19.0872 40.5678 18.8767 40.5031C18.8759 40.5031 18.8743 40.5024 18.8727 40.5016Z" fill="#008285"/>
<path d="M19.5461 36.741C18.3833 36.741 17.4367 37.6075 17.4367 38.672C17.4367 39.7364 18.3833 40.6029 19.5461 40.6029C20.7088 40.6029 21.6555 39.7364 21.6555 38.672C21.6555 37.6075 20.7088 36.741 19.5461 36.741ZM19.5461 39.3156C19.158 39.3156 18.843 39.0273 18.843 38.672C18.843 38.3166 19.158 38.0283 19.5461 38.0283C19.9342 38.0283 20.2492 38.3166 20.2492 38.672C20.2492 39.0273 19.9342 39.3156 19.5461 39.3156Z" fill="#3F4254"/>
<path d="M19.5461 39.3156C19.9344 39.3156 20.2492 39.0275 20.2492 38.672C20.2492 38.3165 19.9344 38.0283 19.5461 38.0283C19.1578 38.0283 18.843 38.3165 18.843 38.672C18.843 39.0275 19.1578 39.3156 19.5461 39.3156Z" fill="#9FD5B5"/>
<path d="M43.4531 36.741C42.2904 36.741 41.3438 37.6075 41.3438 38.672C41.3438 39.7364 42.2904 40.6029 43.4531 40.6029C44.6159 40.6029 45.5625 39.7364 45.5625 38.672C45.5625 37.6075 44.6159 36.741 43.4531 36.741ZM43.4531 39.3156C43.065 39.3156 42.75 39.0273 42.75 38.672C42.75 38.3166 43.065 38.0283 43.4531 38.0283C43.8412 38.0283 44.1562 38.3166 44.1562 38.672C44.1562 39.0273 43.8412 39.3156 43.4531 39.3156Z" fill="#3F4254"/>
<path d="M48.3742 38.6331C48.3726 38.4279 48.3557 38.2264 48.3244 38.0285C47.9829 35.8481 45.9281 34.1665 43.4531 34.1665C40.9781 34.1665 38.9234 35.8481 38.5819 38.0285C38.5481 38.2389 38.5312 38.4537 38.5312 38.6721C38.5312 38.8906 38.5481 39.1054 38.5819 39.3158C38.9234 41.4962 40.9781 43.1778 43.4531 43.1778C45.9281 43.1778 47.9829 41.4962 48.3244 39.3158C48.3581 39.1054 48.375 38.8906 48.375 38.6721C48.375 38.6589 48.375 38.6464 48.3742 38.6331ZM43.4531 35.4538C45.3921 35.4538 46.9688 36.8978 46.9688 38.6721C46.9688 40.4472 45.3921 41.8904 43.4531 41.8904C41.5623 41.8904 40.0154 40.5178 39.9407 38.8031C39.9407 38.8023 39.9407 38.8023 39.9407 38.8023C39.9383 38.7589 39.9375 38.7155 39.9375 38.6721C39.9375 38.6287 39.9383 38.5853 39.9407 38.5419C39.9407 38.5419 39.9407 38.5419 39.9407 38.5412C40.0154 36.8272 41.5623 35.4538 43.4531 35.4538Z" fill="#3F4254"/>
<path d="M43.4531 35.4539C41.8034 35.4539 40.4156 36.4999 40.0388 37.9049C39.9833 38.1102 39.9504 38.3227 39.9407 38.5412C39.9407 38.542 39.9407 38.542 39.9407 38.542C39.9504 38.5839 39.9552 38.6273 39.9552 38.6722C39.9552 38.717 39.9504 38.7604 39.9407 38.8024C39.9407 38.8024 39.9407 38.8024 39.9407 38.8031C40.0155 40.5178 41.5623 41.8905 43.4531 41.8905C44.6834 41.8905 45.7674 41.3093 46.3958 40.4318C46.7582 39.9256 46.9688 39.3217 46.9688 38.6722C46.9688 36.8979 45.3922 35.4539 43.4531 35.4539ZM42.9268 40.5421C42.7106 40.4913 42.5073 40.4097 42.3233 40.3015C41.7351 39.9588 41.3438 39.3563 41.3438 38.6722C41.3438 37.6077 42.2904 36.7412 43.4531 36.7412C44.6159 36.7412 45.5625 37.6077 45.5625 38.6722C45.5625 39.7366 44.6159 40.6031 43.4531 40.6031C43.2723 40.6031 43.0964 40.5818 42.9284 40.5428C42.9276 40.5421 42.9276 40.5421 42.9268 40.5421Z" fill="#008285"/>
<path d="M43.4531 39.3156C43.8415 39.3156 44.1562 39.0275 44.1562 38.672C44.1562 38.3165 43.8415 38.0283 43.4531 38.0283C43.0648 38.0283 42.75 38.3165 42.75 38.672C42.75 39.0275 43.0648 39.3156 43.4531 39.3156Z" fill="#9FD5B5"/>
<path d="M39.9552 38.672C39.9552 38.7169 39.9504 38.7603 39.9407 38.8022C39.9407 38.8022 39.9407 38.8022 39.9407 38.8029C39.9062 38.9581 39.8097 39.0935 39.6763 39.1854C39.5582 39.2671 39.4112 39.3156 39.2521 39.3156H23.7648C23.6756 39.3156 23.5905 39.3002 23.5117 39.2722C23.2481 39.1796 23.0617 38.9464 23.0617 38.672C23.0617 38.3159 23.3759 38.0283 23.7648 38.0283H39.2521C39.592 38.0283 39.8748 38.2483 39.9407 38.541C39.9407 38.5418 39.9407 38.5418 39.9407 38.5418C39.9504 38.5837 39.9552 38.6271 39.9552 38.672Z" fill="#3F4254"/>
<path d="M54 38.672C54 39.028 53.6858 39.3156 53.2969 39.3156H47.6719C47.651 39.3156 47.6309 39.3149 47.61 39.3127C47.25 39.2847 46.9688 39.0089 46.9688 38.672C46.9688 38.3159 47.2829 38.0283 47.6719 38.0283H53.2969C53.3162 38.0283 53.3346 38.0291 53.3531 38.0305C53.7155 38.0563 54 38.3336 54 38.672Z" fill="#3F4254"/>
<path d="M53.2969 29.6615V29.6622C53.2969 29.6755 53.2961 29.6887 53.2952 29.7019C53.2936 29.735 53.288 29.7674 53.2808 29.7983C53.2744 29.8248 53.2663 29.8513 53.2559 29.8763C53.2511 29.8903 53.2446 29.9035 53.239 29.9167C53.2326 29.9307 53.2253 29.944 53.2181 29.9565C53.2109 29.9697 53.2028 29.9822 53.1948 29.9955C53.186 30.008 53.1771 30.0197 53.1683 30.0322C53.1594 30.0433 53.1498 30.055 53.1402 30.0661C53.1394 30.0675 53.1377 30.069 53.1361 30.0712C53.096 30.1161 53.0477 30.1566 52.9955 30.1897C52.9835 30.197 52.9714 30.2044 52.9586 30.2117C52.9569 30.2132 52.9545 30.2139 52.9529 30.2147C52.9385 30.2235 52.9232 30.2308 52.9079 30.2375C52.8975 30.2426 52.887 30.2463 52.8766 30.2507C52.8758 30.2507 52.8758 30.2514 52.875 30.2514C52.8605 30.2573 52.8461 30.2632 52.8308 30.2676C52.8236 30.2698 52.8171 30.272 52.8099 30.2742C52.7962 30.2779 52.7834 30.2816 52.7697 30.2845C52.7585 30.2875 52.7472 30.2897 52.736 30.2919C52.7239 30.2941 52.7127 30.2963 52.7006 30.2978C52.6789 30.3007 52.6564 30.3029 52.6339 30.3044C52.6202 30.3051 52.6074 30.3051 52.5937 30.3051H45.5641C45.1752 30.3051 44.861 30.0168 44.861 29.6615C44.861 29.3062 45.1752 29.0178 45.5641 29.0178H52.5937C52.6178 29.0178 52.6428 29.0193 52.6661 29.0215C52.7014 29.0244 52.736 29.0303 52.7697 29.0384C52.781 29.0406 52.7922 29.0436 52.8035 29.0472C52.9144 29.0781 53.0124 29.134 53.0911 29.2069C53.1064 29.2216 53.1217 29.2363 53.1361 29.2517V29.2525C53.1514 29.2687 53.1643 29.2848 53.1771 29.3018C53.1892 29.3187 53.2012 29.3363 53.2117 29.3547C53.2149 29.3591 53.2173 29.3636 53.2197 29.3687C53.2205 29.3702 53.2213 29.3717 53.2221 29.3731C53.2237 29.3746 53.2245 29.3761 53.2245 29.3783C53.2261 29.3797 53.2269 29.3812 53.2277 29.3827C53.2277 29.3827 53.2277 29.3827 53.2277 29.3834C53.2326 29.3915 53.2366 29.4003 53.2398 29.4084C53.2414 29.4099 53.2414 29.4106 53.2414 29.4114C53.2462 29.4217 53.251 29.4327 53.2551 29.4437C53.2583 29.4526 53.2615 29.4614 53.2655 29.4702C53.2655 29.4702 53.2655 29.4702 53.2655 29.471C53.2663 29.4724 53.2663 29.4739 53.2663 29.4754C53.2671 29.4761 53.2679 29.4776 53.2679 29.4791C53.2711 29.4886 53.2736 29.4974 53.276 29.5063V29.507C53.2784 29.5144 53.28 29.5225 53.2816 29.5305C53.284 29.5394 53.2864 29.5482 53.2872 29.557C53.288 29.5592 53.2888 29.5614 53.2888 29.5644C53.2904 29.5754 53.292 29.5865 53.2928 29.5968C53.2944 29.6078 53.2952 29.6181 53.2961 29.6284C53.2969 29.6394 53.2969 29.6504 53.2969 29.6615Z" fill="#3F4254"/>
<path d="M46.2672 29.6614C46.2672 30.0167 45.953 30.3051 45.5641 30.3051C43.6259 30.3051 42.0485 28.8618 42.0485 27.0868C42.0485 26.7315 42.3627 26.4431 42.7516 26.4431C43.1405 26.4431 43.4547 26.7315 43.4547 27.0868C43.4547 28.1512 44.4013 29.0178 45.5641 29.0178C45.953 29.0178 46.2672 29.3061 46.2672 29.6614Z" fill="#3F4254"/>
<path d="M43.4547 21.9369V27.0869C43.4547 27.4429 43.1405 27.7306 42.7516 27.7306C42.3627 27.7306 42.0485 27.4422 42.0485 27.0869V21.9369C42.0485 21.5816 42.3627 21.2932 42.7516 21.2932C43.1405 21.2932 43.4547 21.5816 43.4547 21.9369Z" fill="#3F4254"/>
<path d="M14.2473 29.0214C14.2433 29.0141 14.2385 29.0075 14.2337 29.0001C14.1437 28.8604 14.0392 28.7294 13.9219 28.608C13.4253 28.0931 12.7077 27.7606 11.9065 27.7363C11.8752 27.7356 11.8438 27.7349 11.8125 27.7349H11.7763C11.7747 27.7349 11.7731 27.7349 11.7715 27.7356C11.6799 27.7363 11.5899 27.7415 11.5015 27.7503C10.0961 27.893 9 28.9861 9 30.3095C9 31.5078 9.8992 32.5178 11.1118 32.8032C11.3247 32.8533 11.5473 32.8812 11.7763 32.8834C11.7884 32.8842 11.8004 32.8842 11.8125 32.8842H11.8149C12.0576 32.8842 12.293 32.8555 12.518 32.8025C13.0693 32.6716 13.5554 32.3906 13.9219 32.0102C14.0448 31.883 14.1541 31.7447 14.2473 31.5968C14.4876 31.218 14.625 30.7781 14.625 30.3095V30.3088C14.625 29.8402 14.4876 29.4003 14.2473 29.0214ZM13.2188 30.3095C13.2179 31.0194 12.5879 31.5961 11.8125 31.5961C11.0371 31.5961 10.4062 31.0186 10.4062 30.3088C10.4062 29.5989 11.0371 29.0214 11.8125 29.0214C12.5879 29.0214 13.2188 29.5989 13.2188 30.3088V30.3095Z" fill="#3F4254"/>
<path d="M13.2188 30.3088V30.3095C13.2179 31.0194 12.5879 31.5961 11.8125 31.5961C11.0371 31.5961 10.4062 31.0187 10.4062 30.3088C10.4062 29.5989 11.0371 29.0215 11.8125 29.0215C12.5879 29.0215 13.2188 29.5989 13.2188 30.3088Z" fill="#9FD5B5"/>
<path d="M18.4661 29.0214C18.4621 29.0141 18.4572 29.0075 18.4524 29.0001C18.3624 28.8604 18.2579 28.7294 18.1406 28.608C17.6898 28.1402 17.0558 27.8224 16.3422 27.7503C16.2402 27.74 16.1365 27.7349 16.0312 27.7349C15.926 27.7349 15.8223 27.74 15.7203 27.7503C15.0067 27.8224 14.3727 28.1402 13.9219 28.608C13.8046 28.7294 13.7001 28.8604 13.6101 29.0001C13.6053 29.0075 13.6004 29.0141 13.5964 29.0214C13.3562 29.4003 13.2188 29.8402 13.2188 30.3088V30.3095C13.2188 30.7781 13.3562 31.218 13.5956 31.5968C13.6896 31.7447 13.7981 31.883 13.9219 32.0102C14.437 32.5458 15.1915 32.8842 16.0312 32.8842C16.8702 32.8842 17.6247 32.5458 18.1406 32.0102C18.2636 31.883 18.3729 31.7447 18.4661 31.5968C18.7063 31.218 18.8438 30.7781 18.8438 30.3095V30.3088C18.8438 29.8402 18.7063 29.4003 18.4661 29.0214ZM17.4375 30.3095C17.4367 31.0194 16.8067 31.5961 16.0312 31.5961C15.2558 31.5961 14.6258 31.0194 14.625 30.3095V30.3088C14.625 29.5989 15.2558 29.0214 16.0312 29.0214C16.8067 29.0214 17.4375 29.5989 17.4375 30.3088V30.3095Z" fill="#3F4254"/>
<path d="M17.4375 30.3088V30.3095C17.4367 31.0194 16.8067 31.5961 16.0312 31.5961C15.2558 31.5961 14.6258 31.0194 14.625 30.3095V30.3088C14.625 29.5989 15.2558 29.0215 16.0312 29.0215C16.8067 29.0215 17.4375 29.5989 17.4375 30.3088Z" fill="#9FD5B5"/>
<path d="M22.6848 29.0214C22.2469 28.3307 21.469 27.8423 20.5618 27.7503H20.561C20.4589 27.74 20.3553 27.7349 20.25 27.7349C19.4111 27.7349 18.6565 28.0732 18.1406 28.608C18.0233 28.7294 17.9188 28.8604 17.8288 29.0001C17.824 29.0075 17.8192 29.0141 17.8152 29.0214C17.5749 29.4003 17.4375 29.8402 17.4375 30.3088V30.3095C17.4375 30.7781 17.5749 31.218 17.8144 31.5968C17.9084 31.7447 18.0169 31.883 18.1406 32.0102C18.6557 32.5458 19.4103 32.8842 20.25 32.8842C21.289 32.8842 22.1979 32.3655 22.6848 31.5968C22.9251 31.218 23.0625 30.7781 23.0625 30.3095C23.0625 29.8409 22.9251 29.4003 22.6848 29.0214ZM21.6562 30.3088C21.6562 31.0186 21.0254 31.5961 20.25 31.5961C19.4746 31.5961 18.8446 31.0194 18.8438 30.3095V30.3088C18.8438 29.5989 19.4746 29.0214 20.25 29.0214C21.0254 29.0214 21.6562 29.5989 21.6562 30.3088Z" fill="#3F4254"/>
<path d="M21.6562 30.3088C21.6562 31.0187 21.0254 31.5961 20.25 31.5961C19.4746 31.5961 18.8446 31.0194 18.8438 30.3095V30.3088C18.8438 29.5989 19.4746 29.0215 20.25 29.0215C21.0254 29.0215 21.6562 29.5989 21.6562 30.3088Z" fill="#9FD5B5"/>
<path d="M16.3567 25.1545C16.3527 25.1472 16.3479 25.1405 16.343 25.1332C16.253 24.9934 16.1478 24.8617 16.0312 24.7404C15.5845 24.2777 14.9601 23.9621 14.2554 23.8856C14.1461 23.8731 14.0352 23.8672 13.9219 23.8672C13.9098 23.8672 13.8978 23.8672 13.8857 23.8679C13.7925 23.8687 13.7001 23.8738 13.6093 23.8834C12.2046 24.0261 11.1094 25.1192 11.1094 26.4418C11.1094 26.9192 11.2524 27.3665 11.5015 27.7505C11.5087 27.7637 11.5176 27.7762 11.5264 27.7895C11.6743 28.0094 11.8583 28.208 12.0696 28.378C12.4915 28.7156 13.0235 28.9414 13.6101 29.0003C13.7121 29.0113 13.8166 29.0165 13.9219 29.0165C14.0271 29.0165 14.1316 29.0113 14.2337 29.0003C14.9472 28.9282 15.5804 28.6112 16.0312 28.1433C16.1478 28.0219 16.253 27.8903 16.3422 27.7505C16.3471 27.7453 16.3503 27.7395 16.3535 27.7343C16.5954 27.354 16.7344 26.9126 16.7344 26.4418C16.7344 25.9732 16.597 25.5334 16.3567 25.1545ZM13.9219 27.7292C13.1464 27.7292 12.5156 27.1517 12.5156 26.4418C12.5156 25.732 13.1464 25.1545 13.9219 25.1545C14.6973 25.1545 15.3281 25.732 15.3281 26.4418C15.3281 27.1517 14.6973 27.7292 13.9219 27.7292Z" fill="#3F4254"/>
<path d="M13.9219 27.7292C14.6985 27.7292 15.3281 27.1528 15.3281 26.4419C15.3281 25.7309 14.6985 25.1545 13.9219 25.1545C13.1452 25.1545 12.5156 25.7309 12.5156 26.4419C12.5156 27.1528 13.1452 27.7292 13.9219 27.7292Z" fill="#FEB404"/>
<path d="M20.5754 25.1545C20.1383 24.4638 19.3604 23.9753 18.4532 23.8834C18.3512 23.8723 18.2467 23.8672 18.1406 23.8672C17.3017 23.8672 16.5471 24.2056 16.0312 24.7404C15.9147 24.8617 15.8095 24.9934 15.7195 25.1332C15.7146 25.1405 15.7098 25.1472 15.7058 25.1545C15.4655 25.5334 15.3281 25.9732 15.3281 26.4418C15.3281 26.9126 15.4671 27.354 15.709 27.7343C15.7122 27.7395 15.7154 27.7453 15.7203 27.7505C15.8095 27.8903 15.9147 28.0219 16.0312 28.1433C16.4821 28.6112 17.1153 28.9282 17.8288 29.0003C17.9309 29.0113 18.0354 29.0165 18.1406 29.0165C18.2459 29.0165 18.3504 29.0113 18.4524 29.0003C19.3508 28.9098 20.1222 28.4302 20.561 27.7505H20.5618C20.5658 27.7453 20.569 27.7395 20.5722 27.7343C20.8141 27.354 20.9531 26.9126 20.9531 26.4418C20.9531 25.9732 20.8157 25.5334 20.5754 25.1545ZM19.5469 26.4418C19.5469 27.1517 18.9161 27.7292 18.1406 27.7292C17.3652 27.7292 16.7344 27.1517 16.7344 26.4418C16.7344 25.732 17.3652 25.1545 18.1406 25.1545C18.9161 25.1545 19.5469 25.732 19.5469 26.4418Z" fill="#3F4254"/>
<path d="M18.1406 27.7292C18.9173 27.7292 19.5469 27.1528 19.5469 26.4419C19.5469 25.7309 18.9173 25.1545 18.1406 25.1545C17.364 25.1545 16.7344 25.7309 16.7344 26.4419C16.7344 27.1528 17.364 27.7292 18.1406 27.7292Z" fill="#FEB404"/>
<path d="M18.4669 21.2873C18.3134 21.0453 18.1181 20.8276 17.8899 20.6437C17.3941 20.2428 16.7432 20 16.0312 20C16.0192 20 16.0071 20 15.9951 20.0007C14.4611 20.0184 13.2188 21.1659 13.2188 22.5746C13.2188 23.0521 13.361 23.4993 13.6093 23.8833C13.6181 23.8965 13.627 23.9098 13.6358 23.923C13.7668 24.1172 13.9251 24.2945 14.1059 24.4505H14.1067C14.539 24.8227 15.0991 25.0706 15.7195 25.1331C15.8215 25.1441 15.926 25.1493 16.0312 25.1493C16.1365 25.1493 16.241 25.1441 16.343 25.1331C17.2414 25.0426 18.0129 24.563 18.4532 23.8833C18.4564 23.8782 18.4596 23.8723 18.4637 23.8671C18.7055 23.4868 18.8438 23.0454 18.8438 22.5746C18.8438 22.1061 18.7063 21.6662 18.4669 21.2873ZM17.4375 22.5746C17.4375 23.2845 16.8067 23.862 16.0312 23.862C15.2558 23.862 14.625 23.2845 14.625 22.5746C14.625 21.8648 15.2558 21.2873 16.0312 21.2873C16.8067 21.2873 17.4375 21.8648 17.4375 22.5746Z" fill="#3F4254"/>
<path d="M39.9375 30.3095C39.9375 30.325 39.9375 30.3404 39.9367 30.3559C39.9102 31.7425 38.6783 32.8665 37.1612 32.8834C37.1491 32.8842 37.1371 32.8842 37.125 32.8842C36.7361 32.8842 36.4219 32.5965 36.4219 32.2405C36.4219 31.8852 36.7361 31.5968 37.125 31.5968C37.9004 31.5968 38.5312 31.0194 38.5312 30.3095C38.5312 29.5996 37.9004 29.0222 37.125 29.0222C37.1129 29.0222 37.1009 29.0222 37.0888 29.0214C36.8164 29.0089 36.5858 28.8545 36.4813 28.6382C36.4428 28.5587 36.4219 28.4712 36.4219 28.3785C36.4219 28.1593 36.5416 27.9658 36.724 27.8496C36.8381 27.7775 36.9755 27.7349 37.125 27.7349H37.1612C37.1644 27.7349 37.1684 27.7356 37.1716 27.7356C37.2616 27.7363 37.3492 27.7415 37.436 27.7503H37.4368C37.8329 27.7908 38.2034 27.9063 38.5329 28.0813C38.7972 28.2218 39.0351 28.4013 39.236 28.6102C39.6731 29.0641 39.9375 29.6592 39.9375 30.3095Z" fill="#3F4254"/>
<path d="M37.8281 26.4418C37.8281 26.9192 37.6851 27.3665 37.4368 27.7505H37.436C37.4287 27.7637 37.4199 27.7762 37.4111 27.7895C37.2905 27.9682 37.1467 28.133 36.9836 28.2801H36.9828C36.8309 28.4162 36.6629 28.5369 36.4813 28.6384C36.0538 28.8782 35.5524 29.0165 35.0156 29.0165C34.6267 29.0165 34.3125 28.7281 34.3125 28.3728C34.3125 28.044 34.5817 27.7726 34.9296 27.7343C34.9578 27.7306 34.9867 27.7292 35.0156 27.7292C35.7911 27.7292 36.4219 27.1517 36.4219 26.4418C36.4219 25.732 35.7911 25.1545 35.0156 25.1545C34.7279 25.1545 34.4813 24.9971 34.3728 24.7713C34.3342 24.6918 34.3125 24.6035 34.3125 24.5108C34.3125 24.2497 34.4829 24.0246 34.7271 23.9238C34.8147 23.887 34.9128 23.8672 35.0156 23.8672C35.0277 23.8672 35.0397 23.8672 35.0518 23.8679C35.145 23.8687 35.2374 23.8738 35.3282 23.8834C36.7329 24.0261 37.8281 25.1192 37.8281 26.4418Z" fill="#3F4254"/>
<path d="M18.4669 21.2873C18.3134 21.0453 18.1181 20.8276 17.8899 20.6437C17.3941 20.2428 16.7432 20 16.0312 20C16.0192 20 16.0071 20 15.9951 20.0007C14.4611 20.0184 13.2188 21.1659 13.2188 22.5746C13.2188 23.0521 13.361 23.4993 13.6093 23.8833C13.6181 23.8965 13.627 23.9098 13.6358 23.923C13.7668 24.1172 13.9251 24.2945 14.1059 24.4505H14.1067C14.539 24.8227 15.0991 25.0706 15.7195 25.1331C15.8215 25.1441 15.926 25.1493 16.0312 25.1493C16.1365 25.1493 16.241 25.1441 16.343 25.1331C17.2414 25.0426 18.0129 24.563 18.4532 23.8833C18.4564 23.8782 18.4596 23.8723 18.4637 23.8671C18.7055 23.4868 18.8438 23.0454 18.8438 22.5746C18.8438 22.1061 18.7063 21.6662 18.4669 21.2873ZM17.4375 22.5746C17.4375 23.2845 16.8067 23.862 16.0312 23.862C15.2558 23.862 14.625 23.2845 14.625 22.5746C14.625 21.8648 15.2558 21.2873 16.0312 21.2873C16.8067 21.2873 17.4375 21.8648 17.4375 22.5746Z" fill="#3F4254"/>
<path d="M16.0312 23.862C16.8079 23.862 17.4375 23.2856 17.4375 22.5747C17.4375 21.8637 16.8079 21.2874 16.0312 21.2874C15.2546 21.2874 14.625 21.8637 14.625 22.5747C14.625 23.2856 15.2546 23.862 16.0312 23.862Z" fill="#9FD5B5"/>
<path d="M27.9844 22.5746C27.9844 23.0454 27.8454 23.4868 27.6035 23.8671C27.6003 23.8723 27.5971 23.8782 27.593 23.8833C27.3592 24.2452 27.0297 24.5512 26.6384 24.7712C26.2109 25.011 25.7087 25.1493 25.1719 25.1493C24.7829 25.1493 24.4688 24.8609 24.4688 24.5056C24.4688 24.1768 24.7379 23.9054 25.0859 23.8671C25.114 23.8634 25.1429 23.862 25.1719 23.862C25.9473 23.862 26.5781 23.2845 26.5781 22.5746C26.5781 21.8648 25.9473 21.2873 25.1719 21.2873C24.7829 21.2873 24.4688 20.999 24.4688 20.6437C24.4688 20.2884 24.7829 20 25.1719 20C25.8838 20 26.5347 20.2428 27.0305 20.6437C27.2588 20.8276 27.454 21.0453 27.6067 21.2873C27.847 21.6662 27.9844 22.1061 27.9844 22.5746Z" fill="#3F4254"/>
<path d="M35.7188 22.5746C35.7188 23.0521 35.5765 23.4993 35.3282 23.8833C35.3194 23.8965 35.3105 23.9098 35.3017 23.923C35.149 24.1496 34.9586 24.3534 34.7392 24.5262C34.6243 24.6167 34.5021 24.6984 34.3728 24.7712C33.9453 25.011 33.443 25.1493 32.9062 25.1493C32.5173 25.1493 32.2031 24.8609 32.2031 24.5056C32.2031 24.1768 32.4723 23.9054 32.8203 23.8671C32.8484 23.8634 32.8773 23.862 32.9062 23.862C33.6817 23.862 34.3125 23.2845 34.3125 22.5746C34.3125 21.8648 33.6817 21.2873 32.9062 21.2873C32.5173 21.2873 32.2031 20.999 32.2031 20.6437C32.2031 20.2884 32.5173 20 32.9062 20C32.9183 20 32.9304 20 32.9424 20.0007C34.4764 20.0184 35.7188 21.1659 35.7188 22.5746Z" fill="#3F4254"/>
<path d="M30.0938 26.4418C30.0938 26.9126 29.9555 27.354 29.7137 27.7343C29.7096 27.7402 29.7064 27.7453 29.7024 27.7512C29.4678 28.1131 29.1391 28.4184 28.747 28.6384C28.3195 28.8782 27.818 29.0165 27.2812 29.0165C26.8923 29.0165 26.5781 28.7281 26.5781 28.3728C26.5781 28.044 26.8473 27.7726 27.1953 27.7343C27.2234 27.7306 27.2523 27.7292 27.2812 27.7292C28.0567 27.7292 28.6875 27.1517 28.6875 26.4418C28.6875 25.732 28.0567 25.1545 27.2812 25.1545C26.9936 25.1545 26.7469 24.9971 26.6384 24.7713C26.5998 24.6918 26.5781 24.6035 26.5781 24.5108C26.5781 24.1555 26.8923 23.8672 27.2812 23.8672C27.3865 23.8672 27.491 23.8723 27.593 23.8834C28.5003 23.9753 29.2789 24.4638 29.7169 25.1545C29.9563 25.5334 30.0938 25.9732 30.0938 26.4418Z" fill="#3F4254"/>
<path d="M32.2031 30.3095C32.2031 30.7781 32.0657 31.218 31.8246 31.5968C31.3385 32.3655 30.4296 32.8842 29.3906 32.8842C29.0017 32.8842 28.6875 32.5965 28.6875 32.2405C28.6875 31.8852 29.0017 31.5968 29.3906 31.5968C30.1661 31.5968 30.7969 31.0194 30.7969 30.3095C30.7969 29.5996 30.1661 29.0222 29.3906 29.0222C29.3786 29.0222 29.3665 29.0222 29.3545 29.0214C29.0821 29.0089 28.8514 28.8545 28.747 28.6382C28.7084 28.5587 28.6875 28.4712 28.6875 28.3785C28.6875 28.0232 29.0017 27.7349 29.3906 27.7349C29.4959 27.7349 29.6004 27.74 29.7024 27.751C30.6096 27.843 31.3875 28.3307 31.8246 29.0214C32.0657 29.4003 32.2031 29.8409 32.2031 30.3095Z" fill="#3F4254"/>
<path d="M37.8281 28.3778C37.8281 28.3977 37.8273 28.4175 37.8249 28.4374C37.792 28.7647 37.4914 29.0215 37.125 29.0215H11.8125C11.5152 29.0215 11.2613 28.853 11.1584 28.6139C11.1271 28.5411 11.1094 28.4609 11.1094 28.3778C11.1094 28.1159 11.2805 27.8901 11.5264 27.7893C11.602 27.7584 11.6847 27.74 11.7715 27.7356C11.7731 27.7349 11.7747 27.7349 11.7763 27.7349C11.7884 27.7341 11.8004 27.7341 11.8125 27.7341H37.125C37.1371 27.7341 37.1491 27.7341 37.1612 27.7349C37.1644 27.7349 37.1684 27.7356 37.1716 27.7356C37.2568 27.7408 37.3371 27.7591 37.4111 27.7893C37.657 27.8901 37.8281 28.1159 37.8281 28.3778Z" fill="#3F4254"/>
<path d="M35.7188 24.5108C35.7188 24.5748 35.7083 24.6374 35.689 24.6955C35.603 24.961 35.3346 25.1545 35.0156 25.1545H13.9219C13.5329 25.1545 13.2188 24.8661 13.2188 24.5108V24.5042C13.222 24.2446 13.3923 24.0224 13.6358 23.9231C13.7129 23.8915 13.7973 23.8723 13.8857 23.8679C13.8978 23.8672 13.9098 23.8672 13.9219 23.8672H35.0156C35.0277 23.8672 35.0397 23.8672 35.0518 23.8679C35.1402 23.8723 35.2246 23.8915 35.3017 23.9231C35.5476 24.0231 35.7188 24.249 35.7188 24.5108Z" fill="#3F4254"/>
<path d="M33.6094 20.6437C33.6094 20.999 33.2952 21.2873 32.9062 21.2873H16.0312C15.6881 21.2873 15.4029 21.063 15.341 20.7658C15.3321 20.726 15.3281 20.6856 15.3281 20.6437C15.3281 20.2994 15.623 20.0184 15.9951 20.0007C16.0071 20 16.0192 20 16.0312 20H32.9062C32.9183 20 32.9304 20 32.9424 20.0007C33.3145 20.0184 33.6094 20.2994 33.6094 20.6437Z" fill="#3F4254"/>
<path opacity="0.4" d="M51.4254 28.962L43.5447 22.5806H47.9403L51.4254 28.962Z" fill="white"/>
<path opacity="0.4" d="M46.9688 38.6722C46.9688 39.3217 46.7582 39.9256 46.3958 40.4317C45.8172 40.662 45.1792 40.7893 44.5082 40.7893C43.9546 40.7893 43.4226 40.7025 42.9284 40.5428C43.0963 40.5818 43.2723 40.6031 43.4531 40.6031C44.6159 40.6031 45.5625 39.7366 45.5625 38.6722C45.5625 37.6077 44.6159 36.7412 43.4531 36.7412C42.2904 36.7412 41.3438 37.6077 41.3438 38.6722C41.3438 39.3563 41.7351 39.9588 42.3233 40.3015C41.2666 39.7991 40.443 38.9429 40.0388 37.9049C40.4156 36.4999 41.8034 35.4539 43.4531 35.4539C45.3921 35.4539 46.9688 36.8979 46.9688 38.6722Z" fill="white"/>
<path opacity="0.4" d="M23.0617 38.6722C23.0617 39.3144 22.8552 39.9124 22.5 40.4148C21.911 40.6554 21.2585 40.7893 20.5722 40.7893C19.9752 40.7893 19.403 40.6885 18.8767 40.5031C19.0872 40.5678 19.3122 40.6031 19.5461 40.6031C20.7088 40.6031 21.6554 39.7366 21.6554 38.6722C21.6554 37.6077 20.7088 36.7412 19.5461 36.7412C18.3833 36.7412 17.4367 37.6077 17.4367 38.6722C17.4367 39.4203 17.9036 40.0706 18.585 40.3898C17.4487 39.9102 16.5552 39.0304 16.1196 37.9483C16.4804 36.5212 17.8795 35.4539 19.5461 35.4539C21.4843 35.4539 23.0617 36.8979 23.0617 38.6722Z" fill="white"/>
<path opacity="0.4" d="M25.0859 23.8671H22.7427C22.7041 23.5876 22.6848 23.3037 22.6848 23.0153C22.6848 22.4202 22.7684 21.8413 22.9259 21.2874H25.1719C25.9473 21.2874 26.5781 21.8648 26.5781 22.5747C26.5781 23.2845 25.9473 23.862 25.1719 23.862C25.1429 23.862 25.114 23.8635 25.0859 23.8671Z" fill="white"/>
<path opacity="0.4" d="M27.1953 27.7343H24.7042C23.9657 26.987 23.3992 26.1123 23.0577 25.1545H27.2812C28.0567 25.1545 28.6875 25.732 28.6875 26.4419C28.6875 27.1517 28.0567 27.7292 27.2812 27.7292C27.2523 27.7292 27.2234 27.7307 27.1953 27.7343Z" fill="white"/>
<path opacity="0.4" d="M30.7969 30.3095C30.7969 30.3206 30.7969 30.3316 30.7961 30.3426C29.1471 30.2603 27.622 29.7836 26.3507 29.0215H29.3545C29.3665 29.0222 29.3786 29.0222 29.3906 29.0222C30.1661 29.0222 30.7969 29.5997 30.7969 30.3095Z" fill="white"/>
<path opacity="0.4" d="M34.3125 22.5746C34.3125 23.2845 33.6817 23.8619 32.9062 23.8619C32.8773 23.8619 32.8484 23.8634 32.8202 23.8671H31.4919C31.7644 22.9078 32.3365 22.0332 33.1304 21.3035C33.7998 21.402 34.3125 21.9346 34.3125 22.5746Z" fill="white"/>
<path opacity="0.4" d="M36.4219 26.4419C36.4219 27.1517 35.7911 27.7292 35.0156 27.7292C34.9867 27.7292 34.9578 27.7307 34.9296 27.7343H32.0745C31.586 26.9524 31.3128 26.0777 31.312 25.1545H35.0156C35.7911 25.1545 36.4219 25.732 36.4219 26.4419Z" fill="white"/>
<path opacity="0.4" d="M38.5312 30.3095C38.5312 30.6222 38.4099 30.9083 38.2066 31.1312C36.1872 30.9319 34.4057 30.1536 33.1602 29.0215H37.0888C37.1009 29.0222 37.1129 29.0222 37.125 29.0222C37.9004 29.0222 38.5312 29.5997 38.5312 30.3095Z" fill="white"/>
</g>
<defs>
<clipPath id="clip0_0_1">
<rect width="45" height="23.1777" fill="white" transform="translate(9 20)"/>
</clipPath>
</defs>
</svg>
