<svg width="64" height="64" viewBox="0 0 64 64" fill="none" xmlns="http://www.w3.org/2000/svg">
<circle cx="32" cy="32" r="32" fill="#ECFFFF"/>
<g clip-path="url(#clip0_0_1)">
<path d="M49.7168 17.016C49.752 16.8592 49.7712 16.6976 49.7712 16.5328C49.7712 15.1008 48.396 13.9392 46.7 13.9392C45.004 13.9392 43.6288 15.1 43.6288 16.5328C43.6288 16.6984 43.648 16.8592 43.6832 17.016C42.556 18.0432 41.8328 19.416 41.8328 20.1752C41.8328 21.4928 44.012 22.5616 46.7 22.5616C49.388 22.5616 51.5672 21.4936 51.5672 20.1752C51.5672 19.416 50.844 18.0432 49.7168 17.016Z" fill="#9FD5B5"/>
<path opacity="0.4" d="M51.5672 20.636C51.5672 20.964 51.432 21.2768 51.188 21.5616C50.844 21.6392 50.4864 21.68 50.1192 21.68C47.448 21.68 45.2824 19.5144 45.2824 16.8424C45.2824 15.9888 45.504 15.1864 45.892 14.4904C46.1496 14.4304 46.42 14.3992 46.7 14.3992C48.396 14.3992 49.7704 15.5608 49.7704 16.9928C49.7704 17.1584 49.7512 17.32 49.7168 17.4768C50.844 18.504 51.5672 19.8768 51.5672 20.636Z" fill="white"/>
<path d="M39.9168 17.016C39.952 16.8592 39.9712 16.6976 39.9712 16.5328C39.9712 15.1008 38.596 13.9392 36.9 13.9392C35.204 13.9392 33.8288 15.1 33.8288 16.5328C33.8288 16.6984 33.848 16.8592 33.8832 17.016C32.756 18.0432 32.0328 19.416 32.0328 20.1752C32.0328 21.4928 34.212 22.5616 36.9 22.5616C39.588 22.5616 41.7672 21.4936 41.7672 20.1752C41.7672 19.416 41.044 18.0432 39.9168 17.016Z" fill="#008285"/>
<path d="M41.7672 20.636C41.7672 20.964 41.632 21.2768 41.388 21.5616C41.044 21.6392 40.6864 21.68 40.3192 21.68C37.648 21.68 35.4824 19.5144 35.4824 16.8424C35.4824 15.9888 35.704 15.1864 36.092 14.4904C36.3496 14.4304 36.62 14.3992 36.9 14.3992C38.596 14.3992 39.9704 15.5608 39.9704 16.9928C39.9704 17.1584 39.9512 17.32 39.9168 17.4768C41.044 18.504 41.7672 19.8768 41.7672 20.636Z" fill="#49D3CC"/>
<path d="M30.1168 17.016C30.152 16.8592 30.1712 16.6976 30.1712 16.5328C30.1712 15.1008 28.796 13.9392 27.1 13.9392C25.404 13.9392 24.0288 15.1 24.0288 16.5328C24.0288 16.6984 24.048 16.8592 24.0832 17.016C22.956 18.0432 22.2328 19.416 22.2328 20.1752C22.2328 21.4928 24.412 22.5616 27.1 22.5616C29.788 22.5616 31.9672 21.4936 31.9672 20.1752C31.9672 19.416 31.244 18.0432 30.1168 17.016Z" fill="#9FD5B5"/>
<path d="M22.2264 20.636C22.2264 20.964 22.0912 21.2768 21.8472 21.5616C21.1096 22.4192 19.3776 23.0216 17.3592 23.0216C14.6712 23.0216 12.4912 21.9536 12.4912 20.636C12.4912 19.8768 13.2152 18.504 14.3424 17.4768C14.3072 17.32 14.288 17.1584 14.288 16.9928C14.288 15.7968 15.2472 14.7896 16.5512 14.4904C16.8088 14.4304 17.0792 14.3992 17.3592 14.3992C19.0552 14.3992 20.4296 15.5608 20.4296 16.9928C20.4296 17.1584 20.4104 17.32 20.376 17.4768C21.5032 18.504 22.2264 19.8768 22.2264 20.636Z" fill="#008285"/>
<path d="M22.2264 20.636C22.2264 20.964 22.0912 21.2768 21.8472 21.5616C21.5032 21.6392 21.1456 21.68 20.7784 21.68C18.1072 21.68 15.9416 19.5144 15.9416 16.8424C15.9416 15.9888 16.1632 15.1864 16.5512 14.4904C16.8088 14.4304 17.0792 14.3992 17.3592 14.3992C19.0552 14.3992 20.4296 15.5608 20.4296 16.9928C20.4296 17.1584 20.4104 17.32 20.376 17.4768C21.5032 18.504 22.2264 19.8768 22.2264 20.636Z" fill="#49D3CC"/>
<path opacity="0.4" d="M31.9968 20.636C31.9968 20.964 31.8616 21.2768 31.6176 21.5616C31.2736 21.6392 30.916 21.68 30.5488 21.68C27.8776 21.68 25.712 19.5144 25.712 16.8424C25.712 15.9888 25.9336 15.1864 26.3216 14.4904C26.5792 14.4304 26.8496 14.3992 27.1296 14.3992C28.8256 14.3992 30.2 15.5608 30.2 16.9928C30.2 17.1584 30.1808 17.32 30.1464 17.4768C31.2736 18.504 31.9968 19.8768 31.9968 20.636Z" fill="white"/>
<path d="M27.1 13C24.784 13 22.9 14.884 22.9 17.2V17.2144C22.6304 17.4176 22.3984 17.6584 22.2 17.924C22.0016 17.6584 21.7696 17.4168 21.5 17.2144V17.2C21.5 14.884 19.616 13 17.3 13C14.984 13 13.1 14.884 13.1 17.2V17.2144C12.2264 17.872 11.7 18.9016 11.7 20C11.7 21.9304 13.2696 23.5 15.2 23.5H16.6V27.7H18V23.5H19.4C20.5488 23.5 21.5616 22.936 22.2 22.0784C22.8384 22.936 23.8512 23.5 25 23.5H26.4V27.7H27.8V23.5H29.2C30.3488 23.5 31.3616 22.936 32 22.0784C32.6384 22.936 33.6512 23.5 34.8 23.5H36.2V27.7H37.6V23.5H39C40.1488 23.5 41.1616 22.936 41.8 22.0784C42.4384 22.936 43.4512 23.5 44.6 23.5H46V27.7H47.4V23.5H48.8C50.7296 23.5 52.3 21.9304 52.3 20C52.3 18.9016 51.7736 17.872 50.9 17.2144V17.2C50.9 14.884 49.016 13 46.7 13C44.384 13 42.5 14.884 42.5 17.2V17.2144C42.2304 17.4176 41.9984 17.6584 41.8 17.924C41.6016 17.6584 41.3696 17.4168 41.1 17.2144V17.2C41.1 14.884 39.216 13 36.9 13C34.584 13 32.7 14.884 32.7 17.2V17.2144C32.4304 17.4176 32.1984 17.6584 32 17.924C31.8016 17.6584 31.5696 17.4168 31.3 17.2144V17.2C31.3 14.884 29.416 13 27.1 13ZM19.4 22.1H18V21.0744L19.788 19.8824L19.012 18.7176L18 19.3912V17.9H16.6V19.392L15.588 18.7176L14.812 19.8824L16.6 21.0744V22.1H15.2C14.0424 22.1 13.1 21.1576 13.1 20C13.1 19.2512 13.5136 18.5528 14.1792 18.1784C14.424 18.0416 14.5632 17.7712 14.5328 17.4928L14.516 17.36C14.5088 17.3072 14.5 17.2544 14.5 17.2C14.5 15.656 15.756 14.4 17.3 14.4C18.844 14.4 20.1 15.656 20.1 17.2C20.1 17.2544 20.0912 17.3072 20.084 17.36L20.0672 17.492C20.0368 17.7696 20.176 18.04 20.4208 18.1776C21.0864 18.5528 21.5008 19.2504 21.5008 20C21.5 21.1576 20.5576 22.1 19.4 22.1ZM43.5792 18.1784C43.824 18.0416 43.9632 17.7712 43.9328 17.4928L43.916 17.3608C43.9088 17.3064 43.9 17.2544 43.9 17.1992C43.9 15.6552 45.156 14.3992 46.7 14.3992C48.244 14.3992 49.5 15.6552 49.5 17.1992C49.5 17.2536 49.4912 17.3064 49.484 17.3592L49.4672 17.4912C49.4368 17.7688 49.576 18.0392 49.8208 18.1768C50.4864 18.552 50.9008 19.2496 50.9008 19.9992C50.9008 21.1568 49.9584 22.0992 48.8008 22.0992H47.4V21.0736L49.188 19.8816L48.412 18.7168L47.4 19.3912V17.9H46V19.392L44.988 18.7176L44.212 19.8824L46 21.0744V22.1H44.6C43.4424 22.1 42.5 21.1576 42.5 20C42.5 19.2512 42.9136 18.5528 43.5792 18.1784ZM33.7792 18.1784C34.024 18.0416 34.1632 17.7712 34.1328 17.4928L34.116 17.3608C34.1088 17.3064 34.1 17.2544 34.1 17.1992C34.1 15.6552 35.356 14.3992 36.9 14.3992C38.444 14.3992 39.7 15.6552 39.7 17.1992C39.7 17.2536 39.6912 17.3064 39.684 17.3592L39.6672 17.4912C39.6368 17.7688 39.776 18.0392 40.0208 18.1768C40.6864 18.552 41.1008 19.2496 41.1008 19.9992C41.1008 21.1568 40.1584 22.0992 39.0008 22.0992H37.6008V21.0736L39.3896 19.8816L38.6136 18.7168L37.6016 19.3912V17.9H36.2V19.392L35.1888 18.7176L34.4128 19.8824L36.2008 21.0744V22.1H34.8008C33.6432 22.1 32.7008 21.1576 32.7008 20C32.7 19.2512 33.1136 18.5528 33.7792 18.1784ZM29.2 22.1H27.8V21.0744L29.5888 19.8824L28.8128 18.7176L27.8 19.3912V17.9H26.4V19.392L25.3888 18.7176L24.6128 19.8824L26.4008 21.0744V22.1H25C23.8424 22.1 22.9 21.1576 22.9 20C22.9 19.2512 23.3136 18.5528 23.9792 18.1784C24.224 18.0416 24.3632 17.7712 24.3328 17.4928L24.316 17.3608C24.3088 17.3064 24.3 17.2544 24.3 17.1992C24.3 15.6552 25.556 14.3992 27.1 14.3992C28.644 14.3992 29.9 15.6552 29.9 17.1992C29.9 17.2536 29.8912 17.3064 29.884 17.3592L29.8672 17.4912C29.8368 17.7688 29.976 18.0392 30.2208 18.1768C30.8864 18.552 31.3008 19.2496 31.3008 19.9992C31.3 21.1576 30.3576 22.1 29.2 22.1Z" fill="#3F4254"/>
<path d="M51.6 50.4721V31.5721C51.6 31.1849 51.2864 30.8721 50.9 30.8721H46.7C46.3136 30.8721 46 31.1849 46 31.5721V50.4721H43.9V38.5721C43.9 38.1849 43.5864 37.8721 43.2 37.8721H39C38.6136 37.8721 38.3 38.1849 38.3 38.5721V50.4721H36.2V44.8721C36.2 44.4849 35.8864 44.1721 35.5 44.1721H31.3C30.9136 44.1721 30.6 44.4849 30.6 44.8721V50.4721H29.2V51.8721H53V50.4721H51.6ZM34.8 50.4721H32V45.5721H34.8V50.4721ZM42.5 50.4721H39.7V39.2721H42.5V50.4721ZM50.2 50.4721H47.4V32.2721H50.2V50.4721Z" fill="#3F4254"/>
<path d="M50.2 32.272H47.4V50.472H50.2V32.272Z" fill="#49D3CC"/>
<path d="M42.5 39.272H39.7V50.472H42.5V39.272Z" fill="#9FD5B5"/>
<path d="M34.8 45.572H32V50.472H34.8V45.572Z" fill="#008285"/>
<path d="M27.1 42.772H20.1V35.772C20.1 35.3848 19.7864 35.072 19.4 35.072C14.768 35.072 11 38.84 11 43.472C11 48.104 14.768 51.872 19.4 51.872C24.032 51.872 27.8 48.104 27.8 43.472C27.8 43.0848 27.4864 42.772 27.1 42.772ZM19.4 50.472C15.54 50.472 12.4 47.332 12.4 43.472C12.4 39.8488 15.168 36.8592 18.7 36.5072V43.472C18.7 43.8592 19.0136 44.172 19.4 44.172H26.3648C26.0128 47.704 23.0232 50.472 19.4 50.472Z" fill="#3F4254"/>
<path d="M26.3648 44.1719C26.2088 45.7383 25.5344 47.1535 24.5152 48.2447C23.2368 49.6143 21.4168 50.4719 19.4 50.4719C15.54 50.4719 12.4 47.3319 12.4 43.4719C12.4 41.4775 13.2384 39.6759 14.5816 38.3999C15.6784 37.3567 17.112 36.6655 18.7 36.5071V43.4719C18.7 43.8591 19.0136 44.1719 19.4 44.1719H26.3648Z" fill="#FEB404"/>
<path d="M22.2 32.272C21.8136 32.272 21.5 32.5848 21.5 32.972V40.672C21.5 41.0592 21.8136 41.372 22.2 41.372H29.9C30.2864 41.372 30.6 41.0592 30.6 40.672C30.6 36.04 26.832 32.272 22.2 32.272ZM22.9 39.972V33.7072C26.2016 34.0368 28.836 36.6704 29.1648 39.972H22.9Z" fill="#3F4254"/>
<path d="M29.1648 39.9721H22.9V33.7073C23.0952 33.7265 23.288 33.7545 23.4776 33.7905C26.2704 34.3073 28.4872 36.4881 29.0568 39.2617C29.1048 39.4945 29.1408 39.7313 29.1648 39.9721Z" fill="#FFDF00"/>
<path opacity="0.4" d="M29.0568 39.2615C28.9488 39.2687 28.8392 39.2719 28.7296 39.2719C25.8256 39.2719 23.472 36.9183 23.472 34.0143C23.472 33.9391 23.4736 33.8647 23.4776 33.7903C26.2704 34.3071 28.4872 36.4879 29.0568 39.2615Z" fill="white"/>
<path opacity="0.4" d="M26.3648 44.1719C26.2088 45.7383 25.5344 47.1535 24.5152 48.2447C23.792 48.4615 23.0256 48.5775 22.232 48.5775C17.8344 48.5775 14.2688 45.0119 14.2688 40.6143C14.2688 39.8455 14.3776 39.1023 14.5816 38.3999C15.6784 37.3567 17.112 36.6655 18.7 36.5071V43.4719C18.7 43.8591 19.0136 44.1719 19.4 44.1719H26.3648Z" fill="white"/>
<path d="M50.2 32.272V45.9528L47.4 32.2816V32.272H50.2Z" fill="#9FD5B5"/>
<path d="M42.5 39.272V48.684L39.7 39.4272V39.272H42.5Z" fill="#FFDF00"/>
<path d="M34.8 45.572V50.0272L32.0872 45.572H34.8Z" fill="#49D3CC"/>
</g>
<defs>
<clipPath id="clip0_0_1">
<rect width="42" height="38.872" fill="white" transform="translate(11 13)"/>
</clipPath>
</defs>
</svg>
