<svg width="64" height="64" viewBox="0 0 64 64" fill="none" xmlns="http://www.w3.org/2000/svg">
<circle cx="32" cy="32" r="32" fill="#ECFFFF"/>
<g clip-path="url(#clip0_0_1)">
<path d="M42.6373 19.7379C42.4848 19.5854 42.2779 19.4997 42.0627 19.4997H41.25C40.83 19.4997 40.4832 19.1807 40.4414 18.7712H37.9998V20.3124C37.9998 20.7435 37.8284 21.1565 37.5241 21.4615C37.2191 21.7659 36.8061 21.9372 36.375 21.9372H20.1252C19.6941 21.9372 19.2805 21.7659 18.9761 21.4615C18.6711 21.1565 18.4998 20.7435 18.4998 20.3124V18.7712H16.0581C16.0163 19.1807 15.6702 19.4997 15.2502 19.4997H14.4375C13.989 19.4997 13.6248 19.8639 13.6248 20.3124V49.5624C13.6248 49.7776 13.7104 49.9845 13.8629 50.137C14.0155 50.2895 14.2216 50.3752 14.4375 50.3752H42.0627C42.2779 50.3752 42.4848 50.2895 42.6373 50.137C42.7898 49.9845 42.8748 49.7776 42.8748 49.5624V20.3124C42.8748 20.0972 42.7898 19.8904 42.6373 19.7379ZM17.6877 26.0002H38.8125V41.1008L34.7502 45.1631V42.2499H35.5623C36.0115 42.2499 36.375 41.8864 36.375 41.4372C36.375 41.213 36.2845 41.0103 36.1368 40.8626C35.9899 40.7164 35.7872 40.6252 35.5623 40.6252H34.7502C34.3191 40.6252 33.9055 40.7965 33.6011 41.1008C33.2961 41.4059 33.1248 41.8195 33.1248 42.2499V46.3122H17.6877V26.0002Z" fill="#008285"/>
<path opacity="0.4" d="M42.3921 19.5693C42.2828 19.5199 42.1623 19.4997 42.0425 19.4997H41.25C40.83 19.4997 40.4832 19.1807 40.4414 18.7712H37.9998V20.3124C37.9998 20.7435 37.8284 21.1565 37.5241 21.4615C37.2191 21.7659 36.8061 21.9372 36.375 21.9372H20.1503C19.8668 21.9372 19.5848 21.8731 19.3376 21.7345C18.8097 21.4386 18.4998 20.8919 18.4998 20.3124V18.7712H17.3305C16.6298 18.7712 16.0623 19.3388 16.0623 20.0394V45.7906C16.0623 46.9759 17.0233 47.937 18.2086 47.937H41.3461C42.1902 47.937 42.8748 47.2524 42.8748 46.4083V20.3124C42.8748 20.0004 42.6965 19.7058 42.3921 19.5693ZM38.8125 41.1008L34.7502 45.1631V42.2499H35.5379C35.969 42.2499 36.3436 41.924 36.3729 41.4943C36.3896 41.2478 36.297 41.0228 36.1368 40.8626C35.9899 40.7164 35.7872 40.6252 35.5623 40.6252H34.7802C34.4981 40.6252 34.2175 40.6878 33.9702 40.8237C33.4375 41.1175 33.1248 41.6684 33.1248 42.2499V46.3122H17.6877V26.0002H38.8125V41.1008Z" fill="white"/>
<path d="M36.375 18.6877V20.3125H20.1252V18.6877H21.75C21.9652 18.6877 22.172 18.6021 22.3246 18.4495C22.4771 18.297 22.5627 18.0902 22.5627 17.875V14.6248H33.9375V17.875C33.9375 18.3235 34.301 18.6877 34.7502 18.6877H36.375Z" fill="#FEB404"/>
<path d="M36.375 18.6877V19.1244H24.3003C23.9075 19.1244 23.5886 18.8061 23.5886 18.4126V15.0788C23.5886 14.8281 23.7919 14.6248 24.0426 14.6248H33.9375V17.875C33.9375 18.3242 34.301 18.6877 34.7502 18.6877H36.375Z" fill="#FFDF00"/>
<path d="M49.3745 45.5002H47.7498V47.937H49.3745V45.5002Z" fill="#FEB404"/>
<path d="M49.3752 24.5308L49.3745 35.3358V43.8747H47.7498V24.5308L48.5625 22.4993L49.3752 24.5308Z" fill="#FFDF00"/>
<path d="M24.1875 42.25C24.1875 42.6985 23.8233 43.0627 23.3748 43.0627H21.75C21.3015 43.0627 20.9373 42.6985 20.9373 42.25C20.9373 41.8015 21.3015 41.4373 21.75 41.4373H23.3748C23.8233 41.4373 24.1875 41.8015 24.1875 42.25Z" fill="#008285"/>
<path d="M24.1875 38.1877C24.1875 38.6362 23.8233 38.9998 23.3748 38.9998H21.75C21.3015 38.9998 20.9373 38.6362 20.9373 38.1877C20.9373 37.7385 21.3015 37.375 21.75 37.375H23.3748C23.8233 37.375 24.1875 37.7385 24.1875 38.1877Z" fill="#008285"/>
<path d="M24.1875 34.1248C24.1875 34.574 23.8233 34.9375 23.3748 34.9375H21.75C21.3015 34.9375 20.9373 34.574 20.9373 34.1248C20.9373 33.6763 21.3015 33.3127 21.75 33.3127H23.3748C23.8233 33.3127 24.1875 33.6763 24.1875 34.1248Z" fill="#008285"/>
<path d="M24.1875 30.0625C24.1875 30.511 23.8233 30.8752 23.3748 30.8752H21.75C21.3015 30.8752 20.9373 30.511 20.9373 30.0625C20.9373 29.614 21.3015 29.2498 21.75 29.2498H23.3748C23.8233 29.2498 24.1875 29.614 24.1875 30.0625Z" fill="#008285"/>
<path d="M29.8752 42.25C29.8752 42.6985 29.511 43.0627 29.0625 43.0627H26.625C26.1765 43.0627 25.8123 42.6985 25.8123 42.25C25.8123 41.8015 26.1765 41.4373 26.625 41.4373H29.0625C29.511 41.4373 29.8752 41.8015 29.8752 42.25Z" fill="#008285"/>
<path d="M31.5 38.1877C31.5 38.6362 31.1358 38.9998 30.6873 38.9998H26.625C26.1765 38.9998 25.8123 38.6362 25.8123 38.1877C25.8123 37.7385 26.1765 37.375 26.625 37.375H30.6873C31.1358 37.375 31.5 37.7385 31.5 38.1877Z" fill="#008285"/>
<path d="M35.5623 34.1248C35.5623 34.574 35.1987 34.9375 34.7502 34.9375H26.625C26.1765 34.9375 25.8123 34.574 25.8123 34.1248C25.8123 33.6763 26.1765 33.3127 26.625 33.3127H34.7502C35.1987 33.3127 35.5623 33.6763 35.5623 34.1248Z" fill="#008285"/>
<path d="M35.5623 30.0625C35.5623 30.511 35.1987 30.8752 34.7502 30.8752H26.625C26.1765 30.8752 25.8123 30.511 25.8123 30.0625C25.8123 29.614 26.1765 29.2498 26.625 29.2498H34.7502C35.1987 29.2498 35.5623 29.614 35.5623 30.0625Z" fill="#008285"/>
<path d="M37.5241 17.5386C37.2191 17.2336 36.8061 17.0623 36.375 17.0623H35.5623V14.6248C35.5623 14.1937 35.3909 13.7807 35.0866 13.4764C34.7816 13.1713 34.3686 13 33.9375 13H22.5627C22.1316 13 21.718 13.1713 21.4136 13.4764C21.1086 13.7807 20.9373 14.1937 20.9373 14.6248L20.938 17.0623H20.1252C19.6941 17.0623 19.2805 17.2336 18.9761 17.5386C18.6711 17.843 18.4998 18.2566 18.4998 18.6877V20.3125C18.4998 20.7436 18.6711 21.1566 18.9761 21.4616C19.2805 21.7659 19.6941 21.9373 20.1252 21.9373H36.375C36.8061 21.9373 37.2191 21.7659 37.5241 21.4616C37.8284 21.1566 37.9998 20.7436 37.9998 20.3125V18.6877C37.9998 18.2566 37.8284 17.843 37.5241 17.5386ZM36.375 20.3125H20.1252V18.6877H21.75C21.9652 18.6877 22.172 18.6021 22.3245 18.4496C22.4771 18.297 22.5627 18.0902 22.5627 17.875V14.6248H33.9375V17.875C33.9375 18.3235 34.301 18.6877 34.7502 18.6877H36.375V20.3125Z" fill="#3F4254"/>
<path d="M44.5002 20.3125V49.5625C44.5002 50.2088 44.2433 50.8286 43.7857 51.2862C43.3288 51.743 42.709 52 42.0627 52H14.4375C13.7912 52 13.1707 51.743 12.7138 51.2862C12.257 50.8286 12 50.2088 12 49.5625V20.3125C12 19.6662 12.257 19.0464 12.7138 18.5888C13.1714 18.132 13.7912 17.875 14.4375 17.875H15.2502C15.6987 17.875 16.0623 18.2385 16.0623 18.6877C16.0623 18.7163 16.0609 18.7441 16.0581 18.7713C16.0163 19.1808 15.6702 19.4998 15.2502 19.4998H14.4375C13.989 19.4998 13.6248 19.864 13.6248 20.3125V49.5625C13.6248 49.7777 13.7104 49.9845 13.8629 50.1371C14.0155 50.2896 14.2216 50.3752 14.4375 50.3752H42.0627C42.2779 50.3752 42.4848 50.2896 42.6373 50.1371C42.7898 49.9845 42.8748 49.7777 42.8748 49.5625V20.3125C42.8748 20.0973 42.7898 19.8905 42.6373 19.7379C42.4848 19.5854 42.2779 19.4998 42.0627 19.4998H41.25C40.8301 19.4998 40.4832 19.1808 40.4414 18.7713C40.4387 18.7441 40.4373 18.7163 40.4373 18.6877C40.4373 18.2385 40.8015 17.875 41.25 17.875H42.0627C42.709 17.875 43.3288 18.132 43.7857 18.5888C44.2433 19.0464 44.5002 19.6662 44.5002 20.3125Z" fill="#3F4254"/>
<path d="M31.5 17.875H25.0002C24.551 17.875 24.1875 17.5115 24.1875 17.0623C24.1875 16.6138 24.551 16.2502 25.0002 16.2502H31.5C31.9485 16.2502 32.3127 16.6138 32.3127 17.0623C32.3127 17.5115 31.9485 17.875 31.5 17.875Z" fill="#3F4254"/>
<path d="M50.9422 24.0732L49.3174 20.0109C49.1942 19.7017 48.8954 19.499 48.5625 19.499C48.2296 19.499 47.9308 19.7017 47.8076 20.0109L46.1828 24.0732C46.1445 24.1693 46.125 24.2716 46.125 24.3747V47.9377C46.125 48.3688 46.2963 48.7818 46.6014 49.0868C46.9057 49.3911 47.3194 49.5625 47.7498 49.5625H49.3752C49.8063 49.5625 50.2193 49.3911 50.5243 49.0868C50.8287 48.7818 51 48.3688 51 47.9377V24.3747C51 24.2716 50.9805 24.1693 50.9422 24.0732ZM47.7498 24.5307L48.5625 22.4992L49.3752 24.5307L49.3745 43.8747H47.7498V24.5307ZM49.3745 47.937H47.7498V45.5002H49.3745V47.937Z" fill="#3F4254"/>
<path d="M39.9616 24.8518C39.6566 24.5468 39.2436 24.3755 38.8125 24.3755H17.6877C17.2566 24.3755 16.843 24.5468 16.5386 24.8518C16.2336 25.1562 16.0623 25.5692 16.0623 26.001V46.313C16.0623 46.7441 16.2336 47.1571 16.5386 47.4621C16.843 47.7664 17.2566 47.9378 17.6877 47.9378H33.9375C34.1527 47.9378 34.3595 47.8521 34.512 47.6996C34.5169 47.6947 34.5218 47.6898 34.526 47.685L40.1991 42.0125C40.3516 41.86 40.4373 41.6532 40.4373 41.438V26.001C40.4373 25.5692 40.2659 25.1562 39.9616 24.8518ZM38.8125 41.1009L33.6011 46.3123H17.6877V26.0003H38.8125V41.1009Z" fill="#3F4254"/>
<path d="M17.6877 26.0002V46.3123H33.1248V42.25C33.1248 41.8196 33.2961 41.4059 33.6011 41.1009C33.9055 40.7966 34.3192 40.6252 34.7502 40.6252H35.5623C35.7872 40.6252 35.9899 40.7165 36.1368 40.8627C36.2845 41.0104 36.375 41.213 36.375 41.4373C36.375 41.8865 36.0115 42.25 35.5623 42.25H34.7502V45.1632L38.8125 41.1009V26.0002H17.6877ZM23.3748 43.0627H21.75C21.3015 43.0627 20.9373 42.6985 20.9373 42.25C20.9373 41.8015 21.3015 41.4373 21.75 41.4373H23.3748C23.8233 41.4373 24.1875 41.8015 24.1875 42.25C24.1875 42.6985 23.8233 43.0627 23.3748 43.0627ZM23.3748 38.9998H21.75C21.3015 38.9998 20.9373 38.6362 20.9373 38.1877C20.9373 37.7385 21.3015 37.375 21.75 37.375H23.3748C23.8233 37.375 24.1875 37.7385 24.1875 38.1877C24.1875 38.6362 23.8233 38.9998 23.3748 38.9998ZM23.3748 34.9375H21.75C21.3015 34.9375 20.9373 34.574 20.9373 34.1248C20.9373 33.6763 21.3015 33.3127 21.75 33.3127H23.3748C23.8233 33.3127 24.1875 33.6763 24.1875 34.1248C24.1875 34.574 23.8233 34.9375 23.3748 34.9375ZM23.3748 30.8752H21.75C21.3015 30.8752 20.9373 30.511 20.9373 30.0625C20.9373 29.614 21.3015 29.2498 21.75 29.2498H23.3748C23.8233 29.2498 24.1875 29.614 24.1875 30.0625C24.1875 30.511 23.8233 30.8752 23.3748 30.8752ZM29.0625 43.0627H26.625C26.1765 43.0627 25.8123 42.6985 25.8123 42.25C25.8123 41.8015 26.1765 41.4373 26.625 41.4373H29.0625C29.511 41.4373 29.8752 41.8015 29.8752 42.25C29.8752 42.6985 29.511 43.0627 29.0625 43.0627ZM30.6873 38.9998H26.625C26.1765 38.9998 25.8123 38.6362 25.8123 38.1877C25.8123 37.7385 26.1765 37.375 26.625 37.375H30.6873C31.1358 37.375 31.5 37.7385 31.5 38.1877C31.5 38.6362 31.1358 38.9998 30.6873 38.9998ZM34.7502 34.9375H26.625C26.1765 34.9375 25.8123 34.574 25.8123 34.1248C25.8123 33.6763 26.1765 33.3127 26.625 33.3127H34.7502C35.1987 33.3127 35.5623 33.6763 35.5623 34.1248C35.5623 34.574 35.1987 34.9375 34.7502 34.9375ZM34.7502 30.8752H26.625C26.1765 30.8752 25.8123 30.511 25.8123 30.0625C25.8123 29.614 26.1765 29.2498 26.625 29.2498H34.7502C35.1987 29.2498 35.5623 29.614 35.5623 30.0625C35.5623 30.511 35.1987 30.8752 34.7502 30.8752Z" fill="#49D3CC"/>
<path d="M17.6877 26.0002V46.3123H33.1248V42.25C33.1248 41.8196 33.2961 41.4059 33.6011 41.1009C33.9055 40.7966 34.3192 40.6252 34.7502 40.6252H35.5623C35.7872 40.6252 35.9899 40.7165 36.1368 40.8627C36.2845 41.0104 36.375 41.213 36.375 41.4373C36.375 41.8865 36.0115 42.25 35.5623 42.25H34.7502V45.1632L38.8125 41.1009V26.0002H17.6877ZM26.625 41.4373H29.0625C29.511 41.4373 29.8752 41.8015 29.8752 42.25C29.8752 42.6985 29.511 43.0627 29.0625 43.0627H26.625C26.1765 43.0627 25.8123 42.6985 25.8123 42.25C25.8123 41.8015 26.1765 41.4373 26.625 41.4373ZM25.8123 38.1877C25.8123 37.7385 26.1765 37.375 26.625 37.375H30.6873C31.1358 37.375 31.5 37.7385 31.5 38.1877C31.5 38.6362 31.1358 38.9998 30.6873 38.9998H26.625C26.1765 38.9998 25.8123 38.6362 25.8123 38.1877ZM21.75 29.2498H23.3748C23.8233 29.2498 24.1875 29.614 24.1875 30.0625C24.1875 30.511 23.8233 30.8752 23.3748 30.8752H21.75C21.3015 30.8752 20.9373 30.511 20.9373 30.0625C20.9373 29.614 21.3015 29.2498 21.75 29.2498ZM21.75 33.3127H23.3748C23.8233 33.3127 24.1875 33.6763 24.1875 34.1248C24.1875 34.574 23.8233 34.9375 23.3748 34.9375H21.75C21.3015 34.9375 20.9373 34.574 20.9373 34.1248C20.9373 33.6763 21.3015 33.3127 21.75 33.3127ZM21.75 37.375H23.3748C23.8233 37.375 24.1875 37.7385 24.1875 38.1877C24.1875 38.6362 23.8233 38.9998 23.3748 38.9998H21.75C21.3015 38.9998 20.9373 38.6362 20.9373 38.1877C20.9373 37.7385 21.3015 37.375 21.75 37.375ZM21.75 41.4373H23.3748C23.8233 41.4373 24.1875 41.8015 24.1875 42.25C24.1875 42.6985 23.8233 43.0627 23.3748 43.0627H21.75C21.3015 43.0627 20.9373 42.6985 20.9373 42.25C20.9373 41.8015 21.3015 41.4373 21.75 41.4373ZM34.7502 34.9375H26.625C26.1765 34.9375 25.8123 34.574 25.8123 34.1248C25.8123 33.6763 26.1765 33.3127 26.625 33.3127H34.7502C35.1987 33.3127 35.5623 33.6763 35.5623 34.1248C35.5623 34.574 35.1987 34.9375 34.7502 34.9375ZM34.7502 30.8752H26.625C26.1765 30.8752 25.8123 30.511 25.8123 30.0625C25.8123 29.614 26.1765 29.2498 26.625 29.2498H34.7502C35.1987 29.2498 35.5623 29.614 35.5623 30.0625C35.5623 30.511 35.1987 30.8752 34.7502 30.8752Z" fill="#49D3CC"/>
<path d="M38.8125 26.0002V41.1009L36.5972 43.3162H21.4944C20.7381 43.3162 20.1252 42.7034 20.1252 41.9471V27.15C20.1252 26.5149 20.6399 26.0002 21.275 26.0002H38.8125Z" fill="#9FD5B5"/>
<path d="M24.1875 30.0625C24.1875 30.511 23.8233 30.8752 23.3748 30.8752H21.75C21.3015 30.8752 20.9373 30.511 20.9373 30.0625C20.9373 29.614 21.3015 29.2498 21.75 29.2498H23.3748C23.8233 29.2498 24.1875 29.614 24.1875 30.0625Z" fill="#3F4254"/>
<path d="M35.5623 30.0625C35.5623 30.511 35.1987 30.8752 34.7502 30.8752H26.625C26.1765 30.8752 25.8123 30.511 25.8123 30.0625C25.8123 29.614 26.1765 29.2498 26.625 29.2498H34.7502C35.1987 29.2498 35.5623 29.614 35.5623 30.0625Z" fill="#3F4254"/>
<path d="M24.1875 34.1248C24.1875 34.574 23.8233 34.9375 23.3748 34.9375H21.75C21.3015 34.9375 20.9373 34.574 20.9373 34.1248C20.9373 33.6763 21.3015 33.3127 21.75 33.3127H23.3748C23.8233 33.3127 24.1875 33.6763 24.1875 34.1248Z" fill="#3F4254"/>
<path d="M35.5623 34.1248C35.5623 34.574 35.1987 34.9375 34.7502 34.9375H26.625C26.1765 34.9375 25.8123 34.574 25.8123 34.1248C25.8123 33.6763 26.1765 33.3127 26.625 33.3127H34.7502C35.1987 33.3127 35.5623 33.6763 35.5623 34.1248Z" fill="#3F4254"/>
<path d="M24.1875 38.1877C24.1875 38.6362 23.8233 38.9998 23.3748 38.9998H21.75C21.3015 38.9998 20.9373 38.6362 20.9373 38.1877C20.9373 37.7385 21.3015 37.375 21.75 37.375H23.3748C23.8233 37.375 24.1875 37.7385 24.1875 38.1877Z" fill="#3F4254"/>
<path d="M31.5 38.1877C31.5 38.6362 31.1358 38.9998 30.6873 38.9998H26.625C26.1765 38.9998 25.8123 38.6362 25.8123 38.1877C25.8123 37.7385 26.1765 37.375 26.625 37.375H30.6873C31.1358 37.375 31.5 37.7385 31.5 38.1877Z" fill="#3F4254"/>
<path d="M24.1875 42.25C24.1875 42.6985 23.8233 43.0627 23.3748 43.0627H21.75C21.3015 43.0627 20.9373 42.6985 20.9373 42.25C20.9373 41.8015 21.3015 41.4373 21.75 41.4373H23.3748C23.8233 41.4373 24.1875 41.8015 24.1875 42.25Z" fill="#3F4254"/>
<path d="M29.8752 42.25C29.8752 42.6985 29.511 43.0627 29.0625 43.0627H26.625C26.1765 43.0627 25.8123 42.6985 25.8123 42.25C25.8123 41.8015 26.1765 41.4373 26.625 41.4373H29.0625C29.511 41.4373 29.8752 41.8015 29.8752 42.25Z" fill="#3F4254"/>
<path d="M36.375 41.4373C36.375 41.8865 36.0115 42.25 35.5623 42.25H34.7502V47.125C34.7502 47.3339 34.6701 47.5345 34.526 47.6849C34.5218 47.6898 34.5169 47.6947 34.512 47.6996C34.3595 47.8521 34.1527 47.9377 33.9375 47.9377C33.489 47.9377 33.1248 47.5735 33.1248 47.125V42.25C33.1248 41.8196 33.2961 41.4059 33.6011 41.1009C33.9055 40.7966 34.3191 40.6252 34.7502 40.6252H35.5623C35.7872 40.6252 35.9899 40.7165 36.1368 40.8627C36.2845 41.0104 36.375 41.213 36.375 41.4373Z" fill="#3F4254"/>
<path opacity="0.4" d="M49.3752 24.5308L49.3745 35.3358L47.7498 37.6668V24.5308L48.5625 22.4993L49.3752 24.5308Z" fill="white"/>
</g>
<defs>
<clipPath id="clip0_0_1">
<rect width="39" height="39" fill="white" transform="translate(12 13)"/>
</clipPath>
</defs>
</svg>
