<svg width="20" height="28" viewBox="0 0 20 28" fill="none" xmlns="http://www.w3.org/2000/svg">
<path d="M3.67672 22.437V25.2645L1.81772 22.437H0.706223V27H1.81772V24.1855L3.67672 27H4.78822V22.437H3.67672ZM5.59392 27H6.70542V25.154H8.09642V24.2895H6.70542V23.3275H8.56442V22.437H5.59392V27ZM8.96011 24.712C8.96011 26.077 9.90911 27.0325 11.2546 27.0325C12.3401 27.0325 13.1591 26.428 13.4191 25.44H12.1971C12.0086 25.83 11.6641 26.025 11.2416 26.025C10.5591 26.025 10.0911 25.518 10.0911 24.712C10.0911 23.906 10.5591 23.399 11.2416 23.399C11.6641 23.399 12.0086 23.594 12.1971 23.984H13.4191C13.1591 22.996 12.3401 22.385 11.2546 22.385C9.90911 22.385 8.96011 23.347 8.96011 24.712Z" fill="#3E97FF"/>
<path d="M17.3438 3.15625C15.625 1.47656 13.3203 0.5 10.9375 0.5C10.3906 0.5 9.96094 0.929688 9.96094 1.4375C9.96094 1.94531 10.3906 2.33594 10.8984 2.33594C12.8125 2.33594 14.6094 3.07812 15.9766 4.44531C17.3047 5.77344 18.0859 7.60938 18.0859 9.52344C18.0859 10.0312 18.4766 10.4219 18.9844 10.4219C19.5703 10.5 20 10.1094 20 9.5625C20 7.14062 19.0234 4.875 17.3438 3.15625ZM12.1094 10.1484C12.6172 9.67969 12.6172 8.85938 12.1094 8.39062C11.875 8.15625 11.5625 8 11.25 8C10.8984 8 10.5859 8.11719 10.3516 8.35156C9.84375 8.82031 9.84375 9.64062 10.3516 10.1094C10.5859 10.3438 10.8984 10.5 11.25 10.5C11.5625 10.5 11.875 10.3828 12.1094 10.1484ZM10.8984 4.25C10.3516 4.25 9.96094 4.67969 9.96094 5.1875C9.96094 5.65625 10.3516 6.08594 10.8594 6.08594C12.7344 6.08594 14.2969 7.60938 14.2969 9.52344C14.2969 10.0312 14.6875 10.4219 15.1953 10.4219C15.6641 10.4219 16.25 10.1094 16.25 9.5625C16.25 8.11719 15.625 6.78906 14.6875 5.8125C13.7109 4.875 12.3828 4.25 10.8984 4.25ZM11.875 18C11.875 18.3516 11.5625 18.625 11.25 18.625H2.5C2.14844 18.625 1.875 18.3516 1.875 18V3C1.875 2.6875 2.14844 2.375 2.5 2.375H8.75V0.5H2.5C1.09375 0.5 0 1.63281 0 3V18C0 19.4062 1.09375 20.5 2.5 20.5H11.25C12.6172 20.5 13.75 19.4062 13.75 18L13.7109 11.75H11.875V18ZM5.625 16.125C5.27344 16.125 5 16.4375 5 16.75C5 17.1016 5.27344 17.375 5.625 17.375H8.125C8.4375 17.375 8.75 17.1016 8.75 16.75C8.75 16.4375 8.4375 16.125 8.125 16.125H5.625Z" fill="#3E97FF"/>
</svg>
